  0
SECTION
  2
HEADER
  9
$ANGBASE
 50
0.0
  9
$ANGDIR
 70
1
  9
$AUNITS
 70
0
  9
$AUPREC
 70
0
  9
$ATTMODE
 70
1
  9
$DWGCODEPAGE
  3
ANSI_1252
  9
$TDCREATE
 40
2461138.35956176
  9
$CECOLOR
 62
256
  9
$CELTSCALE
 40
1.0
  9
$CELWEIGHT
370
-1
  9
$CLAYER
  8
0
  9
$CELTYPE
  6
ByLayer
  9
$CMLJUST
 70
0
  9
$CMLSCALE
 40
20.0
  9
$CMLSTYLE
  2
Standard
  9
$DIMSTYLE
  2
Standard
  9
$LWDISPLAY
290
0
  9
$EXTNAMES
290
1
  9
$HANDSEED
  5
238
  9
$INSUNITS
 70
0
  9
$LUNITS
 70
2
  9
$LUPREC
 70
4
  9
$LTSCALE
 40
1.0
  9
$MIRRTEXT
 70
0
  9
$INSBASE
 10
0.0
 20
0.0
 30
0.0
  9
$SPLINESEGS
 70
8
  9
$PSLTSCALE
 70
1
  9
$PDMODE
 70
0
  9
$PDSIZE
 40
0.0
  9
$PLINEGEN
 70
0
  9
$SURFU
 70
6
  9
$SURFV
 70
6
  9
$TEXTSIZE
 40
2.5
  9
$TEXTSTYLE
  7
Standard
  9
$TDINDWG
 40
0.0
  9
$TDUCREATE
 40
2461138.02622843
  9
$TDUUPDATE
 40
2461138.02622843
  9
$TDUPDATE
 40
2461138.35956176
  9
$ACADVER
  1
AC1032
  0
ENDSEC
  0
SECTION
  2
CLASSES
  0
CLASS
  1
ACDBDICTIONARYWDFLT
  2
AcDbDictionaryWithDefault
  3
ObjectDBX Classes
 90
32768
 91
0
280
0
281
0
  0
CLASS
  1
ACDBPLACEHOLDER
  2
AcDbPlaceHolder
  3
ObjectDBX Classes
 90
0
 91
0
280
0
281
0
  0
CLASS
  1
LAYOUT
  2
AcDbLayout
  3
ObjectDBX Classes
 90
0
 91
2
280
0
281
0
  0
CLASS
  1
DICTIONARYVAR
  2
AcDbDictionaryVar
  3
ObjectDBX Classes
 90
0
 91
6
280
0
281
0
  0
CLASS
  1
TABLESTYLE
  2
AcDbTableStyle
  3
ObjectDBX Classes
 90
4095
 91
0
280
0
281
0
  0
CLASS
  1
MATERIAL
  2
AcDbMaterial
  3
ObjectDBX Classes
 90
1153
 91
3
280
0
281
0
  0
CLASS
  1
VISUALSTYLE
  2
AcDbVisualStyle
  3
ObjectDBX Classes
 90
4095
 91
0
280
0
281
0
  0
CLASS
  1
SCALE
  2
AcDbScale
  3
ObjectDBX Classes
 90
1153
 91
17
280
0
281
0
  0
CLASS
  1
MLEADERSTYLE
  2
AcDbMLeaderStyle
  3
ObjectDBX Classes
 90
4095
 91
1
280
0
281
0
  0
CLASS
  1
CELLSTYLEMAP
  2
AcDbCellStyleMap
  3
ObjectDBX Classes
 90
1152
 91
0
280
0
281
0
  0
CLASS
  1
EXACXREFPANELOBJECT
  2
ExAcXREFPanelObject
  3
ObjectDBX Classes
 90
1025
 91
0
280
0
281
0
  0
CLASS
  1
NPOCOLLECTION
  2
AcDbImpNonPersistentObjectsCollection
  3
ObjectDBX Classes
 90
1153
 91
0
280
0
281
0
  0
CLASS
  1
LAYER_INDEX
  2
AcDbLayerIndex
  3
ObjectDBX Classes
 90
0
 91
0
280
0
281
0
  0
CLASS
  1
SPATIAL_INDEX
  2
AcDbSpatialIndex
  3
ObjectDBX Classes
 90
0
 91
0
280
0
281
0
  0
CLASS
  1
IDBUFFER
  2
AcDbIdBuffer
  3
ObjectDBX Classes
 90
32768
 91
0
280
0
281
0
  0
CLASS
  1
ACDBSECTIONVIEWSTYLE
  2
AcDbSectionViewStyle
  3
ObjectDBX Classes
 90
1025
 91
0
280
0
281
0
  0
CLASS
  1
ACDBDETAILVIEWSTYLE
  2
AcDbDetailViewStyle
  3
ObjectDBX Classes
 90
1025
 91
0
280
0
281
0
  0
CLASS
  1
MESH
  2
AcDbSubDMesh
  3
ObjectDBX Classes
 90
0
 91
0
280
0
281
1
  0
CLASS
  1
SORTENTSTABLE
  2
AcDbSortentsTable
  3
ObjectDBX Classes
 90
0
 91
0
280
0
281
0
  0
CLASS
  1
ACDB_TEXTOBJECTCONTEXTDATA_CLASS
  2
AcDbTextObjectContextData
  3
ObjectDBX Classes
 90
1153
 91
0
280
0
281
0
  0
CLASS
  1
WIPEOUT
  2
AcDbWipeout
  3
WipeOut
 90
32895
 91
0
280
0
281
1
  0
CLASS
  1
WIPEOUTVARIABLES
  2
AcDbWipeoutVariables
  3
WipeOut
 90
32768
 91
0
280
0
281
0
  0
CLASS
  1
DIMASSOC
  2
AcDbDimAssoc
  3
AcDbDimAssoc
 90
0
 91
0
280
0
281
0
  0
CLASS
  1
ACAD_TABLE
  2
AcDbTable
  3
ObjectDBX Classes
 90
1025
 91
0
280
0
281
1
  0
CLASS
  1
TABLECONTENT
  2
AcDbTableContent
  3
ObjectDBX Classes
 90
1152
 91
0
280
0
281
0
  0
CLASS
  1
TABLEGEOMETRY
  2
AcDbTableGeometry
  3
ObjectDBX Classes
 90
1152
 91
0
280
0
281
0
  0
CLASS
  1
IMAGE
  2
AcDbRasterImage
  3
ISM
 90
32895
 91
0
280
0
281
1
  0
CLASS
  1
IMAGEDEF
  2
AcDbRasterImageDef
  3
ISM
 90
0
 91
0
280
0
281
0
  0
CLASS
  1
IMAGEDEF_REACTOR
  2
AcDbRasterImageDefReactor
  3
ISM
 90
1
 91
0
280
0
281
0
  0
CLASS
  1
DBCOLOR
  2
AcDbColor
  3
ObjectDBX Classes
 90
0
 91
0
280
0
281
0
  0
CLASS
  1
GEODATA
  2
AcDbGeoData
  3
ObjectDBX Classes
 90
4095
 91
0
280
0
281
0
  0
CLASS
  1
MULTILEADER
  2
AcDbMLeader
  3
ObjectDBX Classes
 90
1025
 91
0
280
0
281
0
  0
CLASS
  1
PDFUNDERLAY
  2
AcDbPdfReference
  3
ObjectDBX Classes
 90
4095
 91
0
280
0
281
1
  0
CLASS
  1
PDFDEFINITION
  2
AcDbPdfDefinition
  3
ObjectDBX Classes
 90
1153
 91
0
280
0
281
0
  0
CLASS
  1
RASTERVARIABLES
  2
AcDbRasterVariables
  3
ISM
 90
0
 91
0
280
0
281
0
  0
CLASS
  1
SPATIAL_FILTER
  2
AcDbSpatialFilter
  3
ObjectDBX Classes
 90
0
 91
0
280
0
281
0
  0
CLASS
  1
ACDB_MLEADEROBJECTCONTEXTDATA_CLASS
  2
AcDbMLeaderObjectContextData
  3
ObjectDBX Classes
 90
1025
 91
0
280
0
281
0
  0
CLASS
  1
PLOTSETTINGS
  2
AcDbPlotSettings
  3
ObjectDBX Classes
 90
0
 91
0
280
0
281
0
  0
CLASS
  1
FIELD
  2
AcDbField
  3
ObjectDBX Classes
 90
1152
 91
0
280
0
281
0
  0
CLASS
  1
FIELDLIST
  2
AcDbFieldList
  3
ObjectDBX Classes
 90
1152
 91
0
280
0
281
0
  0
CLASS
  1
ACDB_MTEXTATTRIBUTEOBJECTCONTEXTDATA_CLASS
  2
AcDbMTextAttributeObjectContextData
  3
ObjectDBX Classes
 90
1153
 91
0
280
0
281
0
  0
CLASS
  1
ACDB_BLKREFOBJECTCONTEXTDATA_CLASS
  2
AcDbBlkRefObjectContextData
  3
ObjectDBX Classes
 90
1153
 91
0
280
0
281
0
  0
ENDSEC
  0
SECTION
  2
TABLES
  0
TABLE
  2
VPORT
  5
8
330
0
100
AcDbSymbolTable
 70
1
  0
VPORT
  5
3E
330
8
100
AcDbSymbolTableRecord
100
AcDbViewportTableRecord
  2
*Active
 70
0
 10
0.0
 20
0.0
 11
1.0
 21
1.0
 12
0.0
 22
0.0
 13
0.0
 23
0.0
 14
0.5
 24
0.5
 15
10.0
 25
10.0
 16
0.0
 26
0.0
 36
1.0
 17
0.0
 27
0.0
 37
0.0
 40
10.0
 41
1.0
 75
0
 76
1
  0
ENDTAB
  0
TABLE
  2
LTYPE
  5
5
330
0
100
AcDbSymbolTable
 70
3
  0
LTYPE
  5
2B
330
5
100
AcDbSymbolTableRecord
100
AcDbLinetypeTableRecord
  2
ByLayer
 70
0
 72
65
 73
0
 40
0.0
  0
LTYPE
  5
3A
330
5
100
AcDbSymbolTableRecord
100
AcDbLinetypeTableRecord
  2
ByBlock
 70
0
 72
65
 73
0
 40
0.0
  0
LTYPE
  5
3B
330
5
100
AcDbSymbolTableRecord
100
AcDbLinetypeTableRecord
  2
Continuous
 70
0
 72
65
 73
0
 40
0.0
  0
ENDTAB
  0
TABLE
  2
LAYER
  5
2
330
0
100
AcDbSymbolTable
 70
8
  0
LAYER
  5
3C
330
2
100
AcDbSymbolTableRecord
100
AcDbLayerTableRecord
  2
0
 70
0
 62
7
  6
Continuous
290
1
370
-3
390
0
  0
LAYER
  5
47
330
2
100
AcDbSymbolTableRecord
100
AcDbLayerTableRecord
  2
RIGHT
 70
0
 62
7
  6
Continuous
290
1
370
-3
390
0
  0
LAYER
  5
48
330
2
100
AcDbSymbolTableRecord
100
AcDbLayerTableRecord
  2
DIMENSIONS
 70
0
 62
5
  6
Continuous
290
1
370
-3
390
0
  0
LAYER
  5
49
330
2
100
AcDbSymbolTableRecord
100
AcDbLayerTableRecord
  2
OPTIONAL_DIMENSIONS
 70
0
 62
1
  6
Continuous
290
1
370
-3
390
0
  0
LAYER
  5
4A
330
2
100
AcDbSymbolTableRecord
100
AcDbLayerTableRecord
  2
LEFT
 70
0
 62
6
  6
Continuous
290
1
370
-3
390
0
  0
LAYER
  5
4B
330
2
100
AcDbSymbolTableRecord
100
AcDbLayerTableRecord
  2
HIDDEN
 70
0
 62
1
  6
Continuous
290
1
370
-3
390
0
  0
LAYER
  5
4C
330
2
100
AcDbSymbolTableRecord
100
AcDbLayerTableRecord
  2
3
 70
0
 62
6
  6
Continuous
290
1
370
-3
390
0
  0
LAYER
  5
4D
330
2
100
AcDbSymbolTableRecord
100
AcDbLayerTableRecord
  2
COOLING
 70
0
 62
9
  6
Continuous
290
1
370
-3
390
0
  0
ENDTAB
  0
TABLE
  2
STYLE
  5
4
330
0
100
AcDbSymbolTable
 70
1
  0
STYLE
  5
2D
330
4
100
AcDbSymbolTableRecord
100
AcDbTextStyleTableRecord
  2
Standard
 70
0
 40
0.0
 41
1.0
 42
0.0
 50
0.0
 71
0
  0
ENDTAB
  0
TABLE
  2
VIEW
  5
6
330
0
100
AcDbSymbolTable
 70
0
  0
ENDTAB
  0
TABLE
  2
UCS
  5
7
330
0
100
AcDbSymbolTable
 70
0
  0
ENDTAB
  0
TABLE
  2
APPID
  5
9
330
0
100
AcDbSymbolTable
 70
1
  0
APPID
  5
39
330
9
100
AcDbSymbolTableRecord
100
AcDbRegAppTableRecord
  2
ACAD
 70
0
  0
ENDTAB
  0
TABLE
  2
DIMSTYLE
  5
3
330
0
100
AcDbSymbolTable
 70
1
100
AcDbDimStyleTable
  0
DIMSTYLE
105
3D
330
3
100
AcDbSymbolTableRecord
100
AcDbDimStyleTableRecord
  2
Standard
 70
0
  3
<>
  4
[]
 40
1.0
 41
0.18
 42
0.625
 43
3.75
 44
1.25
 45
0.0
 46
0.0
 47
0.0
 48
0.0
 49
1.0
 50
45.0
 70
0
 90
0
140
0.18
141
0.09
142
0.0
143
25.4
144
1.0
145
0.0
146
1.0
147
0.625
148
0.0
 71
0
 72
0
 73
0
 74
0
 75
0
 76
0
 77
1
 78
8
 79
0
170
0
171
3
172
0
173
1
174
0
175
0
176
0
177
0
178
0
179
0
271
2
272
2
273
2
274
3
275
0
276
0
277
2
278
46
279
0
280
0
281
0
282
0
283
0
284
8
285
0
286
0
287
0
288
0
289
3
290
0
340
2D
371
-2
372
-2
  0
ENDTAB
  0
TABLE
  2
BLOCK_RECORD
  5
1
330
0
100
AcDbSymbolTable
 70
3
  0
BLOCK_RECORD
  5
40
330
1
100
AcDbSymbolTableRecord
100
AcDbBlockTableRecord
  2
*Model_Space
 70
0
340
3F
 70
0
280
0
281
1
  0
BLOCK_RECORD
  5
44
330
1
100
AcDbSymbolTableRecord
100
AcDbBlockTableRecord
  2
*Paper_Space
 70
0
340
43
 70
0
280
0
281
1
  0
BLOCK_RECORD
  5
233
330
1
100
AcDbSymbolTableRecord
100
AcDbBlockTableRecord
  2
*D562
 70
0
 70
0
280
0
281
1
  0
ENDTAB
  0
ENDSEC
  0
SECTION
  2
BLOCKS
  0
BLOCK
  5
41
330
40
100
AcDbEntity
  8
0
  6
ByLayer
 62
256
 48
1.0
 60
0
370
-1
100
AcDbBlockBegin
  2
*Model_Space
 70
0
 10
0.0
 20
0.0
 30
0.0
  3
*Model_Space
  0
ENDBLK
  5
42
330
40
100
AcDbEntity
  8
0
100
AcDbBlockEnd
  0
BLOCK
  5
45
330
44
100
AcDbEntity
  8
0
  6
ByLayer
 62
256
 48
1.0
 60
0
370
-1
100
AcDbBlockBegin
  2
*Paper_Space
 70
0
 10
0.0
 20
0.0
 30
0.0
  3
*Paper_Space
  0
ENDBLK
  5
46
330
44
100
AcDbEntity
  8
0
100
AcDbBlockEnd
  0
BLOCK
  5
234
330
233
100
AcDbEntity
  8
0
  6
ByLayer
 62
256
 48
1.0
 60
0
370
-1
100
AcDbBlockBegin
  2
*D562
 70
1
 10
0.0
 20
0.0
 30
0.0
  3
*D562
  0
ENDBLK
  5
235
330
233
100
AcDbEntity
  8
0
100
AcDbBlockEnd
  0
ENDSEC
  0
SECTION
  2
ENTITIES
  0
LINE
  5
4E
330
40
100
AcDbEntity
  8
LEFT
  6
ByLayer
 62
256
 48
1.0
 60
0
370
-1
100
AcDbLine
 10
-24.75
 20
-1.25
 30
0.0
 11
-25.0
 21
-1.0
 31
0.0
 39
0.0
210
0.0
220
0.0
230
1.0
  0
LINE
  5
4F
330
40
100
AcDbEntity
  8
LEFT
  6
ByLayer
 62
256
 48
1.0
 60
0
370
-1
100
AcDbLine
 10
-25.0
 20
-1.0
 30
0.0
 11
-25.0
 21
1.0
 31
0.0
 39
0.0
210
0.0
220
0.0
230
1.0
  0
LINE
  5
50
330
40
100
AcDbEntity
  8
LEFT
  6
ByLayer
 62
256
 48
1.0
 60
0
370
-1
100
AcDbLine
 10
-25.0
 20
1.0
 30
0.0
 11
-24.75
 21
1.25
 31
0.0
 39
0.0
210
0.0
220
0.0
230
1.0
  0
LINE
  5
51
330
40
100
AcDbEntity
  8
LEFT
  6
ByLayer
 62
256
 48
1.0
 60
0
370
-1
100
AcDbLine
 10
0.0
 20
-1.25
 30
0.0
 11
-24.75
 21
-1.25
 31
0.0
 39
0.0
210
0.0
220
0.0
230
1.0
  0
LINE
  5
52
330
40
100
AcDbEntity
  8
LEFT
  6
ByLayer
 62
256
 48
1.0
 60
0
370
-1
100
AcDbLine
 10
-24.75
 20
-1.25
 30
0.0
 11
-24.75
 21
1.25
 31
0.0
 39
0.0
210
0.0
220
0.0
230
1.0
  0
LINE
  5
53
330
40
100
AcDbEntity
  8
LEFT
  6
ByLayer
 62
256
 48
1.0
 60
0
370
-1
100
AcDbLine
 10
-24.75
 20
1.25
 30
0.0
 11
0.0
 21
1.25
 31
0.0
 39
0.0
210
0.0
220
0.0
230
1.0
  0
LINE
  5
54
330
40
100
AcDbEntity
  8
RIGHT
  6
ByLayer
 62
7
 48
1.0
 60
0
370
-1
100
AcDbLine
 10
0.0
 20
1.25
 30
0.0
 11
2.0
 21
1.25
 31
0.0
 39
0.0
210
0.0
220
0.0
230
1.0
  0
LINE
  5
55
330
40
100
AcDbEntity
  8
RIGHT
  6
ByLayer
 62
7
 48
1.0
 60
0
370
-1
100
AcDbLine
 10
0.0
 20
-1.25
 30
0.0
 11
2.0
 21
-1.25
 31
0.0
 39
0.0
210
0.0
220
0.0
230
1.0
  0
LINE
  5
56
330
40
100
AcDbEntity
  8
RIGHT
  6
ByLayer
 62
7
 48
1.0
 60
0
370
-1
100
AcDbLine
 10
3.25534391403198
 20
1.03933703899384
 30
0.0
 11
3.48356819152832
 21
0.966263055801392
 31
0.0
 39
0.0
210
0.0
220
0.0
230
1.0
  0
LINE
  5
57
330
40
100
AcDbEntity
  8
RIGHT
  6
ByLayer
 62
7
 48
1.0
 60
0
370
-1
100
AcDbLine
 10
3.48356819152832
 20
0.966263055801392
 30
0.0
 11
3.71179246902466
 21
0.883883476257324
 31
0.0
 39
0.0
210
0.0
220
0.0
230
1.0
  0
LINE
  5
58
330
40
100
AcDbEntity
  8
RIGHT
  6
ByLayer
 62
7
 48
1.0
 60
0
370
-1
100
AcDbLine
 10
3.71179246902466
 20
0.883883476257324
 30
0.0
 11
3.940016746521
 21
0.792991638183594
 31
0.0
 39
0.0
210
0.0
220
0.0
230
1.0
  0
LINE
  5
59
330
40
100
AcDbEntity
  8
RIGHT
  6
ByLayer
 62
7
 48
1.0
 60
0
370
-1
100
AcDbLine
 10
3.940016746521
 20
0.792991638183594
 30
0.0
 11
4.16824102401733
 21
0.694462835788727
 31
0.0
 39
0.0
210
0.0
220
0.0
230
1.0
  0
LINE
  5
5A
330
40
100
AcDbEntity
  8
RIGHT
  6
ByLayer
 62
7
 48
1.0
 60
0
370
-1
100
AcDbLine
 10
4.16824102401733
 20
0.694462835788727
 30
0.0
 11
4.39646530151367
 21
0.589245975017548
 31
0.0
 39
0.0
210
0.0
220
0.0
230
1.0
  0
LINE
  5
5B
330
40
100
AcDbEntity
  8
RIGHT
  6
ByLayer
 62
7
 48
1.0
 60
0
370
-1
100
AcDbLine
 10
4.39646530151367
 20
0.589245975017548
 30
0.0
 11
4.62468957901001
 21
0.478354334831238
 31
0.0
 39
0.0
210
0.0
220
0.0
230
1.0
  0
LINE
  5
5C
330
40
100
AcDbEntity
  8
RIGHT
  6
ByLayer
 62
7
 48
1.0
 60
0
370
-1
100
AcDbLine
 10
4.62468957901001
 20
0.478354334831238
 30
0.0
 11
4.85291385650635
 21
0.36285588145256
 31
0.0
 39
0.0
210
0.0
220
0.0
230
1.0
  0
LINE
  5
5D
330
40
100
AcDbEntity
  8
RIGHT
  6
ByLayer
 62
7
 48
1.0
 60
0
370
-1
100
AcDbLine
 10
4.85291385650635
 20
0.36285588145256
 30
0.0
 11
5.08113813400269
 21
0.243862926959991
 31
0.0
 39
0.0
210
0.0
220
0.0
230
1.0
  0
LINE
  5
5E
330
40
100
AcDbEntity
  8
RIGHT
  6
ByLayer
 62
7
 48
1.0
 60
0
370
-1
100
AcDbLine
 10
5.08113813400269
 20
0.243862926959991
 30
0.0
 11
5.30936241149902
 21
0.122521445155144
 31
0.0
 39
0.0
210
0.0
220
0.0
230
1.0
  0
LINE
  5
5F
330
40
100
AcDbEntity
  8
RIGHT
  6
ByLayer
 62
7
 48
1.0
 60
0
370
-1
100
AcDbLine
 10
5.30936241149902
 20
0.122521445155144
 30
0.0
 11
5.53758668899536
 21
0.0000000186264515
 31
0.0
 39
0.0
210
0.0
220
0.0
230
1.0
  0
LINE
  5
60
330
40
100
AcDbEntity
  8
RIGHT
  6
ByLayer
 62
7
 48
1.0
 60
0
370
-1
100
AcDbLine
 10
5.53758668899536
 20
0.0000000186264515
 30
0.0
 11
5.7658109664917
 21
-0.122521407902241
 31
0.0
 39
0.0
210
0.0
220
0.0
230
1.0
  0
LINE
  5
61
330
40
100
AcDbEntity
  8
RIGHT
  6
ByLayer
 62
7
 48
1.0
 60
0
370
-1
100
AcDbLine
 10
5.7658109664917
 20
-0.122521407902241
 30
0.0
 11
5.99403524398804
 21
-0.243862897157669
 31
0.0
 39
0.0
210
0.0
220
0.0
230
1.0
  0
LINE
  5
62
330
40
100
AcDbEntity
  8
RIGHT
  6
ByLayer
 62
7
 48
1.0
 60
0
370
-1
100
AcDbLine
 10
5.99403524398804
 20
-0.243862897157669
 30
0.0
 11
6.22225952148438
 21
-0.362855851650238
 31
0.0
 39
0.0
210
0.0
220
0.0
230
1.0
  0
LINE
  5
63
330
40
100
AcDbEntity
  8
RIGHT
  6
ByLayer
 62
7
 48
1.0
 60
0
370
-1
100
AcDbLine
 10
6.22225952148438
 20
-0.362855851650238
 30
0.0
 11
6.45048379898071
 21
-0.478354305028915
 31
0.0
 39
0.0
210
0.0
220
0.0
230
1.0
  0
LINE
  5
64
330
40
100
AcDbEntity
  8
RIGHT
  6
ByLayer
 62
7
 48
1.0
 60
0
370
-1
100
AcDbLine
 10
6.45048379898071
 20
-0.478354305028915
 30
0.0
 11
6.67870807647705
 21
-0.589245915412903
 31
0.0
 39
0.0
210
0.0
220
0.0
230
1.0
  0
LINE
  5
65
330
40
100
AcDbEntity
  8
RIGHT
  6
ByLayer
 62
7
 48
1.0
 60
0
370
-1
100
AcDbLine
 10
6.67870807647705
 20
-0.589245915412903
 30
0.0
 11
6.90693235397339
 21
-0.694462776184082
 31
0.0
 39
0.0
210
0.0
220
0.0
230
1.0
  0
LINE
  5
66
330
40
100
AcDbEntity
  8
RIGHT
  6
ByLayer
 62
7
 48
1.0
 60
0
370
-1
100
AcDbLine
 10
6.90693235397339
 20
-0.694462776184082
 30
0.0
 11
7.13515663146973
 21
-0.792991578578949
 31
0.0
 39
0.0
210
0.0
220
0.0
230
1.0
  0
LINE
  5
67
330
40
100
AcDbEntity
  8
RIGHT
  6
ByLayer
 62
7
 48
1.0
 60
0
370
-1
100
AcDbLine
 10
7.13515663146973
 20
-0.792991578578949
 30
0.0
 11
7.36338090896606
 21
-0.883883416652679
 31
0.0
 39
0.0
210
0.0
220
0.0
230
1.0
  0
LINE
  5
68
330
40
100
AcDbEntity
  8
RIGHT
  6
ByLayer
 62
7
 48
1.0
 60
0
370
-1
100
AcDbLine
 10
7.36338090896606
 20
-0.883883416652679
 30
0.0
 11
7.5916051864624
 21
-0.966262996196747
 31
0.0
 39
0.0
210
0.0
220
0.0
230
1.0
  0
LINE
  5
69
330
40
100
AcDbEntity
  8
RIGHT
  6
ByLayer
 62
7
 48
1.0
 60
0
370
-1
100
AcDbLine
 10
7.5916051864624
 20
-0.966262996196747
 30
0.0
 11
7.81982946395874
 21
-1.03933691978455
 31
0.0
 39
0.0
210
0.0
220
0.0
230
1.0
  0
LINE
  5
6A
330
40
100
AcDbEntity
  8
RIGHT
  6
ByLayer
 62
7
 48
1.0
 60
0
370
-1
100
AcDbLine
 10
7.81982946395874
 20
-1.03933691978455
 30
0.0
 11
8.04805374145508
 21
-1.10240161418915
 31
0.0
 39
0.0
210
0.0
220
0.0
230
1.0
  0
LINE
  5
6B
330
40
100
AcDbEntity
  8
RIGHT
  6
ByLayer
 62
7
 48
1.0
 60
0
370
-1
100
AcDbLine
 10
8.04805374145508
 20
-1.10240161418915
 30
0.0
 11
8.27627849578857
 21
-1.15484941005707
 31
0.0
 39
0.0
210
0.0
220
0.0
230
1.0
  0
LINE
  5
6C
330
40
100
AcDbEntity
  8
RIGHT
  6
ByLayer
 62
7
 48
1.0
 60
0
370
-1
100
AcDbLine
 10
8.27627849578857
 20
-1.15484941005707
 30
0.0
 11
8.50450325012207
 21
-1.19617545604706
 31
0.0
 39
0.0
210
0.0
220
0.0
230
1.0
  0
LINE
  5
6D
330
40
100
AcDbEntity
  8
RIGHT
  6
ByLayer
 62
7
 48
1.0
 60
0
370
-1
100
AcDbLine
 10
8.50450325012207
 20
-1.19617545604706
 30
0.0
 11
8.73272800445557
 21
-1.22598159313202
 31
0.0
 39
0.0
210
0.0
220
0.0
230
1.0
  0
LINE
  5
6E
330
40
100
AcDbEntity
  8
RIGHT
  6
ByLayer
 62
7
 48
1.0
 60
0
370
-1
100
AcDbLine
 10
8.73272800445557
 20
-1.22598159313202
 30
0.0
 11
8.96095275878906
 21
-1.243980884552
 31
0.0
 39
0.0
210
0.0
220
0.0
230
1.0
  0
LINE
  5
6F
330
40
100
AcDbEntity
  8
RIGHT
  6
ByLayer
 62
7
 48
1.0
 60
0
370
-1
100
AcDbLine
 10
8.96095275878906
 20
-1.243980884552
 30
0.0
 11
9.18917751312256
 21
-1.25
 31
0.0
 39
0.0
210
0.0
220
0.0
230
1.0
  0
LINE
  5
70
330
40
100
AcDbEntity
  8
RIGHT
  6
ByLayer
 62
7
 48
1.0
 60
0
370
-1
100
AcDbLine
 10
4.16824102401733
 20
1.03933703899384
 30
0.0
 11
4.16824102401733
 21
1.25
 31
0.0
 39
0.0
210
0.0
220
0.0
230
1.0
  0
LINE
  5
71
330
40
100
AcDbEntity
  8
RIGHT
  6
ByLayer
 62
7
 48
1.0
 60
0
370
-1
100
AcDbLine
 10
4.16824102401733
 20
1.03933703899384
 30
0.0
 11
4.39646530151367
 21
0.966263055801392
 31
0.0
 39
0.0
210
0.0
220
0.0
230
1.0
  0
LINE
  5
72
330
40
100
AcDbEntity
  8
RIGHT
  6
ByLayer
 62
7
 48
1.0
 60
0
370
-1
100
AcDbLine
 10
4.39646530151367
 20
0.966263055801392
 30
0.0
 11
4.62468957901001
 21
0.883883476257324
 31
0.0
 39
0.0
210
0.0
220
0.0
230
1.0
  0
LINE
  5
73
330
40
100
AcDbEntity
  8
RIGHT
  6
ByLayer
 62
7
 48
1.0
 60
0
370
-1
100
AcDbLine
 10
4.62468957901001
 20
0.883883476257324
 30
0.0
 11
4.85291385650635
 21
0.792991638183594
 31
0.0
 39
0.0
210
0.0
220
0.0
230
1.0
  0
LINE
  5
74
330
40
100
AcDbEntity
  8
RIGHT
  6
ByLayer
 62
7
 48
1.0
 60
0
370
-1
100
AcDbLine
 10
4.85291385650635
 20
0.792991638183594
 30
0.0
 11
5.08113813400269
 21
0.694462835788727
 31
0.0
 39
0.0
210
0.0
220
0.0
230
1.0
  0
LINE
  5
75
330
40
100
AcDbEntity
  8
RIGHT
  6
ByLayer
 62
7
 48
1.0
 60
0
370
-1
100
AcDbLine
 10
5.08113813400269
 20
0.694462835788727
 30
0.0
 11
5.30936241149902
 21
0.589245975017548
 31
0.0
 39
0.0
210
0.0
220
0.0
230
1.0
  0
LINE
  5
76
330
40
100
AcDbEntity
  8
RIGHT
  6
ByLayer
 62
7
 48
1.0
 60
0
370
-1
100
AcDbLine
 10
5.30936241149902
 20
0.589245975017548
 30
0.0
 11
5.53758668899536
 21
0.478354334831238
 31
0.0
 39
0.0
210
0.0
220
0.0
230
1.0
  0
LINE
  5
77
330
40
100
AcDbEntity
  8
RIGHT
  6
ByLayer
 62
7
 48
1.0
 60
0
370
-1
100
AcDbLine
 10
5.53758668899536
 20
0.478354334831238
 30
0.0
 11
5.7658109664917
 21
0.36285588145256
 31
0.0
 39
0.0
210
0.0
220
0.0
230
1.0
  0
LINE
  5
78
330
40
100
AcDbEntity
  8
RIGHT
  6
ByLayer
 62
7
 48
1.0
 60
0
370
-1
100
AcDbLine
 10
5.7658109664917
 20
0.36285588145256
 30
0.0
 11
5.99403524398804
 21
0.243862926959991
 31
0.0
 39
0.0
210
0.0
220
0.0
230
1.0
  0
LINE
  5
79
330
40
100
AcDbEntity
  8
RIGHT
  6
ByLayer
 62
7
 48
1.0
 60
0
370
-1
100
AcDbLine
 10
5.99403524398804
 20
0.243862926959991
 30
0.0
 11
6.22225952148438
 21
0.122521445155144
 31
0.0
 39
0.0
210
0.0
220
0.0
230
1.0
  0
LINE
  5
7A
330
40
100
AcDbEntity
  8
RIGHT
  6
ByLayer
 62
7
 48
1.0
 60
0
370
-1
100
AcDbLine
 10
6.22225952148438
 20
0.122521445155144
 30
0.0
 11
6.45048379898071
 21
0.0000000186264515
 31
0.0
 39
0.0
210
0.0
220
0.0
230
1.0
  0
LINE
  5
7B
330
40
100
AcDbEntity
  8
RIGHT
  6
ByLayer
 62
7
 48
1.0
 60
0
370
-1
100
AcDbLine
 10
6.45048379898071
 20
0.0000000186264515
 30
0.0
 11
6.67870807647705
 21
-0.122521407902241
 31
0.0
 39
0.0
210
0.0
220
0.0
230
1.0
  0
LINE
  5
7C
330
40
100
AcDbEntity
  8
RIGHT
  6
ByLayer
 62
7
 48
1.0
 60
0
370
-1
100
AcDbLine
 10
6.67870807647705
 20
-0.122521407902241
 30
0.0
 11
6.90693235397339
 21
-0.243862897157669
 31
0.0
 39
0.0
210
0.0
220
0.0
230
1.0
  0
LINE
  5
7D
330
40
100
AcDbEntity
  8
RIGHT
  6
ByLayer
 62
7
 48
1.0
 60
0
370
-1
100
AcDbLine
 10
6.90693235397339
 20
-0.243862897157669
 30
0.0
 11
7.13515663146973
 21
-0.362855851650238
 31
0.0
 39
0.0
210
0.0
220
0.0
230
1.0
  0
LINE
  5
7E
330
40
100
AcDbEntity
  8
RIGHT
  6
ByLayer
 62
7
 48
1.0
 60
0
370
-1
100
AcDbLine
 10
7.13515663146973
 20
-0.362855851650238
 30
0.0
 11
7.36338090896606
 21
-0.478354305028915
 31
0.0
 39
0.0
210
0.0
220
0.0
230
1.0
  0
LINE
  5
7F
330
40
100
AcDbEntity
  8
RIGHT
  6
ByLayer
 62
7
 48
1.0
 60
0
370
-1
100
AcDbLine
 10
7.36338090896606
 20
-0.478354305028915
 30
0.0
 11
7.5916051864624
 21
-0.589245915412903
 31
0.0
 39
0.0
210
0.0
220
0.0
230
1.0
  0
LINE
  5
80
330
40
100
AcDbEntity
  8
RIGHT
  6
ByLayer
 62
7
 48
1.0
 60
0
370
-1
100
AcDbLine
 10
7.5916051864624
 20
-0.589245915412903
 30
0.0
 11
7.81982946395874
 21
-0.694462776184082
 31
0.0
 39
0.0
210
0.0
220
0.0
230
1.0
  0
LINE
  5
81
330
40
100
AcDbEntity
  8
RIGHT
  6
ByLayer
 62
7
 48
1.0
 60
0
370
-1
100
AcDbLine
 10
7.81982946395874
 20
-0.694462776184082
 30
0.0
 11
8.04805374145508
 21
-0.792991578578949
 31
0.0
 39
0.0
210
0.0
220
0.0
230
1.0
  0
LINE
  5
82
330
40
100
AcDbEntity
  8
RIGHT
  6
ByLayer
 62
7
 48
1.0
 60
0
370
-1
100
AcDbLine
 10
8.04805374145508
 20
-0.792991578578949
 30
0.0
 11
8.27627849578857
 21
-0.883883416652679
 31
0.0
 39
0.0
210
0.0
220
0.0
230
1.0
  0
LINE
  5
83
330
40
100
AcDbEntity
  8
RIGHT
  6
ByLayer
 62
7
 48
1.0
 60
0
370
-1
100
AcDbLine
 10
8.27627849578857
 20
-0.883883416652679
 30
0.0
 11
8.50450325012207
 21
-0.966262996196747
 31
0.0
 39
0.0
210
0.0
220
0.0
230
1.0
  0
LINE
  5
84
330
40
100
AcDbEntity
  8
RIGHT
  6
ByLayer
 62
7
 48
1.0
 60
0
370
-1
100
AcDbLine
 10
8.50450325012207
 20
-0.966262996196747
 30
0.0
 11
8.73272800445557
 21
-1.03933691978455
 31
0.0
 39
0.0
210
0.0
220
0.0
230
1.0
  0
LINE
  5
85
330
40
100
AcDbEntity
  8
RIGHT
  6
ByLayer
 62
7
 48
1.0
 60
0
370
-1
100
AcDbLine
 10
8.73272800445557
 20
-1.03933691978455
 30
0.0
 11
8.96095275878906
 21
-1.10240161418915
 31
0.0
 39
0.0
210
0.0
220
0.0
230
1.0
  0
LINE
  5
86
330
40
100
AcDbEntity
  8
RIGHT
  6
ByLayer
 62
7
 48
1.0
 60
0
370
-1
100
AcDbLine
 10
8.96095275878906
 20
-1.10240161418915
 30
0.0
 11
9.18917751312256
 21
-1.15484941005707
 31
0.0
 39
0.0
210
0.0
220
0.0
230
1.0
  0
LINE
  5
87
330
40
100
AcDbEntity
  8
RIGHT
  6
ByLayer
 62
7
 48
1.0
 60
0
370
-1
100
AcDbLine
 10
5.53758716583252
 20
1.25
 30
0.0
 11
5.76581144332886
 21
1.243980884552
 31
0.0
 39
0.0
210
0.0
220
0.0
230
1.0
  0
LINE
  5
88
330
40
100
AcDbEntity
  8
RIGHT
  6
ByLayer
 62
7
 48
1.0
 60
0
370
-1
100
AcDbLine
 10
5.76581144332886
 20
1.243980884552
 30
0.0
 11
5.9940357208252
 21
1.22598159313202
 31
0.0
 39
0.0
210
0.0
220
0.0
230
1.0
  0
LINE
  5
89
330
40
100
AcDbEntity
  8
RIGHT
  6
ByLayer
 62
7
 48
1.0
 60
0
370
-1
100
AcDbLine
 10
5.9940357208252
 20
1.22598159313202
 30
0.0
 11
6.22225999832153
 21
1.19617533683777
 31
0.0
 39
0.0
210
0.0
220
0.0
230
1.0
  0
LINE
  5
8A
330
40
100
AcDbEntity
  8
RIGHT
  6
ByLayer
 62
7
 48
1.0
 60
0
370
-1
100
AcDbLine
 10
6.22225999832153
 20
1.19617533683777
 30
0.0
 11
6.45048427581787
 21
1.15484941005707
 31
0.0
 39
0.0
210
0.0
220
0.0
230
1.0
  0
LINE
  5
8B
330
40
100
AcDbEntity
  8
RIGHT
  6
ByLayer
 62
7
 48
1.0
 60
0
370
-1
100
AcDbLine
 10
6.45048427581787
 20
1.15484941005707
 30
0.0
 11
6.67870855331421
 21
1.10240149497986
 31
0.0
 39
0.0
210
0.0
220
0.0
230
1.0
  0
LINE
  5
8C
330
40
100
AcDbEntity
  8
RIGHT
  6
ByLayer
 62
7
 48
1.0
 60
0
370
-1
100
AcDbLine
 10
6.67870855331421
 20
1.10240149497986
 30
0.0
 11
6.90693283081055
 21
1.03933691978455
 31
0.0
 39
0.0
210
0.0
220
0.0
230
1.0
  0
LINE
  5
8D
330
40
100
AcDbEntity
  8
RIGHT
  6
ByLayer
 62
7
 48
1.0
 60
0
370
-1
100
AcDbLine
 10
6.90693283081055
 20
1.03933691978455
 30
0.0
 11
7.13515710830688
 21
0.966262996196747
 31
0.0
 39
0.0
210
0.0
220
0.0
230
1.0
  0
LINE
  5
8E
330
40
100
AcDbEntity
  8
RIGHT
  6
ByLayer
 62
7
 48
1.0
 60
0
370
-1
100
AcDbLine
 10
7.13515710830688
 20
0.966262996196747
 30
0.0
 11
7.36338138580322
 21
0.883883416652679
 31
0.0
 39
0.0
210
0.0
220
0.0
230
1.0
  0
LINE
  5
8F
330
40
100
AcDbEntity
  8
RIGHT
  6
ByLayer
 62
7
 48
1.0
 60
0
370
-1
100
AcDbLine
 10
7.36338138580322
 20
0.883883416652679
 30
0.0
 11
7.59160566329956
 21
0.792991518974304
 31
0.0
 39
0.0
210
0.0
220
0.0
230
1.0
  0
LINE
  5
90
330
40
100
AcDbEntity
  8
RIGHT
  6
ByLayer
 62
7
 48
1.0
 60
0
370
-1
100
AcDbLine
 10
7.59160566329956
 20
0.792991518974304
 30
0.0
 11
7.8198299407959
 21
0.694462716579437
 31
0.0
 39
0.0
210
0.0
220
0.0
230
1.0
  0
LINE
  5
91
330
40
100
AcDbEntity
  8
RIGHT
  6
ByLayer
 62
7
 48
1.0
 60
0
370
-1
100
AcDbLine
 10
7.8198299407959
 20
0.694462716579437
 30
0.0
 11
8.04805469512939
 21
0.589245855808258
 31
0.0
 39
0.0
210
0.0
220
0.0
230
1.0
  0
LINE
  5
92
330
40
100
AcDbEntity
  8
RIGHT
  6
ByLayer
 62
7
 48
1.0
 60
0
370
-1
100
AcDbLine
 10
8.04805469512939
 20
0.589245855808258
 30
0.0
 11
8.27627944946289
 21
0.478354185819626
 31
0.0
 39
0.0
210
0.0
220
0.0
230
1.0
  0
LINE
  5
93
330
40
100
AcDbEntity
  8
RIGHT
  6
ByLayer
 62
7
 48
1.0
 60
0
370
-1
100
AcDbLine
 10
8.27627944946289
 20
0.478354185819626
 30
0.0
 11
8.50450420379639
 21
0.362855732440948
 31
0.0
 39
0.0
210
0.0
220
0.0
230
1.0
  0
LINE
  5
94
330
40
100
AcDbEntity
  8
RIGHT
  6
ByLayer
 62
7
 48
1.0
 60
0
370
-1
100
AcDbLine
 10
8.50450420379639
 20
0.362855732440948
 30
0.0
 11
8.73272895812988
 21
0.24386277794838
 31
0.0
 39
0.0
210
0.0
220
0.0
230
1.0
  0
LINE
  5
95
330
40
100
AcDbEntity
  8
RIGHT
  6
ByLayer
 62
7
 48
1.0
 60
0
370
-1
100
AcDbLine
 10
8.73272895812988
 20
0.24386277794838
 30
0.0
 11
8.96095371246338
 21
0.122521296143532
 31
0.0
 39
0.0
210
0.0
220
0.0
230
1.0
  0
LINE
  5
96
330
40
100
AcDbEntity
  8
RIGHT
  6
ByLayer
 62
7
 48
1.0
 60
0
370
-1
100
AcDbLine
 10
8.96095371246338
 20
0.122521296143532
 30
0.0
 11
9.18917846679688
 21
-0.0000001303851604
 31
0.0
 39
0.0
210
0.0
220
0.0
230
1.0
  0
LINE
  5
97
330
40
100
AcDbEntity
  8
RIGHT
  6
ByLayer
 62
7
 48
1.0
 60
0
370
-1
100
AcDbLine
 10
7.36338138580322
 20
0.883883476257324
 30
0.0
 11
7.59160566329956
 21
0.966263055801392
 31
0.0
 39
0.0
210
0.0
220
0.0
230
1.0
  0
LINE
  5
98
330
40
100
AcDbEntity
  8
RIGHT
  6
ByLayer
 62
7
 48
1.0
 60
0
370
-1
100
AcDbLine
 10
7.59160566329956
 20
0.966263055801392
 30
0.0
 11
7.8198299407959
 21
1.03933703899384
 31
0.0
 39
0.0
210
0.0
220
0.0
230
1.0
  0
LINE
  5
99
330
40
100
AcDbEntity
  8
RIGHT
  6
ByLayer
 62
7
 48
1.0
 60
0
370
-1
100
AcDbLine
 10
7.8198299407959
 20
1.03933703899384
 30
0.0
 11
8.04805469512939
 21
1.10240161418915
 31
0.0
 39
0.0
210
0.0
220
0.0
230
1.0
  0
LINE
  5
9A
330
40
100
AcDbEntity
  8
RIGHT
  6
ByLayer
 62
7
 48
1.0
 60
0
370
-1
100
AcDbLine
 10
8.04805469512939
 20
1.10240161418915
 30
0.0
 11
8.27627944946289
 21
1.15484941005707
 31
0.0
 39
0.0
210
0.0
220
0.0
230
1.0
  0
LINE
  5
9B
330
40
100
AcDbEntity
  8
RIGHT
  6
ByLayer
 62
7
 48
1.0
 60
0
370
-1
100
AcDbLine
 10
8.27627944946289
 20
1.15484941005707
 30
0.0
 11
8.50450420379639
 21
1.19617545604706
 31
0.0
 39
0.0
210
0.0
220
0.0
230
1.0
  0
LINE
  5
9C
330
40
100
AcDbEntity
  8
RIGHT
  6
ByLayer
 62
7
 48
1.0
 60
0
370
-1
100
AcDbLine
 10
8.50450420379639
 20
1.19617545604706
 30
0.0
 11
8.73272895812988
 21
1.22598159313202
 31
0.0
 39
0.0
210
0.0
220
0.0
230
1.0
  0
LINE
  5
9D
330
40
100
AcDbEntity
  8
RIGHT
  6
ByLayer
 62
7
 48
1.0
 60
0
370
-1
100
AcDbLine
 10
8.73272895812988
 20
1.22598159313202
 30
0.0
 11
8.96095371246338
 21
1.243980884552
 31
0.0
 39
0.0
210
0.0
220
0.0
230
1.0
  0
LINE
  5
9E
330
40
100
AcDbEntity
  8
RIGHT
  6
ByLayer
 62
7
 48
1.0
 60
0
370
-1
100
AcDbLine
 10
8.96095371246338
 20
1.243980884552
 30
0.0
 11
9.18917846679688
 21
1.25
 31
0.0
 39
0.0
210
0.0
220
0.0
230
1.0
  0
LINE
  5
9F
330
40
100
AcDbEntity
  8
RIGHT
  6
ByLayer
 62
7
 48
1.0
 60
0
370
-1
100
AcDbLine
 10
5.53758716583252
 20
-1.25
 30
0.0
 11
5.76581144332886
 21
-1.243980884552
 31
0.0
 39
0.0
210
0.0
220
0.0
230
1.0
  0
LINE
  5
A0
330
40
100
AcDbEntity
  8
RIGHT
  6
ByLayer
 62
7
 48
1.0
 60
0
370
-1
100
AcDbLine
 10
5.76581144332886
 20
-1.243980884552
 30
0.0
 11
5.9940357208252
 21
-1.22598159313202
 31
0.0
 39
0.0
210
0.0
220
0.0
230
1.0
  0
LINE
  5
A1
330
40
100
AcDbEntity
  8
RIGHT
  6
ByLayer
 62
7
 48
1.0
 60
0
370
-1
100
AcDbLine
 10
5.9940357208252
 20
-1.22598159313202
 30
0.0
 11
6.22225999832153
 21
-1.19617533683777
 31
0.0
 39
0.0
210
0.0
220
0.0
230
1.0
  0
LINE
  5
A2
330
40
100
AcDbEntity
  8
RIGHT
  6
ByLayer
 62
7
 48
1.0
 60
0
370
-1
100
AcDbLine
 10
6.22225999832153
 20
-1.19617533683777
 30
0.0
 11
6.45048427581787
 21
-1.15484941005707
 31
0.0
 39
0.0
210
0.0
220
0.0
230
1.0
  0
LINE
  5
A3
330
40
100
AcDbEntity
  8
RIGHT
  6
ByLayer
 62
7
 48
1.0
 60
0
370
-1
100
AcDbLine
 10
6.45048427581787
 20
-1.15484941005707
 30
0.0
 11
6.67870855331421
 21
-1.10240149497986
 31
0.0
 39
0.0
210
0.0
220
0.0
230
1.0
  0
LINE
  5
A4
330
40
100
AcDbEntity
  8
RIGHT
  6
ByLayer
 62
7
 48
1.0
 60
0
370
-1
100
AcDbLine
 10
6.67870855331421
 20
-1.10240149497986
 30
0.0
 11
6.90693283081055
 21
-1.03933691978455
 31
0.0
 39
0.0
210
0.0
220
0.0
230
1.0
  0
LINE
  5
A5
330
40
100
AcDbEntity
  8
RIGHT
  6
ByLayer
 62
7
 48
1.0
 60
0
370
-1
100
AcDbLine
 10
6.90693283081055
 20
-1.03933691978455
 30
0.0
 11
7.13515710830688
 21
-0.966262996196747
 31
0.0
 39
0.0
210
0.0
220
0.0
230
1.0
  0
LINE
  5
A6
330
40
100
AcDbEntity
  8
RIGHT
  6
ByLayer
 62
7
 48
1.0
 60
0
370
-1
100
AcDbLine
 10
7.13515710830688
 20
-0.966262996196747
 30
0.0
 11
7.36338138580322
 21
-0.883883416652679
 31
0.0
 39
0.0
210
0.0
220
0.0
230
1.0
  0
LINE
  5
A7
330
40
100
AcDbEntity
  8
RIGHT
  6
ByLayer
 62
7
 48
1.0
 60
0
370
-1
100
AcDbLine
 10
2.0
 20
1.25
 30
0.0
 11
5.53758716583252
 21
1.25
 31
0.0
 39
0.0
210
0.0
220
0.0
230
1.0
  0
LINE
  5
A8
330
40
100
AcDbEntity
  8
RIGHT
  6
ByLayer
 62
7
 48
1.0
 60
0
370
-1
100
AcDbLine
 10
2.0
 20
-1.25
 30
0.0
 11
5.53758716583252
 21
-1.25
 31
0.0
 39
0.0
210
0.0
220
0.0
230
1.0
  0
ARC
  5
A9
330
40
100
AcDbEntity
  8
RIGHT
  6
ByLayer
 62
7
 48
1.0
 60
0
370
-1
100
AcDbCircle
 10
2.8451988697052
 20
0.173112988471985
 30
0.0
 39
0.0
 40
0.958416998386383
210
0.0
220
0.0
230
1.0
100
AcDbArc
 50
64.6631011962891
 51
151.868743896484
  0
ARC
  5
AA
330
40
100
AcDbEntity
  8
RIGHT
  6
ByLayer
 62
7
 48
1.0
 60
0
370
-1
100
AcDbCircle
 10
3.609375
 20
0.343749940395355
 30
0.0
 39
0.0
 40
1.63376522064209
210
0.0
220
0.0
230
1.0
100
AcDbArc
 50
170.087249755859
 51
257.292877197266
  0
LINE
  5
AB
330
40
100
AcDbEntity
  8
RIGHT
  6
ByLayer
 62
7
 48
1.0
 60
0
370
-1
100
AcDbLine
 10
9.18917560577393
 20
-0.0000000546392336
 30
0.0
 11
9.41740036010742
 21
-0.122521482408047
 31
0.0
 39
0.0
210
0.0
220
0.0
230
1.0
  0
LINE
  5
AC
330
40
100
AcDbEntity
  8
RIGHT
  6
ByLayer
 62
7
 48
1.0
 60
0
370
-1
100
AcDbLine
 10
9.41740036010742
 20
-0.122521482408047
 30
0.0
 11
9.64562511444092
 21
-0.243862956762314
 31
0.0
 39
0.0
210
0.0
220
0.0
230
1.0
  0
LINE
  5
AD
330
40
100
AcDbEntity
  8
RIGHT
  6
ByLayer
 62
7
 48
1.0
 60
0
370
-1
100
AcDbLine
 10
9.64562511444092
 20
-0.243862956762314
 30
0.0
 11
9.87384986877441
 21
-0.362855911254883
 31
0.0
 39
0.0
210
0.0
220
0.0
230
1.0
  0
LINE
  5
AE
330
40
100
AcDbEntity
  8
RIGHT
  6
ByLayer
 62
7
 48
1.0
 60
0
370
-1
100
AcDbLine
 10
9.87384986877441
 20
-0.362855911254883
 30
0.0
 11
10.1020746231079
 21
-0.47835436463356
 31
0.0
 39
0.0
210
0.0
220
0.0
230
1.0
  0
LINE
  5
AF
330
40
100
AcDbEntity
  8
RIGHT
  6
ByLayer
 62
7
 48
1.0
 60
0
370
-1
100
AcDbLine
 10
10.1020746231079
 20
-0.47835436463356
 30
0.0
 11
10.3302993774414
 21
-0.589246034622192
 31
0.0
 39
0.0
210
0.0
220
0.0
230
1.0
  0
LINE
  5
B0
330
40
100
AcDbEntity
  8
RIGHT
  6
ByLayer
 62
7
 48
1.0
 60
0
370
-1
100
AcDbLine
 10
10.3302993774414
 20
-0.589246034622192
 30
0.0
 11
10.5585241317749
 21
-0.694462835788727
 31
0.0
 39
0.0
210
0.0
220
0.0
230
1.0
  0
LINE
  5
B1
330
40
100
AcDbEntity
  8
RIGHT
  6
ByLayer
 62
7
 48
1.0
 60
0
370
-1
100
AcDbLine
 10
10.5585241317749
 20
-0.694462835788727
 30
0.0
 11
10.7867488861084
 21
-0.792991638183594
 31
0.0
 39
0.0
210
0.0
220
0.0
230
1.0
  0
LINE
  5
B2
330
40
100
AcDbEntity
  8
RIGHT
  6
ByLayer
 62
7
 48
1.0
 60
0
370
-1
100
AcDbLine
 10
10.7867488861084
 20
-0.792991638183594
 30
0.0
 11
11.0149736404419
 21
-0.883883476257324
 31
0.0
 39
0.0
210
0.0
220
0.0
230
1.0
  0
LINE
  5
B3
330
40
100
AcDbEntity
  8
RIGHT
  6
ByLayer
 62
7
 48
1.0
 60
0
370
-1
100
AcDbLine
 10
11.0149736404419
 20
-0.883883476257324
 30
0.0
 11
11.2431983947754
 21
-0.966263055801392
 31
0.0
 39
0.0
210
0.0
220
0.0
230
1.0
  0
LINE
  5
B4
330
40
100
AcDbEntity
  8
RIGHT
  6
ByLayer
 62
7
 48
1.0
 60
0
370
-1
100
AcDbLine
 10
11.2431983947754
 20
-0.966263055801392
 30
0.0
 11
11.4714231491089
 21
-1.03933703899384
 31
0.0
 39
0.0
210
0.0
220
0.0
230
1.0
  0
LINE
  5
B5
330
40
100
AcDbEntity
  8
RIGHT
  6
ByLayer
 62
7
 48
1.0
 60
0
370
-1
100
AcDbLine
 10
11.4714231491089
 20
-1.03933703899384
 30
0.0
 11
11.6996479034424
 21
-1.10240161418915
 31
0.0
 39
0.0
210
0.0
220
0.0
230
1.0
  0
LINE
  5
B6
330
40
100
AcDbEntity
  8
RIGHT
  6
ByLayer
 62
7
 48
1.0
 60
0
370
-1
100
AcDbLine
 10
11.6996479034424
 20
-1.10240161418915
 30
0.0
 11
11.9278726577759
 21
-1.15484941005707
 31
0.0
 39
0.0
210
0.0
220
0.0
230
1.0
  0
LINE
  5
B7
330
40
100
AcDbEntity
  8
RIGHT
  6
ByLayer
 62
7
 48
1.0
 60
0
370
-1
100
AcDbLine
 10
11.9278726577759
 20
-1.15484941005707
 30
0.0
 11
12.1560974121094
 21
-1.19617545604706
 31
0.0
 39
0.0
210
0.0
220
0.0
230
1.0
  0
LINE
  5
B8
330
40
100
AcDbEntity
  8
RIGHT
  6
ByLayer
 62
7
 48
1.0
 60
0
370
-1
100
AcDbLine
 10
12.1560974121094
 20
-1.19617545604706
 30
0.0
 11
12.3843221664429
 21
-1.22598159313202
 31
0.0
 39
0.0
210
0.0
220
0.0
230
1.0
  0
LINE
  5
B9
330
40
100
AcDbEntity
  8
RIGHT
  6
ByLayer
 62
7
 48
1.0
 60
0
370
-1
100
AcDbLine
 10
12.3843221664429
 20
-1.22598159313202
 30
0.0
 11
12.6125469207764
 21
-1.243980884552
 31
0.0
 39
0.0
210
0.0
220
0.0
230
1.0
  0
LINE
  5
BA
330
40
100
AcDbEntity
  8
RIGHT
  6
ByLayer
 62
7
 48
1.0
 60
0
370
-1
100
AcDbLine
 10
12.6125469207764
 20
-1.243980884552
 30
0.0
 11
12.8407716751099
 21
-1.25
 31
0.0
 39
0.0
210
0.0
220
0.0
230
1.0
  0
LINE
  5
BB
330
40
100
AcDbEntity
  8
RIGHT
  6
ByLayer
 62
7
 48
1.0
 60
0
370
-1
100
AcDbLine
 10
9.18917560577393
 20
1.25
 30
0.0
 11
9.41740036010742
 21
1.243980884552
 31
0.0
 39
0.0
210
0.0
220
0.0
230
1.0
  0
LINE
  5
BC
330
40
100
AcDbEntity
  8
RIGHT
  6
ByLayer
 62
7
 48
1.0
 60
0
370
-1
100
AcDbLine
 10
9.41740036010742
 20
1.243980884552
 30
0.0
 11
9.64562511444092
 21
1.22598159313202
 31
0.0
 39
0.0
210
0.0
220
0.0
230
1.0
  0
LINE
  5
BD
330
40
100
AcDbEntity
  8
RIGHT
  6
ByLayer
 62
7
 48
1.0
 60
0
370
-1
100
AcDbLine
 10
9.64562511444092
 20
1.22598159313202
 30
0.0
 11
9.87384986877441
 21
1.19617533683777
 31
0.0
 39
0.0
210
0.0
220
0.0
230
1.0
  0
LINE
  5
BE
330
40
100
AcDbEntity
  8
RIGHT
  6
ByLayer
 62
7
 48
1.0
 60
0
370
-1
100
AcDbLine
 10
9.87384986877441
 20
1.19617533683777
 30
0.0
 11
10.1020746231079
 21
1.15484941005707
 31
0.0
 39
0.0
210
0.0
220
0.0
230
1.0
  0
LINE
  5
BF
330
40
100
AcDbEntity
  8
RIGHT
  6
ByLayer
 62
7
 48
1.0
 60
0
370
-1
100
AcDbLine
 10
10.1020746231079
 20
1.15484941005707
 30
0.0
 11
10.3302993774414
 21
1.10240149497986
 31
0.0
 39
0.0
210
0.0
220
0.0
230
1.0
  0
LINE
  5
C0
330
40
100
AcDbEntity
  8
RIGHT
  6
ByLayer
 62
7
 48
1.0
 60
0
370
-1
100
AcDbLine
 10
10.3302993774414
 20
1.10240149497986
 30
0.0
 11
10.5585241317749
 21
1.03933691978455
 31
0.0
 39
0.0
210
0.0
220
0.0
230
1.0
  0
LINE
  5
C1
330
40
100
AcDbEntity
  8
RIGHT
  6
ByLayer
 62
7
 48
1.0
 60
0
370
-1
100
AcDbLine
 10
10.5585241317749
 20
1.03933691978455
 30
0.0
 11
10.7867488861084
 21
0.966262996196747
 31
0.0
 39
0.0
210
0.0
220
0.0
230
1.0
  0
LINE
  5
C2
330
40
100
AcDbEntity
  8
RIGHT
  6
ByLayer
 62
7
 48
1.0
 60
0
370
-1
100
AcDbLine
 10
10.7867488861084
 20
0.966262996196747
 30
0.0
 11
11.0149736404419
 21
0.883883416652679
 31
0.0
 39
0.0
210
0.0
220
0.0
230
1.0
  0
LINE
  5
C3
330
40
100
AcDbEntity
  8
RIGHT
  6
ByLayer
 62
7
 48
1.0
 60
0
370
-1
100
AcDbLine
 10
11.0149736404419
 20
0.883883416652679
 30
0.0
 11
11.2431983947754
 21
0.792991518974304
 31
0.0
 39
0.0
210
0.0
220
0.0
230
1.0
  0
LINE
  5
C4
330
40
100
AcDbEntity
  8
RIGHT
  6
ByLayer
 62
7
 48
1.0
 60
0
370
-1
100
AcDbLine
 10
11.2431983947754
 20
0.792991518974304
 30
0.0
 11
11.4714231491089
 21
0.694462716579437
 31
0.0
 39
0.0
210
0.0
220
0.0
230
1.0
  0
LINE
  5
C5
330
40
100
AcDbEntity
  8
RIGHT
  6
ByLayer
 62
7
 48
1.0
 60
0
370
-1
100
AcDbLine
 10
11.4714231491089
 20
0.694462716579437
 30
0.0
 11
11.6996479034424
 21
0.589245855808258
 31
0.0
 39
0.0
210
0.0
220
0.0
230
1.0
  0
LINE
  5
C6
330
40
100
AcDbEntity
  8
RIGHT
  6
ByLayer
 62
7
 48
1.0
 60
0
370
-1
100
AcDbLine
 10
11.6996479034424
 20
0.589245855808258
 30
0.0
 11
11.9278726577759
 21
0.478354185819626
 31
0.0
 39
0.0
210
0.0
220
0.0
230
1.0
  0
LINE
  5
C7
330
40
100
AcDbEntity
  8
RIGHT
  6
ByLayer
 62
7
 48
1.0
 60
0
370
-1
100
AcDbLine
 10
11.9278726577759
 20
0.478354185819626
 30
0.0
 11
12.1560974121094
 21
0.362855732440948
 31
0.0
 39
0.0
210
0.0
220
0.0
230
1.0
  0
LINE
  5
C8
330
40
100
AcDbEntity
  8
RIGHT
  6
ByLayer
 62
7
 48
1.0
 60
0
370
-1
100
AcDbLine
 10
12.1560974121094
 20
0.362855732440948
 30
0.0
 11
12.3843221664429
 21
0.24386277794838
 31
0.0
 39
0.0
210
0.0
220
0.0
230
1.0
  0
LINE
  5
C9
330
40
100
AcDbEntity
  8
RIGHT
  6
ByLayer
 62
7
 48
1.0
 60
0
370
-1
100
AcDbLine
 10
12.3843221664429
 20
0.24386277794838
 30
0.0
 11
12.6125469207764
 21
0.122521296143532
 31
0.0
 39
0.0
210
0.0
220
0.0
230
1.0
  0
LINE
  5
CA
330
40
100
AcDbEntity
  8
RIGHT
  6
ByLayer
 62
7
 48
1.0
 60
0
370
-1
100
AcDbLine
 10
12.6125469207764
 20
0.122521296143532
 30
0.0
 11
12.8407716751099
 21
-0.0000001303851604
 31
0.0
 39
0.0
210
0.0
220
0.0
230
1.0
  0
LINE
  5
CB
330
40
100
AcDbEntity
  8
RIGHT
  6
ByLayer
 62
7
 48
1.0
 60
0
370
-1
100
AcDbLine
 10
12.8407716751099
 20
-0.0000001303851604
 30
0.0
 11
13.0689964294434
 21
-0.122521556913853
 31
0.0
 39
0.0
210
0.0
220
0.0
230
1.0
  0
LINE
  5
CC
330
40
100
AcDbEntity
  8
RIGHT
  6
ByLayer
 62
7
 48
1.0
 60
0
370
-1
100
AcDbLine
 10
13.0689964294434
 20
-0.122521556913853
 30
0.0
 11
13.2972211837769
 21
-0.24386303126812
 31
0.0
 39
0.0
210
0.0
220
0.0
230
1.0
  0
LINE
  5
CD
330
40
100
AcDbEntity
  8
RIGHT
  6
ByLayer
 62
7
 48
1.0
 60
0
370
-1
100
AcDbLine
 10
13.2972211837769
 20
-0.24386303126812
 30
0.0
 11
13.5254459381104
 21
-0.36285600066185
 31
0.0
 39
0.0
210
0.0
220
0.0
230
1.0
  0
LINE
  5
CE
330
40
100
AcDbEntity
  8
RIGHT
  6
ByLayer
 62
7
 48
1.0
 60
0
370
-1
100
AcDbLine
 10
13.5254459381104
 20
-0.36285600066185
 30
0.0
 11
13.7536706924438
 21
-0.478354454040527
 31
0.0
 39
0.0
210
0.0
220
0.0
230
1.0
  0
LINE
  5
CF
330
40
100
AcDbEntity
  8
RIGHT
  6
ByLayer
 62
7
 48
1.0
 60
0
370
-1
100
AcDbLine
 10
13.7536706924438
 20
-0.478354454040527
 30
0.0
 11
13.9818954467773
 21
-0.589246094226837
 31
0.0
 39
0.0
210
0.0
220
0.0
230
1.0
  0
LINE
  5
D0
330
40
100
AcDbEntity
  8
RIGHT
  6
ByLayer
 62
7
 48
1.0
 60
0
370
-1
100
AcDbLine
 10
13.9818954467773
 20
-0.589246094226837
 30
0.0
 11
14.2101202011108
 21
-0.694462895393372
 31
0.0
 39
0.0
210
0.0
220
0.0
230
1.0
  0
LINE
  5
D1
330
40
100
AcDbEntity
  8
RIGHT
  6
ByLayer
 62
7
 48
1.0
 60
0
370
-1
100
AcDbLine
 10
14.2101202011108
 20
-0.694462895393372
 30
0.0
 11
14.4383449554443
 21
-0.792991697788239
 31
0.0
 39
0.0
210
0.0
220
0.0
230
1.0
  0
LINE
  5
D2
330
40
100
AcDbEntity
  8
RIGHT
  6
ByLayer
 62
7
 48
1.0
 60
0
370
-1
100
AcDbLine
 10
14.4383449554443
 20
-0.792991697788239
 30
0.0
 11
14.6665697097778
 21
-0.883883535861969
 31
0.0
 39
0.0
210
0.0
220
0.0
230
1.0
  0
LINE
  5
D3
330
40
100
AcDbEntity
  8
RIGHT
  6
ByLayer
 62
7
 48
1.0
 60
0
370
-1
100
AcDbLine
 10
14.6665697097778
 20
-0.883883535861969
 30
0.0
 11
14.8947944641113
 21
-0.966263115406036
 31
0.0
 39
0.0
210
0.0
220
0.0
230
1.0
  0
LINE
  5
D4
330
40
100
AcDbEntity
  8
RIGHT
  6
ByLayer
 62
7
 48
1.0
 60
0
370
-1
100
AcDbLine
 10
14.8947944641113
 20
-0.966263115406036
 30
0.0
 11
15.1230192184448
 21
-1.03933703899384
 31
0.0
 39
0.0
210
0.0
220
0.0
230
1.0
  0
LINE
  5
D5
330
40
100
AcDbEntity
  8
RIGHT
  6
ByLayer
 62
7
 48
1.0
 60
0
370
-1
100
AcDbLine
 10
15.1230192184448
 20
-1.03933703899384
 30
0.0
 11
15.3512439727783
 21
-1.10240161418915
 31
0.0
 39
0.0
210
0.0
220
0.0
230
1.0
  0
LINE
  5
D6
330
40
100
AcDbEntity
  8
RIGHT
  6
ByLayer
 62
7
 48
1.0
 60
0
370
-1
100
AcDbLine
 10
15.3512439727783
 20
-1.10240161418915
 30
0.0
 11
15.5794687271118
 21
-1.15484952926636
 31
0.0
 39
0.0
210
0.0
220
0.0
230
1.0
  0
LINE
  5
D7
330
40
100
AcDbEntity
  8
RIGHT
  6
ByLayer
 62
7
 48
1.0
 60
0
370
-1
100
AcDbLine
 10
15.5794687271118
 20
-1.15484952926636
 30
0.0
 11
15.8076934814453
 21
-1.19617545604706
 31
0.0
 39
0.0
210
0.0
220
0.0
230
1.0
  0
LINE
  5
D8
330
40
100
AcDbEntity
  8
RIGHT
  6
ByLayer
 62
7
 48
1.0
 60
0
370
-1
100
AcDbLine
 10
15.8076934814453
 20
-1.19617545604706
 30
0.0
 11
16.0359172821045
 21
-1.22598159313202
 31
0.0
 39
0.0
210
0.0
220
0.0
230
1.0
  0
LINE
  5
D9
330
40
100
AcDbEntity
  8
RIGHT
  6
ByLayer
 62
7
 48
1.0
 60
0
370
-1
100
AcDbLine
 10
16.0359172821045
 20
-1.22598159313202
 30
0.0
 11
16.2641410827637
 21
-1.243980884552
 31
0.0
 39
0.0
210
0.0
220
0.0
230
1.0
  0
LINE
  5
DA
330
40
100
AcDbEntity
  8
RIGHT
  6
ByLayer
 62
7
 48
1.0
 60
0
370
-1
100
AcDbLine
 10
16.2641410827637
 20
-1.243980884552
 30
0.0
 11
16.4923648834229
 21
-1.25
 31
0.0
 39
0.0
210
0.0
220
0.0
230
1.0
  0
LINE
  5
DB
330
40
100
AcDbEntity
  8
RIGHT
  6
ByLayer
 62
7
 48
1.0
 60
0
370
-1
100
AcDbLine
 10
10.1020727157593
 20
1.25
 30
0.0
 11
10.3302974700928
 21
1.243980884552
 31
0.0
 39
0.0
210
0.0
220
0.0
230
1.0
  0
LINE
  5
DC
330
40
100
AcDbEntity
  8
RIGHT
  6
ByLayer
 62
7
 48
1.0
 60
0
370
-1
100
AcDbLine
 10
10.3302974700928
 20
1.243980884552
 30
0.0
 11
10.5585222244263
 21
1.22598159313202
 31
0.0
 39
0.0
210
0.0
220
0.0
230
1.0
  0
LINE
  5
DD
330
40
100
AcDbEntity
  8
RIGHT
  6
ByLayer
 62
7
 48
1.0
 60
0
370
-1
100
AcDbLine
 10
10.5585222244263
 20
1.22598159313202
 30
0.0
 11
10.7867469787598
 21
1.19617533683777
 31
0.0
 39
0.0
210
0.0
220
0.0
230
1.0
  0
LINE
  5
DE
330
40
100
AcDbEntity
  8
RIGHT
  6
ByLayer
 62
7
 48
1.0
 60
0
370
-1
100
AcDbLine
 10
10.7867469787598
 20
1.19617533683777
 30
0.0
 11
11.0149717330933
 21
1.15484941005707
 31
0.0
 39
0.0
210
0.0
220
0.0
230
1.0
  0
LINE
  5
DF
330
40
100
AcDbEntity
  8
RIGHT
  6
ByLayer
 62
7
 48
1.0
 60
0
370
-1
100
AcDbLine
 10
11.0149717330933
 20
1.15484941005707
 30
0.0
 11
11.2431964874268
 21
1.10240149497986
 31
0.0
 39
0.0
210
0.0
220
0.0
230
1.0
  0
LINE
  5
E0
330
40
100
AcDbEntity
  8
RIGHT
  6
ByLayer
 62
7
 48
1.0
 60
0
370
-1
100
AcDbLine
 10
11.2431964874268
 20
1.10240149497986
 30
0.0
 11
11.4714212417603
 21
1.03933691978455
 31
0.0
 39
0.0
210
0.0
220
0.0
230
1.0
  0
LINE
  5
E1
330
40
100
AcDbEntity
  8
RIGHT
  6
ByLayer
 62
7
 48
1.0
 60
0
370
-1
100
AcDbLine
 10
11.4714212417603
 20
1.03933691978455
 30
0.0
 11
11.6996459960938
 21
0.966262996196747
 31
0.0
 39
0.0
210
0.0
220
0.0
230
1.0
  0
LINE
  5
E2
330
40
100
AcDbEntity
  8
RIGHT
  6
ByLayer
 62
7
 48
1.0
 60
0
370
-1
100
AcDbLine
 10
11.6996459960938
 20
0.966262996196747
 30
0.0
 11
11.9278707504272
 21
0.883883416652679
 31
0.0
 39
0.0
210
0.0
220
0.0
230
1.0
  0
LINE
  5
E3
330
40
100
AcDbEntity
  8
RIGHT
  6
ByLayer
 62
7
 48
1.0
 60
0
370
-1
100
AcDbLine
 10
11.9278707504272
 20
0.883883416652679
 30
0.0
 11
12.1560955047607
 21
0.792991518974304
 31
0.0
 39
0.0
210
0.0
220
0.0
230
1.0
  0
LINE
  5
E4
330
40
100
AcDbEntity
  8
RIGHT
  6
ByLayer
 62
7
 48
1.0
 60
0
370
-1
100
AcDbLine
 10
12.1560955047607
 20
0.792991518974304
 30
0.0
 11
12.3843202590942
 21
0.694462716579437
 31
0.0
 39
0.0
210
0.0
220
0.0
230
1.0
  0
LINE
  5
E5
330
40
100
AcDbEntity
  8
RIGHT
  6
ByLayer
 62
7
 48
1.0
 60
0
370
-1
100
AcDbLine
 10
12.3843202590942
 20
0.694462716579437
 30
0.0
 11
12.6125450134277
 21
0.589245855808258
 31
0.0
 39
0.0
210
0.0
220
0.0
230
1.0
  0
LINE
  5
E6
330
40
100
AcDbEntity
  8
RIGHT
  6
ByLayer
 62
7
 48
1.0
 60
0
370
-1
100
AcDbLine
 10
12.6125450134277
 20
0.589245855808258
 30
0.0
 11
12.8407697677612
 21
0.478354185819626
 31
0.0
 39
0.0
210
0.0
220
0.0
230
1.0
  0
LINE
  5
E7
330
40
100
AcDbEntity
  8
RIGHT
  6
ByLayer
 62
7
 48
1.0
 60
0
370
-1
100
AcDbLine
 10
12.8407697677612
 20
0.478354185819626
 30
0.0
 11
13.0689945220947
 21
0.362855732440948
 31
0.0
 39
0.0
210
0.0
220
0.0
230
1.0
  0
LINE
  5
E8
330
40
100
AcDbEntity
  8
RIGHT
  6
ByLayer
 62
7
 48
1.0
 60
0
370
-1
100
AcDbLine
 10
13.0689945220947
 20
0.362855732440948
 30
0.0
 11
13.2972192764282
 21
0.24386277794838
 31
0.0
 39
0.0
210
0.0
220
0.0
230
1.0
  0
LINE
  5
E9
330
40
100
AcDbEntity
  8
RIGHT
  6
ByLayer
 62
7
 48
1.0
 60
0
370
-1
100
AcDbLine
 10
13.2972192764282
 20
0.24386277794838
 30
0.0
 11
13.5254440307617
 21
0.122521296143532
 31
0.0
 39
0.0
210
0.0
220
0.0
230
1.0
  0
LINE
  5
EA
330
40
100
AcDbEntity
  8
RIGHT
  6
ByLayer
 62
7
 48
1.0
 60
0
370
-1
100
AcDbLine
 10
13.5254440307617
 20
0.122521296143532
 30
0.0
 11
13.7536687850952
 21
-0.0000001303851604
 31
0.0
 39
0.0
210
0.0
220
0.0
230
1.0
  0
LINE
  5
EB
330
40
100
AcDbEntity
  8
RIGHT
  6
ByLayer
 62
7
 48
1.0
 60
0
370
-1
100
AcDbLine
 10
13.7536687850952
 20
-0.0000001303851604
 30
0.0
 11
13.9818935394287
 21
-0.122521556913853
 31
0.0
 39
0.0
210
0.0
220
0.0
230
1.0
  0
LINE
  5
EC
330
40
100
AcDbEntity
  8
RIGHT
  6
ByLayer
 62
7
 48
1.0
 60
0
370
-1
100
AcDbLine
 10
13.9818935394287
 20
-0.122521556913853
 30
0.0
 11
14.2101182937622
 21
-0.24386303126812
 31
0.0
 39
0.0
210
0.0
220
0.0
230
1.0
  0
LINE
  5
ED
330
40
100
AcDbEntity
  8
RIGHT
  6
ByLayer
 62
7
 48
1.0
 60
0
370
-1
100
AcDbLine
 10
14.2101182937622
 20
-0.24386303126812
 30
0.0
 11
14.4383430480957
 21
-0.36285600066185
 31
0.0
 39
0.0
210
0.0
220
0.0
230
1.0
  0
LINE
  5
EE
330
40
100
AcDbEntity
  8
RIGHT
  6
ByLayer
 62
7
 48
1.0
 60
0
370
-1
100
AcDbLine
 10
14.4383430480957
 20
-0.36285600066185
 30
0.0
 11
14.6665678024292
 21
-0.478354454040527
 31
0.0
 39
0.0
210
0.0
220
0.0
230
1.0
  0
LINE
  5
EF
330
40
100
AcDbEntity
  8
RIGHT
  6
ByLayer
 62
7
 48
1.0
 60
0
370
-1
100
AcDbLine
 10
14.6665678024292
 20
-0.478354454040527
 30
0.0
 11
14.8947925567627
 21
-0.589246094226837
 31
0.0
 39
0.0
210
0.0
220
0.0
230
1.0
  0
LINE
  5
F0
330
40
100
AcDbEntity
  8
RIGHT
  6
ByLayer
 62
7
 48
1.0
 60
0
370
-1
100
AcDbLine
 10
14.8947925567627
 20
-0.589246094226837
 30
0.0
 11
15.1230173110962
 21
-0.694462895393372
 31
0.0
 39
0.0
210
0.0
220
0.0
230
1.0
  0
LINE
  5
F1
330
40
100
AcDbEntity
  8
RIGHT
  6
ByLayer
 62
7
 48
1.0
 60
0
370
-1
100
AcDbLine
 10
15.1230173110962
 20
-0.694462895393372
 30
0.0
 11
15.3512420654297
 21
-0.792991697788239
 31
0.0
 39
0.0
210
0.0
220
0.0
230
1.0
  0
LINE
  5
F2
330
40
100
AcDbEntity
  8
RIGHT
  6
ByLayer
 62
7
 48
1.0
 60
0
370
-1
100
AcDbLine
 10
15.3512420654297
 20
-0.792991697788239
 30
0.0
 11
15.5794668197632
 21
-0.883883535861969
 31
0.0
 39
0.0
210
0.0
220
0.0
230
1.0
  0
LINE
  5
F3
330
40
100
AcDbEntity
  8
RIGHT
  6
ByLayer
 62
7
 48
1.0
 60
0
370
-1
100
AcDbLine
 10
15.5794668197632
 20
-0.883883535861969
 30
0.0
 11
15.8076915740967
 21
-0.966263115406036
 31
0.0
 39
0.0
210
0.0
220
0.0
230
1.0
  0
LINE
  5
F4
330
40
100
AcDbEntity
  8
RIGHT
  6
ByLayer
 62
7
 48
1.0
 60
0
370
-1
100
AcDbLine
 10
15.8076915740967
 20
-0.966263115406036
 30
0.0
 11
16.0359153747559
 21
-1.03933703899384
 31
0.0
 39
0.0
210
0.0
220
0.0
230
1.0
  0
LINE
  5
F5
330
40
100
AcDbEntity
  8
RIGHT
  6
ByLayer
 62
7
 48
1.0
 60
0
370
-1
100
AcDbLine
 10
16.0359153747559
 20
-1.03933703899384
 30
0.0
 11
16.264139175415
 21
-1.10240161418915
 31
0.0
 39
0.0
210
0.0
220
0.0
230
1.0
  0
LINE
  5
F6
330
40
100
AcDbEntity
  8
RIGHT
  6
ByLayer
 62
7
 48
1.0
 60
0
370
-1
100
AcDbLine
 10
16.264139175415
 20
-1.10240161418915
 30
0.0
 11
16.4923629760742
 21
-1.15484952926636
 31
0.0
 39
0.0
210
0.0
220
0.0
230
1.0
  0
LINE
  5
F7
330
40
100
AcDbEntity
  8
RIGHT
  6
ByLayer
 62
7
 48
1.0
 60
0
370
-1
100
AcDbLine
 10
12.8407649993896
 20
1.25
 30
0.0
 11
13.0689897537231
 21
1.243980884552
 31
0.0
 39
0.0
210
0.0
220
0.0
230
1.0
  0
LINE
  5
F8
330
40
100
AcDbEntity
  8
RIGHT
  6
ByLayer
 62
7
 48
1.0
 60
0
370
-1
100
AcDbLine
 10
13.0689897537231
 20
1.243980884552
 30
0.0
 11
13.2972145080566
 21
1.22598159313202
 31
0.0
 39
0.0
210
0.0
220
0.0
230
1.0
  0
LINE
  5
F9
330
40
100
AcDbEntity
  8
RIGHT
  6
ByLayer
 62
7
 48
1.0
 60
0
370
-1
100
AcDbLine
 10
13.2972145080566
 20
1.22598159313202
 30
0.0
 11
13.5254392623901
 21
1.19617533683777
 31
0.0
 39
0.0
210
0.0
220
0.0
230
1.0
  0
LINE
  5
FA
330
40
100
AcDbEntity
  8
RIGHT
  6
ByLayer
 62
7
 48
1.0
 60
0
370
-1
100
AcDbLine
 10
13.5254392623901
 20
1.19617533683777
 30
0.0
 11
13.7536640167236
 21
1.15484941005707
 31
0.0
 39
0.0
210
0.0
220
0.0
230
1.0
  0
LINE
  5
FB
330
40
100
AcDbEntity
  8
RIGHT
  6
ByLayer
 62
7
 48
1.0
 60
0
370
-1
100
AcDbLine
 10
13.7536640167236
 20
1.15484941005707
 30
0.0
 11
13.9818887710571
 21
1.10240149497986
 31
0.0
 39
0.0
210
0.0
220
0.0
230
1.0
  0
LINE
  5
FC
330
40
100
AcDbEntity
  8
RIGHT
  6
ByLayer
 62
7
 48
1.0
 60
0
370
-1
100
AcDbLine
 10
13.9818887710571
 20
1.10240149497986
 30
0.0
 11
14.2101135253906
 21
1.03933691978455
 31
0.0
 39
0.0
210
0.0
220
0.0
230
1.0
  0
LINE
  5
FD
330
40
100
AcDbEntity
  8
RIGHT
  6
ByLayer
 62
7
 48
1.0
 60
0
370
-1
100
AcDbLine
 10
14.2101135253906
 20
1.03933691978455
 30
0.0
 11
14.4383382797241
 21
0.966262996196747
 31
0.0
 39
0.0
210
0.0
220
0.0
230
1.0
  0
LINE
  5
FE
330
40
100
AcDbEntity
  8
RIGHT
  6
ByLayer
 62
7
 48
1.0
 60
0
370
-1
100
AcDbLine
 10
14.4383382797241
 20
0.966262996196747
 30
0.0
 11
14.6665630340576
 21
0.883883416652679
 31
0.0
 39
0.0
210
0.0
220
0.0
230
1.0
  0
LINE
  5
FF
330
40
100
AcDbEntity
  8
RIGHT
  6
ByLayer
 62
7
 48
1.0
 60
0
370
-1
100
AcDbLine
 10
14.6665630340576
 20
0.883883416652679
 30
0.0
 11
14.8947877883911
 21
0.792991518974304
 31
0.0
 39
0.0
210
0.0
220
0.0
230
1.0
  0
LINE
  5
100
330
40
100
AcDbEntity
  8
RIGHT
  6
ByLayer
 62
7
 48
1.0
 60
0
370
-1
100
AcDbLine
 10
14.8947877883911
 20
0.792991518974304
 30
0.0
 11
15.1230125427246
 21
0.694462716579437
 31
0.0
 39
0.0
210
0.0
220
0.0
230
1.0
  0
LINE
  5
101
330
40
100
AcDbEntity
  8
RIGHT
  6
ByLayer
 62
7
 48
1.0
 60
0
370
-1
100
AcDbLine
 10
15.1230125427246
 20
0.694462716579437
 30
0.0
 11
15.3512372970581
 21
0.589245855808258
 31
0.0
 39
0.0
210
0.0
220
0.0
230
1.0
  0
LINE
  5
102
330
40
100
AcDbEntity
  8
RIGHT
  6
ByLayer
 62
7
 48
1.0
 60
0
370
-1
100
AcDbLine
 10
15.3512372970581
 20
0.589245855808258
 30
0.0
 11
15.5794620513916
 21
0.478354185819626
 31
0.0
 39
0.0
210
0.0
220
0.0
230
1.0
  0
LINE
  5
103
330
40
100
AcDbEntity
  8
RIGHT
  6
ByLayer
 62
7
 48
1.0
 60
0
370
-1
100
AcDbLine
 10
15.5794620513916
 20
0.478354185819626
 30
0.0
 11
15.8076868057251
 21
0.362855732440948
 31
0.0
 39
0.0
210
0.0
220
0.0
230
1.0
  0
LINE
  5
104
330
40
100
AcDbEntity
  8
RIGHT
  6
ByLayer
 62
7
 48
1.0
 60
0
370
-1
100
AcDbLine
 10
15.8076868057251
 20
0.362855732440948
 30
0.0
 11
16.0359115600586
 21
0.24386277794838
 31
0.0
 39
0.0
210
0.0
220
0.0
230
1.0
  0
LINE
  5
105
330
40
100
AcDbEntity
  8
RIGHT
  6
ByLayer
 62
7
 48
1.0
 60
0
370
-1
100
AcDbLine
 10
16.0359115600586
 20
0.24386277794838
 30
0.0
 11
16.2641353607178
 21
0.122521296143532
 31
0.0
 39
0.0
210
0.0
220
0.0
230
1.0
  0
LINE
  5
106
330
40
100
AcDbEntity
  8
RIGHT
  6
ByLayer
 62
7
 48
1.0
 60
0
370
-1
100
AcDbLine
 10
16.2641353607178
 20
0.122521296143532
 30
0.0
 11
16.492359161377
 21
-0.0000001303851604
 31
0.0
 39
0.0
210
0.0
220
0.0
230
1.0
  0
LINE
  5
107
330
40
100
AcDbEntity
  8
RIGHT
  6
ByLayer
 62
7
 48
1.0
 60
0
370
-1
100
AcDbLine
 10
14.6665592193604
 20
0.883883476257324
 30
0.0
 11
14.8947839736938
 21
0.966263055801392
 31
0.0
 39
0.0
210
0.0
220
0.0
230
1.0
  0
LINE
  5
108
330
40
100
AcDbEntity
  8
RIGHT
  6
ByLayer
 62
7
 48
1.0
 60
0
370
-1
100
AcDbLine
 10
14.8947839736938
 20
0.966263055801392
 30
0.0
 11
15.1230087280273
 21
1.03933703899384
 31
0.0
 39
0.0
210
0.0
220
0.0
230
1.0
  0
LINE
  5
109
330
40
100
AcDbEntity
  8
RIGHT
  6
ByLayer
 62
7
 48
1.0
 60
0
370
-1
100
AcDbLine
 10
15.1230087280273
 20
1.03933703899384
 30
0.0
 11
15.3512334823608
 21
1.10240161418915
 31
0.0
 39
0.0
210
0.0
220
0.0
230
1.0
  0
LINE
  5
10A
330
40
100
AcDbEntity
  8
RIGHT
  6
ByLayer
 62
7
 48
1.0
 60
0
370
-1
100
AcDbLine
 10
15.3512334823608
 20
1.10240161418915
 30
0.0
 11
15.5794582366943
 21
1.15484941005707
 31
0.0
 39
0.0
210
0.0
220
0.0
230
1.0
  0
LINE
  5
10B
330
40
100
AcDbEntity
  8
RIGHT
  6
ByLayer
 62
7
 48
1.0
 60
0
370
-1
100
AcDbLine
 10
15.5794582366943
 20
1.15484941005707
 30
0.0
 11
15.8076829910278
 21
1.19617545604706
 31
0.0
 39
0.0
210
0.0
220
0.0
230
1.0
  0
LINE
  5
10C
330
40
100
AcDbEntity
  8
RIGHT
  6
ByLayer
 62
7
 48
1.0
 60
0
370
-1
100
AcDbLine
 10
15.8076829910278
 20
1.19617545604706
 30
0.0
 11
16.0359077453613
 21
1.22598159313202
 31
0.0
 39
0.0
210
0.0
220
0.0
230
1.0
  0
LINE
  5
10D
330
40
100
AcDbEntity
  8
RIGHT
  6
ByLayer
 62
7
 48
1.0
 60
0
370
-1
100
AcDbLine
 10
16.0359077453613
 20
1.22598159313202
 30
0.0
 11
16.2641315460205
 21
1.243980884552
 31
0.0
 39
0.0
210
0.0
220
0.0
230
1.0
  0
LINE
  5
10E
330
40
100
AcDbEntity
  8
RIGHT
  6
ByLayer
 62
7
 48
1.0
 60
0
370
-1
100
AcDbLine
 10
16.2641315460205
 20
1.243980884552
 30
0.0
 11
16.4923553466797
 21
1.25
 31
0.0
 39
0.0
210
0.0
220
0.0
230
1.0
  0
LINE
  5
10F
330
40
100
AcDbEntity
  8
RIGHT
  6
ByLayer
 62
7
 48
1.0
 60
0
370
-1
100
AcDbLine
 10
12.8407649993896
 20
-1.25
 30
0.0
 11
13.0689897537231
 21
-1.243980884552
 31
0.0
 39
0.0
210
0.0
220
0.0
230
1.0
  0
LINE
  5
110
330
40
100
AcDbEntity
  8
RIGHT
  6
ByLayer
 62
7
 48
1.0
 60
0
370
-1
100
AcDbLine
 10
13.0689897537231
 20
-1.243980884552
 30
0.0
 11
13.2972145080566
 21
-1.22598159313202
 31
0.0
 39
0.0
210
0.0
220
0.0
230
1.0
  0
LINE
  5
111
330
40
100
AcDbEntity
  8
RIGHT
  6
ByLayer
 62
7
 48
1.0
 60
0
370
-1
100
AcDbLine
 10
13.2972145080566
 20
-1.22598159313202
 30
0.0
 11
13.5254392623901
 21
-1.19617533683777
 31
0.0
 39
0.0
210
0.0
220
0.0
230
1.0
  0
LINE
  5
112
330
40
100
AcDbEntity
  8
RIGHT
  6
ByLayer
 62
7
 48
1.0
 60
0
370
-1
100
AcDbLine
 10
13.5254392623901
 20
-1.19617533683777
 30
0.0
 11
13.7536640167236
 21
-1.15484941005707
 31
0.0
 39
0.0
210
0.0
220
0.0
230
1.0
  0
LINE
  5
113
330
40
100
AcDbEntity
  8
RIGHT
  6
ByLayer
 62
7
 48
1.0
 60
0
370
-1
100
AcDbLine
 10
13.7536640167236
 20
-1.15484941005707
 30
0.0
 11
13.9818887710571
 21
-1.10240149497986
 31
0.0
 39
0.0
210
0.0
220
0.0
230
1.0
  0
LINE
  5
114
330
40
100
AcDbEntity
  8
RIGHT
  6
ByLayer
 62
7
 48
1.0
 60
0
370
-1
100
AcDbLine
 10
13.9818887710571
 20
-1.10240149497986
 30
0.0
 11
14.2101135253906
 21
-1.03933691978455
 31
0.0
 39
0.0
210
0.0
220
0.0
230
1.0
  0
LINE
  5
115
330
40
100
AcDbEntity
  8
RIGHT
  6
ByLayer
 62
7
 48
1.0
 60
0
370
-1
100
AcDbLine
 10
14.2101135253906
 20
-1.03933691978455
 30
0.0
 11
14.4383382797241
 21
-0.966262996196747
 31
0.0
 39
0.0
210
0.0
220
0.0
230
1.0
  0
LINE
  5
116
330
40
100
AcDbEntity
  8
RIGHT
  6
ByLayer
 62
7
 48
1.0
 60
0
370
-1
100
AcDbLine
 10
14.4383382797241
 20
-0.966262996196747
 30
0.0
 11
14.6665630340576
 21
-0.883883416652679
 31
0.0
 39
0.0
210
0.0
220
0.0
230
1.0
  0
LINE
  5
117
330
40
100
AcDbEntity
  8
RIGHT
  6
ByLayer
 62
7
 48
1.0
 60
0
370
-1
100
AcDbLine
 10
9.18917560577393
 20
1.25
 30
0.0
 11
12.8407649993896
 21
1.25
 31
0.0
 39
0.0
210
0.0
220
0.0
230
1.0
  0
LINE
  5
118
330
40
100
AcDbEntity
  8
RIGHT
  6
ByLayer
 62
7
 48
1.0
 60
0
370
-1
100
AcDbLine
 10
9.18917560577393
 20
-1.25
 30
0.0
 11
12.8407649993896
 21
-1.25
 31
0.0
 39
0.0
210
0.0
220
0.0
230
1.0
  0
LINE
  5
119
330
40
100
AcDbEntity
  8
RIGHT
  6
ByLayer
 62
7
 48
1.0
 60
0
370
-1
100
AcDbLine
 10
16.4923534393311
 20
-0.0000000546392336
 30
0.0
 11
16.7205772399902
 21
-0.122521482408047
 31
0.0
 39
0.0
210
0.0
220
0.0
230
1.0
  0
LINE
  5
11A
330
40
100
AcDbEntity
  8
RIGHT
  6
ByLayer
 62
7
 48
1.0
 60
0
370
-1
100
AcDbLine
 10
16.7205772399902
 20
-0.122521482408047
 30
0.0
 11
16.9488010406494
 21
-0.243862956762314
 31
0.0
 39
0.0
210
0.0
220
0.0
230
1.0
  0
LINE
  5
11B
330
40
100
AcDbEntity
  8
RIGHT
  6
ByLayer
 62
7
 48
1.0
 60
0
370
-1
100
AcDbLine
 10
16.9488010406494
 20
-0.243862956762314
 30
0.0
 11
17.1770248413086
 21
-0.362855911254883
 31
0.0
 39
0.0
210
0.0
220
0.0
230
1.0
  0
LINE
  5
11C
330
40
100
AcDbEntity
  8
RIGHT
  6
ByLayer
 62
7
 48
1.0
 60
0
370
-1
100
AcDbLine
 10
17.1770248413086
 20
-0.362855911254883
 30
0.0
 11
17.4052486419678
 21
-0.47835436463356
 31
0.0
 39
0.0
210
0.0
220
0.0
230
1.0
  0
LINE
  5
11D
330
40
100
AcDbEntity
  8
RIGHT
  6
ByLayer
 62
7
 48
1.0
 60
0
370
-1
100
AcDbLine
 10
17.4052486419678
 20
-0.47835436463356
 30
0.0
 11
17.633472442627
 21
-0.589246034622192
 31
0.0
 39
0.0
210
0.0
220
0.0
230
1.0
  0
LINE
  5
11E
330
40
100
AcDbEntity
  8
RIGHT
  6
ByLayer
 62
7
 48
1.0
 60
0
370
-1
100
AcDbLine
 10
17.633472442627
 20
-0.589246034622192
 30
0.0
 11
17.8616962432861
 21
-0.694462835788727
 31
0.0
 39
0.0
210
0.0
220
0.0
230
1.0
  0
LINE
  5
11F
330
40
100
AcDbEntity
  8
RIGHT
  6
ByLayer
 62
7
 48
1.0
 60
0
370
-1
100
AcDbLine
 10
17.8616962432861
 20
-0.694462835788727
 30
0.0
 11
18.0899200439453
 21
-0.792991638183594
 31
0.0
 39
0.0
210
0.0
220
0.0
230
1.0
  0
LINE
  5
120
330
40
100
AcDbEntity
  8
RIGHT
  6
ByLayer
 62
7
 48
1.0
 60
0
370
-1
100
AcDbLine
 10
18.0899200439453
 20
-0.792991638183594
 30
0.0
 11
18.3181438446045
 21
-0.883883476257324
 31
0.0
 39
0.0
210
0.0
220
0.0
230
1.0
  0
LINE
  5
121
330
40
100
AcDbEntity
  8
RIGHT
  6
ByLayer
 62
7
 48
1.0
 60
0
370
-1
100
AcDbLine
 10
18.3181438446045
 20
-0.883883476257324
 30
0.0
 11
18.5463676452637
 21
-0.966263055801392
 31
0.0
 39
0.0
210
0.0
220
0.0
230
1.0
  0
LINE
  5
122
330
40
100
AcDbEntity
  8
RIGHT
  6
ByLayer
 62
7
 48
1.0
 60
0
370
-1
100
AcDbLine
 10
18.5463676452637
 20
-0.966263055801392
 30
0.0
 11
18.7745914459229
 21
-1.03933703899384
 31
0.0
 39
0.0
210
0.0
220
0.0
230
1.0
  0
LINE
  5
123
330
40
100
AcDbEntity
  8
RIGHT
  6
ByLayer
 62
7
 48
1.0
 60
0
370
-1
100
AcDbLine
 10
18.7745914459229
 20
-1.03933703899384
 30
0.0
 11
19.002815246582
 21
-1.10240161418915
 31
0.0
 39
0.0
210
0.0
220
0.0
230
1.0
  0
LINE
  5
124
330
40
100
AcDbEntity
  8
RIGHT
  6
ByLayer
 62
7
 48
1.0
 60
0
370
-1
100
AcDbLine
 10
19.002815246582
 20
-1.10240161418915
 30
0.0
 11
19.2310390472412
 21
-1.15484941005707
 31
0.0
 39
0.0
210
0.0
220
0.0
230
1.0
  0
LINE
  5
125
330
40
100
AcDbEntity
  8
RIGHT
  6
ByLayer
 62
7
 48
1.0
 60
0
370
-1
100
AcDbLine
 10
19.2310390472412
 20
-1.15484941005707
 30
0.0
 11
19.4592628479004
 21
-1.19617545604706
 31
0.0
 39
0.0
210
0.0
220
0.0
230
1.0
  0
LINE
  5
126
330
40
100
AcDbEntity
  8
RIGHT
  6
ByLayer
 62
7
 48
1.0
 60
0
370
-1
100
AcDbLine
 10
19.4592628479004
 20
-1.19617545604706
 30
0.0
 11
19.6874866485596
 21
-1.22598159313202
 31
0.0
 39
0.0
210
0.0
220
0.0
230
1.0
  0
LINE
  5
127
330
40
100
AcDbEntity
  8
RIGHT
  6
ByLayer
 62
7
 48
1.0
 60
0
370
-1
100
AcDbLine
 10
19.6874866485596
 20
-1.22598159313202
 30
0.0
 11
19.9157104492188
 21
-1.243980884552
 31
0.0
 39
0.0
210
0.0
220
0.0
230
1.0
  0
LINE
  5
128
330
40
100
AcDbEntity
  8
RIGHT
  6
ByLayer
 62
7
 48
1.0
 60
0
370
-1
100
AcDbLine
 10
19.9157104492188
 20
-1.243980884552
 30
0.0
 11
20.1439342498779
 21
-1.25
 31
0.0
 39
0.0
210
0.0
220
0.0
230
1.0
  0
LINE
  5
129
330
40
100
AcDbEntity
  8
RIGHT
  6
ByLayer
 62
7
 48
1.0
 60
0
370
-1
100
AcDbLine
 10
16.4923534393311
 20
1.25
 30
0.0
 11
16.7205772399902
 21
1.243980884552
 31
0.0
 39
0.0
210
0.0
220
0.0
230
1.0
  0
LINE
  5
12A
330
40
100
AcDbEntity
  8
RIGHT
  6
ByLayer
 62
7
 48
1.0
 60
0
370
-1
100
AcDbLine
 10
16.7205772399902
 20
1.243980884552
 30
0.0
 11
16.9488010406494
 21
1.22598159313202
 31
0.0
 39
0.0
210
0.0
220
0.0
230
1.0
  0
LINE
  5
12B
330
40
100
AcDbEntity
  8
RIGHT
  6
ByLayer
 62
7
 48
1.0
 60
0
370
-1
100
AcDbLine
 10
16.9488010406494
 20
1.22598159313202
 30
0.0
 11
17.1770248413086
 21
1.19617533683777
 31
0.0
 39
0.0
210
0.0
220
0.0
230
1.0
  0
LINE
  5
12C
330
40
100
AcDbEntity
  8
RIGHT
  6
ByLayer
 62
7
 48
1.0
 60
0
370
-1
100
AcDbLine
 10
17.1770248413086
 20
1.19617533683777
 30
0.0
 11
17.4052486419678
 21
1.15484941005707
 31
0.0
 39
0.0
210
0.0
220
0.0
230
1.0
  0
LINE
  5
12D
330
40
100
AcDbEntity
  8
RIGHT
  6
ByLayer
 62
7
 48
1.0
 60
0
370
-1
100
AcDbLine
 10
17.4052486419678
 20
1.15484941005707
 30
0.0
 11
17.633472442627
 21
1.10240149497986
 31
0.0
 39
0.0
210
0.0
220
0.0
230
1.0
  0
LINE
  5
12E
330
40
100
AcDbEntity
  8
RIGHT
  6
ByLayer
 62
7
 48
1.0
 60
0
370
-1
100
AcDbLine
 10
17.633472442627
 20
1.10240149497986
 30
0.0
 11
17.8616962432861
 21
1.03933691978455
 31
0.0
 39
0.0
210
0.0
220
0.0
230
1.0
  0
LINE
  5
12F
330
40
100
AcDbEntity
  8
RIGHT
  6
ByLayer
 62
7
 48
1.0
 60
0
370
-1
100
AcDbLine
 10
17.8616962432861
 20
1.03933691978455
 30
0.0
 11
18.0899200439453
 21
0.966262996196747
 31
0.0
 39
0.0
210
0.0
220
0.0
230
1.0
  0
LINE
  5
130
330
40
100
AcDbEntity
  8
RIGHT
  6
ByLayer
 62
7
 48
1.0
 60
0
370
-1
100
AcDbLine
 10
18.0899200439453
 20
0.966262996196747
 30
0.0
 11
18.3181438446045
 21
0.883883416652679
 31
0.0
 39
0.0
210
0.0
220
0.0
230
1.0
  0
LINE
  5
131
330
40
100
AcDbEntity
  8
RIGHT
  6
ByLayer
 62
7
 48
1.0
 60
0
370
-1
100
AcDbLine
 10
18.3181438446045
 20
0.883883416652679
 30
0.0
 11
18.5463676452637
 21
0.792991518974304
 31
0.0
 39
0.0
210
0.0
220
0.0
230
1.0
  0
LINE
  5
132
330
40
100
AcDbEntity
  8
RIGHT
  6
ByLayer
 62
7
 48
1.0
 60
0
370
-1
100
AcDbLine
 10
18.5463676452637
 20
0.792991518974304
 30
0.0
 11
18.7745914459229
 21
0.694462716579437
 31
0.0
 39
0.0
210
0.0
220
0.0
230
1.0
  0
LINE
  5
133
330
40
100
AcDbEntity
  8
RIGHT
  6
ByLayer
 62
7
 48
1.0
 60
0
370
-1
100
AcDbLine
 10
18.7745914459229
 20
0.694462716579437
 30
0.0
 11
19.002815246582
 21
0.589245855808258
 31
0.0
 39
0.0
210
0.0
220
0.0
230
1.0
  0
LINE
  5
134
330
40
100
AcDbEntity
  8
RIGHT
  6
ByLayer
 62
7
 48
1.0
 60
0
370
-1
100
AcDbLine
 10
19.002815246582
 20
0.589245855808258
 30
0.0
 11
19.2310390472412
 21
0.478354185819626
 31
0.0
 39
0.0
210
0.0
220
0.0
230
1.0
  0
LINE
  5
135
330
40
100
AcDbEntity
  8
RIGHT
  6
ByLayer
 62
7
 48
1.0
 60
0
370
-1
100
AcDbLine
 10
19.2310390472412
 20
0.478354185819626
 30
0.0
 11
19.4592628479004
 21
0.362855732440948
 31
0.0
 39
0.0
210
0.0
220
0.0
230
1.0
  0
LINE
  5
136
330
40
100
AcDbEntity
  8
RIGHT
  6
ByLayer
 62
7
 48
1.0
 60
0
370
-1
100
AcDbLine
 10
19.4592628479004
 20
0.362855732440948
 30
0.0
 11
19.6874866485596
 21
0.24386277794838
 31
0.0
 39
0.0
210
0.0
220
0.0
230
1.0
  0
LINE
  5
137
330
40
100
AcDbEntity
  8
RIGHT
  6
ByLayer
 62
7
 48
1.0
 60
0
370
-1
100
AcDbLine
 10
19.6874866485596
 20
0.24386277794838
 30
0.0
 11
19.9157104492188
 21
0.122521296143532
 31
0.0
 39
0.0
210
0.0
220
0.0
230
1.0
  0
LINE
  5
138
330
40
100
AcDbEntity
  8
RIGHT
  6
ByLayer
 62
7
 48
1.0
 60
0
370
-1
100
AcDbLine
 10
19.9157104492188
 20
0.122521296143532
 30
0.0
 11
20.1439342498779
 21
-0.0000001303851604
 31
0.0
 39
0.0
210
0.0
220
0.0
230
1.0
  0
LINE
  5
139
330
40
100
AcDbEntity
  8
RIGHT
  6
ByLayer
 62
7
 48
1.0
 60
0
370
-1
100
AcDbLine
 10
20.1439342498779
 20
-0.0000001303851604
 30
0.0
 11
20.3721580505371
 21
-0.122521556913853
 31
0.0
 39
0.0
210
0.0
220
0.0
230
1.0
  0
LINE
  5
13A
330
40
100
AcDbEntity
  8
RIGHT
  6
ByLayer
 62
7
 48
1.0
 60
0
370
-1
100
AcDbLine
 10
20.3721580505371
 20
-0.122521556913853
 30
0.0
 11
20.6003818511963
 21
-0.24386303126812
 31
0.0
 39
0.0
210
0.0
220
0.0
230
1.0
  0
LINE
  5
13B
330
40
100
AcDbEntity
  8
RIGHT
  6
ByLayer
 62
7
 48
1.0
 60
0
370
-1
100
AcDbLine
 10
20.6003818511963
 20
-0.24386303126812
 30
0.0
 11
20.8286056518555
 21
-0.36285600066185
 31
0.0
 39
0.0
210
0.0
220
0.0
230
1.0
  0
LINE
  5
13C
330
40
100
AcDbEntity
  8
RIGHT
  6
ByLayer
 62
7
 48
1.0
 60
0
370
-1
100
AcDbLine
 10
20.8286056518555
 20
-0.36285600066185
 30
0.0
 11
21.0568294525146
 21
-0.478354454040527
 31
0.0
 39
0.0
210
0.0
220
0.0
230
1.0
  0
LINE
  5
13D
330
40
100
AcDbEntity
  8
RIGHT
  6
ByLayer
 62
7
 48
1.0
 60
0
370
-1
100
AcDbLine
 10
21.0568294525146
 20
-0.478354454040527
 30
0.0
 11
21.2850532531738
 21
-0.589246094226837
 31
0.0
 39
0.0
210
0.0
220
0.0
230
1.0
  0
LINE
  5
13E
330
40
100
AcDbEntity
  8
RIGHT
  6
ByLayer
 62
7
 48
1.0
 60
0
370
-1
100
AcDbLine
 10
21.2850532531738
 20
-0.589246094226837
 30
0.0
 11
21.513277053833
 21
-0.694462895393372
 31
0.0
 39
0.0
210
0.0
220
0.0
230
1.0
  0
LINE
  5
13F
330
40
100
AcDbEntity
  8
RIGHT
  6
ByLayer
 62
7
 48
1.0
 60
0
370
-1
100
AcDbLine
 10
21.513277053833
 20
-0.694462895393372
 30
0.0
 11
21.7415008544922
 21
-0.792991697788239
 31
0.0
 39
0.0
210
0.0
220
0.0
230
1.0
  0
LINE
  5
140
330
40
100
AcDbEntity
  8
RIGHT
  6
ByLayer
 62
7
 48
1.0
 60
0
370
-1
100
AcDbLine
 10
21.7415008544922
 20
-0.792991697788239
 30
0.0
 11
21.9697246551514
 21
-0.883883535861969
 31
0.0
 39
0.0
210
0.0
220
0.0
230
1.0
  0
LINE
  5
141
330
40
100
AcDbEntity
  8
RIGHT
  6
ByLayer
 62
7
 48
1.0
 60
0
370
-1
100
AcDbLine
 10
21.9697246551514
 20
-0.883883535861969
 30
0.0
 11
22.1979484558105
 21
-0.966263115406036
 31
0.0
 39
0.0
210
0.0
220
0.0
230
1.0
  0
LINE
  5
142
330
40
100
AcDbEntity
  8
RIGHT
  6
ByLayer
 62
7
 48
1.0
 60
0
370
-1
100
AcDbLine
 10
22.1979484558105
 20
-0.966263115406036
 30
0.0
 11
22.4261722564697
 21
-1.03933703899384
 31
0.0
 39
0.0
210
0.0
220
0.0
230
1.0
  0
LINE
  5
143
330
40
100
AcDbEntity
  8
RIGHT
  6
ByLayer
 62
7
 48
1.0
 60
0
370
-1
100
AcDbLine
 10
22.4261722564697
 20
-1.03933703899384
 30
0.0
 11
22.6543960571289
 21
-1.10240161418915
 31
0.0
 39
0.0
210
0.0
220
0.0
230
1.0
  0
LINE
  5
144
330
40
100
AcDbEntity
  8
RIGHT
  6
ByLayer
 62
7
 48
1.0
 60
0
370
-1
100
AcDbLine
 10
22.6543960571289
 20
-1.10240161418915
 30
0.0
 11
22.8826198577881
 21
-1.15484952926636
 31
0.0
 39
0.0
210
0.0
220
0.0
230
1.0
  0
LINE
  5
145
330
40
100
AcDbEntity
  8
RIGHT
  6
ByLayer
 62
7
 48
1.0
 60
0
370
-1
100
AcDbLine
 10
22.8826198577881
 20
-1.15484952926636
 30
0.0
 11
23.1108436584473
 21
-1.19617545604706
 31
0.0
 39
0.0
210
0.0
220
0.0
230
1.0
  0
LINE
  5
146
330
40
100
AcDbEntity
  8
RIGHT
  6
ByLayer
 62
7
 48
1.0
 60
0
370
-1
100
AcDbLine
 10
23.1108436584473
 20
-1.19617545604706
 30
0.0
 11
23.3390674591064
 21
-1.22598159313202
 31
0.0
 39
0.0
210
0.0
220
0.0
230
1.0
  0
LINE
  5
147
330
40
100
AcDbEntity
  8
RIGHT
  6
ByLayer
 62
7
 48
1.0
 60
0
370
-1
100
AcDbLine
 10
23.3390674591064
 20
-1.22598159313202
 30
0.0
 11
23.5672912597656
 21
-1.243980884552
 31
0.0
 39
0.0
210
0.0
220
0.0
230
1.0
  0
LINE
  5
148
330
40
100
AcDbEntity
  8
RIGHT
  6
ByLayer
 62
7
 48
1.0
 60
0
370
-1
100
AcDbLine
 10
23.5672912597656
 20
-1.243980884552
 30
0.0
 11
23.7955150604248
 21
-1.25
 31
0.0
 39
0.0
210
0.0
220
0.0
230
1.0
  0
LINE
  5
149
330
40
100
AcDbEntity
  8
RIGHT
  6
ByLayer
 62
7
 48
1.0
 60
0
370
-1
100
AcDbLine
 10
17.4052505493164
 20
1.25
 30
0.0
 11
17.6334743499756
 21
1.243980884552
 31
0.0
 39
0.0
210
0.0
220
0.0
230
1.0
  0
LINE
  5
14A
330
40
100
AcDbEntity
  8
RIGHT
  6
ByLayer
 62
7
 48
1.0
 60
0
370
-1
100
AcDbLine
 10
17.6334743499756
 20
1.243980884552
 30
0.0
 11
17.8616981506348
 21
1.22598159313202
 31
0.0
 39
0.0
210
0.0
220
0.0
230
1.0
  0
LINE
  5
14B
330
40
100
AcDbEntity
  8
RIGHT
  6
ByLayer
 62
7
 48
1.0
 60
0
370
-1
100
AcDbLine
 10
17.8616981506348
 20
1.22598159313202
 30
0.0
 11
18.0899219512939
 21
1.19617533683777
 31
0.0
 39
0.0
210
0.0
220
0.0
230
1.0
  0
LINE
  5
14C
330
40
100
AcDbEntity
  8
RIGHT
  6
ByLayer
 62
7
 48
1.0
 60
0
370
-1
100
AcDbLine
 10
18.0899219512939
 20
1.19617533683777
 30
0.0
 11
18.3181457519531
 21
1.15484941005707
 31
0.0
 39
0.0
210
0.0
220
0.0
230
1.0
  0
LINE
  5
14D
330
40
100
AcDbEntity
  8
RIGHT
  6
ByLayer
 62
7
 48
1.0
 60
0
370
-1
100
AcDbLine
 10
18.3181457519531
 20
1.15484941005707
 30
0.0
 11
18.5463695526123
 21
1.10240149497986
 31
0.0
 39
0.0
210
0.0
220
0.0
230
1.0
  0
LINE
  5
14E
330
40
100
AcDbEntity
  8
RIGHT
  6
ByLayer
 62
7
 48
1.0
 60
0
370
-1
100
AcDbLine
 10
18.5463695526123
 20
1.10240149497986
 30
0.0
 11
18.7745933532715
 21
1.03933691978455
 31
0.0
 39
0.0
210
0.0
220
0.0
230
1.0
  0
LINE
  5
14F
330
40
100
AcDbEntity
  8
RIGHT
  6
ByLayer
 62
7
 48
1.0
 60
0
370
-1
100
AcDbLine
 10
18.7745933532715
 20
1.03933691978455
 30
0.0
 11
19.0028171539307
 21
0.966262996196747
 31
0.0
 39
0.0
210
0.0
220
0.0
230
1.0
  0
LINE
  5
150
330
40
100
AcDbEntity
  8
RIGHT
  6
ByLayer
 62
7
 48
1.0
 60
0
370
-1
100
AcDbLine
 10
19.0028171539307
 20
0.966262996196747
 30
0.0
 11
19.2310409545898
 21
0.883883416652679
 31
0.0
 39
0.0
210
0.0
220
0.0
230
1.0
  0
LINE
  5
151
330
40
100
AcDbEntity
  8
RIGHT
  6
ByLayer
 62
7
 48
1.0
 60
0
370
-1
100
AcDbLine
 10
19.2310409545898
 20
0.883883416652679
 30
0.0
 11
19.459264755249
 21
0.792991518974304
 31
0.0
 39
0.0
210
0.0
220
0.0
230
1.0
  0
LINE
  5
152
330
40
100
AcDbEntity
  8
RIGHT
  6
ByLayer
 62
7
 48
1.0
 60
0
370
-1
100
AcDbLine
 10
19.459264755249
 20
0.792991518974304
 30
0.0
 11
19.6874885559082
 21
0.694462716579437
 31
0.0
 39
0.0
210
0.0
220
0.0
230
1.0
  0
LINE
  5
153
330
40
100
AcDbEntity
  8
RIGHT
  6
ByLayer
 62
7
 48
1.0
 60
0
370
-1
100
AcDbLine
 10
19.6874885559082
 20
0.694462716579437
 30
0.0
 11
19.9157123565674
 21
0.589245855808258
 31
0.0
 39
0.0
210
0.0
220
0.0
230
1.0
  0
LINE
  5
154
330
40
100
AcDbEntity
  8
RIGHT
  6
ByLayer
 62
7
 48
1.0
 60
0
370
-1
100
AcDbLine
 10
19.9157123565674
 20
0.589245855808258
 30
0.0
 11
20.1439361572266
 21
0.478354185819626
 31
0.0
 39
0.0
210
0.0
220
0.0
230
1.0
  0
LINE
  5
155
330
40
100
AcDbEntity
  8
RIGHT
  6
ByLayer
 62
7
 48
1.0
 60
0
370
-1
100
AcDbLine
 10
20.1439361572266
 20
0.478354185819626
 30
0.0
 11
20.3721599578857
 21
0.362855732440948
 31
0.0
 39
0.0
210
0.0
220
0.0
230
1.0
  0
LINE
  5
156
330
40
100
AcDbEntity
  8
RIGHT
  6
ByLayer
 62
7
 48
1.0
 60
0
370
-1
100
AcDbLine
 10
20.3721599578857
 20
0.362855732440948
 30
0.0
 11
20.6003837585449
 21
0.24386277794838
 31
0.0
 39
0.0
210
0.0
220
0.0
230
1.0
  0
LINE
  5
157
330
40
100
AcDbEntity
  8
RIGHT
  6
ByLayer
 62
7
 48
1.0
 60
0
370
-1
100
AcDbLine
 10
20.6003837585449
 20
0.24386277794838
 30
0.0
 11
20.8286075592041
 21
0.122521296143532
 31
0.0
 39
0.0
210
0.0
220
0.0
230
1.0
  0
LINE
  5
158
330
40
100
AcDbEntity
  8
RIGHT
  6
ByLayer
 62
7
 48
1.0
 60
0
370
-1
100
AcDbLine
 10
20.8286075592041
 20
0.122521296143532
 30
0.0
 11
21.0568313598633
 21
-0.0000001303851604
 31
0.0
 39
0.0
210
0.0
220
0.0
230
1.0
  0
LINE
  5
159
330
40
100
AcDbEntity
  8
RIGHT
  6
ByLayer
 62
7
 48
1.0
 60
0
370
-1
100
AcDbLine
 10
21.0568313598633
 20
-0.0000001303851604
 30
0.0
 11
21.2850551605225
 21
-0.122521556913853
 31
0.0
 39
0.0
210
0.0
220
0.0
230
1.0
  0
LINE
  5
15A
330
40
100
AcDbEntity
  8
RIGHT
  6
ByLayer
 62
7
 48
1.0
 60
0
370
-1
100
AcDbLine
 10
21.2850551605225
 20
-0.122521556913853
 30
0.0
 11
21.5132789611816
 21
-0.24386303126812
 31
0.0
 39
0.0
210
0.0
220
0.0
230
1.0
  0
LINE
  5
15B
330
40
100
AcDbEntity
  8
RIGHT
  6
ByLayer
 62
7
 48
1.0
 60
0
370
-1
100
AcDbLine
 10
21.5132789611816
 20
-0.24386303126812
 30
0.0
 11
21.7415027618408
 21
-0.36285600066185
 31
0.0
 39
0.0
210
0.0
220
0.0
230
1.0
  0
LINE
  5
15C
330
40
100
AcDbEntity
  8
RIGHT
  6
ByLayer
 62
7
 48
1.0
 60
0
370
-1
100
AcDbLine
 10
21.7415027618408
 20
-0.36285600066185
 30
0.0
 11
21.9697265625
 21
-0.478354454040527
 31
0.0
 39
0.0
210
0.0
220
0.0
230
1.0
  0
LINE
  5
15D
330
40
100
AcDbEntity
  8
RIGHT
  6
ByLayer
 62
7
 48
1.0
 60
0
370
-1
100
AcDbLine
 10
21.9697265625
 20
-0.478354454040527
 30
0.0
 11
22.1979503631592
 21
-0.589246094226837
 31
0.0
 39
0.0
210
0.0
220
0.0
230
1.0
  0
LINE
  5
15E
330
40
100
AcDbEntity
  8
RIGHT
  6
ByLayer
 62
7
 48
1.0
 60
0
370
-1
100
AcDbLine
 10
22.1979503631592
 20
-0.589246094226837
 30
0.0
 11
22.4261741638184
 21
-0.694462895393372
 31
0.0
 39
0.0
210
0.0
220
0.0
230
1.0
  0
LINE
  5
15F
330
40
100
AcDbEntity
  8
RIGHT
  6
ByLayer
 62
7
 48
1.0
 60
0
370
-1
100
AcDbLine
 10
22.4261741638184
 20
-0.694462895393372
 30
0.0
 11
22.6543979644775
 21
-0.792991697788239
 31
0.0
 39
0.0
210
0.0
220
0.0
230
1.0
  0
LINE
  5
160
330
40
100
AcDbEntity
  8
RIGHT
  6
ByLayer
 62
7
 48
1.0
 60
0
370
-1
100
AcDbLine
 10
22.6543979644775
 20
-0.792991697788239
 30
0.0
 11
22.8826217651367
 21
-0.883883535861969
 31
0.0
 39
0.0
210
0.0
220
0.0
230
1.0
  0
LINE
  5
161
330
40
100
AcDbEntity
  8
RIGHT
  6
ByLayer
 62
7
 48
1.0
 60
0
370
-1
100
AcDbLine
 10
22.8826217651367
 20
-0.883883535861969
 30
0.0
 11
23.1108455657959
 21
-0.966263115406036
 31
0.0
 39
0.0
210
0.0
220
0.0
230
1.0
  0
LINE
  5
162
330
40
100
AcDbEntity
  8
RIGHT
  6
ByLayer
 62
7
 48
1.0
 60
0
370
-1
100
AcDbLine
 10
23.1108455657959
 20
-0.966263115406036
 30
0.0
 11
23.3390693664551
 21
-1.03933703899384
 31
0.0
 39
0.0
210
0.0
220
0.0
230
1.0
  0
LINE
  5
163
330
40
100
AcDbEntity
  8
RIGHT
  6
ByLayer
 62
7
 48
1.0
 60
0
370
-1
100
AcDbLine
 10
23.3390693664551
 20
-1.03933703899384
 30
0.0
 11
23.5672931671143
 21
-1.10240161418915
 31
0.0
 39
0.0
210
0.0
220
0.0
230
1.0
  0
LINE
  5
164
330
40
100
AcDbEntity
  8
RIGHT
  6
ByLayer
 62
7
 48
1.0
 60
0
370
-1
100
AcDbLine
 10
23.5672931671143
 20
-1.10240161418915
 30
0.0
 11
23.7955169677734
 21
-1.15484952926636
 31
0.0
 39
0.0
210
0.0
220
0.0
230
1.0
  0
LINE
  5
165
330
40
100
AcDbEntity
  8
RIGHT
  6
ByLayer
 62
7
 48
1.0
 60
0
370
-1
100
AcDbLine
 10
20.1439418792725
 20
1.25
 30
0.0
 11
20.3721656799316
 21
1.243980884552
 31
0.0
 39
0.0
210
0.0
220
0.0
230
1.0
  0
LINE
  5
166
330
40
100
AcDbEntity
  8
RIGHT
  6
ByLayer
 62
7
 48
1.0
 60
0
370
-1
100
AcDbLine
 10
20.3721656799316
 20
1.243980884552
 30
0.0
 11
20.6003894805908
 21
1.22598159313202
 31
0.0
 39
0.0
210
0.0
220
0.0
230
1.0
  0
LINE
  5
167
330
40
100
AcDbEntity
  8
RIGHT
  6
ByLayer
 62
7
 48
1.0
 60
0
370
-1
100
AcDbLine
 10
20.6003894805908
 20
1.22598159313202
 30
0.0
 11
20.82861328125
 21
1.19617533683777
 31
0.0
 39
0.0
210
0.0
220
0.0
230
1.0
  0
LINE
  5
168
330
40
100
AcDbEntity
  8
RIGHT
  6
ByLayer
 62
7
 48
1.0
 60
0
370
-1
100
AcDbLine
 10
20.82861328125
 20
1.19617533683777
 30
0.0
 11
21.0568370819092
 21
1.15484941005707
 31
0.0
 39
0.0
210
0.0
220
0.0
230
1.0
  0
LINE
  5
169
330
40
100
AcDbEntity
  8
RIGHT
  6
ByLayer
 62
7
 48
1.0
 60
0
370
-1
100
AcDbLine
 10
21.0568370819092
 20
1.15484941005707
 30
0.0
 11
21.2850608825684
 21
1.10240149497986
 31
0.0
 39
0.0
210
0.0
220
0.0
230
1.0
  0
LINE
  5
16A
330
40
100
AcDbEntity
  8
RIGHT
  6
ByLayer
 62
7
 48
1.0
 60
0
370
-1
100
AcDbLine
 10
21.2850608825684
 20
1.10240149497986
 30
0.0
 11
21.5132846832275
 21
1.03933691978455
 31
0.0
 39
0.0
210
0.0
220
0.0
230
1.0
  0
LINE
  5
16B
330
40
100
AcDbEntity
  8
RIGHT
  6
ByLayer
 62
7
 48
1.0
 60
0
370
-1
100
AcDbLine
 10
21.5132846832275
 20
1.03933691978455
 30
0.0
 11
21.7415084838867
 21
0.966262996196747
 31
0.0
 39
0.0
210
0.0
220
0.0
230
1.0
  0
LINE
  5
16C
330
40
100
AcDbEntity
  8
RIGHT
  6
ByLayer
 62
7
 48
1.0
 60
0
370
-1
100
AcDbLine
 10
21.7415084838867
 20
0.966262996196747
 30
0.0
 11
21.9697322845459
 21
0.883883416652679
 31
0.0
 39
0.0
210
0.0
220
0.0
230
1.0
  0
LINE
  5
16D
330
40
100
AcDbEntity
  8
RIGHT
  6
ByLayer
 62
7
 48
1.0
 60
0
370
-1
100
AcDbLine
 10
21.9697322845459
 20
0.883883416652679
 30
0.0
 11
22.1979560852051
 21
0.792991518974304
 31
0.0
 39
0.0
210
0.0
220
0.0
230
1.0
  0
LINE
  5
16E
330
40
100
AcDbEntity
  8
RIGHT
  6
ByLayer
 62
7
 48
1.0
 60
0
370
-1
100
AcDbLine
 10
22.1979560852051
 20
0.792991518974304
 30
0.0
 11
22.4261798858643
 21
0.694462716579437
 31
0.0
 39
0.0
210
0.0
220
0.0
230
1.0
  0
LINE
  5
16F
330
40
100
AcDbEntity
  8
RIGHT
  6
ByLayer
 62
7
 48
1.0
 60
0
370
-1
100
AcDbLine
 10
22.4261798858643
 20
0.694462716579437
 30
0.0
 11
22.6544036865234
 21
0.589245855808258
 31
0.0
 39
0.0
210
0.0
220
0.0
230
1.0
  0
LINE
  5
170
330
40
100
AcDbEntity
  8
RIGHT
  6
ByLayer
 62
7
 48
1.0
 60
0
370
-1
100
AcDbLine
 10
22.6544036865234
 20
0.589245855808258
 30
0.0
 11
22.8826274871826
 21
0.478354185819626
 31
0.0
 39
0.0
210
0.0
220
0.0
230
1.0
  0
LINE
  5
171
330
40
100
AcDbEntity
  8
RIGHT
  6
ByLayer
 62
7
 48
1.0
 60
0
370
-1
100
AcDbLine
 10
22.8826274871826
 20
0.478354185819626
 30
0.0
 11
23.1108512878418
 21
0.362855732440948
 31
0.0
 39
0.0
210
0.0
220
0.0
230
1.0
  0
LINE
  5
172
330
40
100
AcDbEntity
  8
RIGHT
  6
ByLayer
 62
7
 48
1.0
 60
0
370
-1
100
AcDbLine
 10
23.1108512878418
 20
0.362855732440948
 30
0.0
 11
23.339075088501
 21
0.24386277794838
 31
0.0
 39
0.0
210
0.0
220
0.0
230
1.0
  0
LINE
  5
173
330
40
100
AcDbEntity
  8
RIGHT
  6
ByLayer
 62
7
 48
1.0
 60
0
370
-1
100
AcDbLine
 10
23.339075088501
 20
0.24386277794838
 30
0.0
 11
23.5672988891602
 21
0.122521296143532
 31
0.0
 39
0.0
210
0.0
220
0.0
230
1.0
  0
LINE
  5
174
330
40
100
AcDbEntity
  8
RIGHT
  6
ByLayer
 62
7
 48
1.0
 60
0
370
-1
100
AcDbLine
 10
23.5672988891602
 20
0.122521296143532
 30
0.0
 11
23.7955226898193
 21
-0.0000001303851604
 31
0.0
 39
0.0
210
0.0
220
0.0
230
1.0
  0
LINE
  5
175
330
40
100
AcDbEntity
  8
RIGHT
  6
ByLayer
 62
7
 48
1.0
 60
0
370
-1
100
AcDbLine
 10
21.9697380065918
 20
0.883883476257324
 30
0.0
 11
22.197961807251
 21
0.966263055801392
 31
0.0
 39
0.0
210
0.0
220
0.0
230
1.0
  0
LINE
  5
176
330
40
100
AcDbEntity
  8
RIGHT
  6
ByLayer
 62
7
 48
1.0
 60
0
370
-1
100
AcDbLine
 10
22.197961807251
 20
0.966263055801392
 30
0.0
 11
22.4261856079102
 21
1.03933703899384
 31
0.0
 39
0.0
210
0.0
220
0.0
230
1.0
  0
LINE
  5
177
330
40
100
AcDbEntity
  8
RIGHT
  6
ByLayer
 62
7
 48
1.0
 60
0
370
-1
100
AcDbLine
 10
22.4261856079102
 20
1.03933703899384
 30
0.0
 11
22.6544094085693
 21
1.10240161418915
 31
0.0
 39
0.0
210
0.0
220
0.0
230
1.0
  0
LINE
  5
178
330
40
100
AcDbEntity
  8
RIGHT
  6
ByLayer
 62
7
 48
1.0
 60
0
370
-1
100
AcDbLine
 10
22.6544094085693
 20
1.10240161418915
 30
0.0
 11
22.8826332092285
 21
1.15484941005707
 31
0.0
 39
0.0
210
0.0
220
0.0
230
1.0
  0
LINE
  5
179
330
40
100
AcDbEntity
  8
RIGHT
  6
ByLayer
 62
7
 48
1.0
 60
0
370
-1
100
AcDbLine
 10
22.8826332092285
 20
1.15484941005707
 30
0.0
 11
23.1108570098877
 21
1.19617545604706
 31
0.0
 39
0.0
210
0.0
220
0.0
230
1.0
  0
LINE
  5
17A
330
40
100
AcDbEntity
  8
RIGHT
  6
ByLayer
 62
7
 48
1.0
 60
0
370
-1
100
AcDbLine
 10
23.1108570098877
 20
1.19617545604706
 30
0.0
 11
23.3390808105469
 21
1.22598159313202
 31
0.0
 39
0.0
210
0.0
220
0.0
230
1.0
  0
LINE
  5
17B
330
40
100
AcDbEntity
  8
RIGHT
  6
ByLayer
 62
7
 48
1.0
 60
0
370
-1
100
AcDbLine
 10
23.3390808105469
 20
1.22598159313202
 30
0.0
 11
23.5673046112061
 21
1.243980884552
 31
0.0
 39
0.0
210
0.0
220
0.0
230
1.0
  0
LINE
  5
17C
330
40
100
AcDbEntity
  8
RIGHT
  6
ByLayer
 62
7
 48
1.0
 60
0
370
-1
100
AcDbLine
 10
23.5673046112061
 20
1.243980884552
 30
0.0
 11
23.7955284118652
 21
1.25
 31
0.0
 39
0.0
210
0.0
220
0.0
230
1.0
  0
LINE
  5
17D
330
40
100
AcDbEntity
  8
RIGHT
  6
ByLayer
 62
7
 48
1.0
 60
0
370
-1
100
AcDbLine
 10
20.1439418792725
 20
-1.25
 30
0.0
 11
20.3721656799316
 21
-1.243980884552
 31
0.0
 39
0.0
210
0.0
220
0.0
230
1.0
  0
LINE
  5
17E
330
40
100
AcDbEntity
  8
RIGHT
  6
ByLayer
 62
7
 48
1.0
 60
0
370
-1
100
AcDbLine
 10
20.3721656799316
 20
-1.243980884552
 30
0.0
 11
20.6003894805908
 21
-1.22598159313202
 31
0.0
 39
0.0
210
0.0
220
0.0
230
1.0
  0
LINE
  5
17F
330
40
100
AcDbEntity
  8
RIGHT
  6
ByLayer
 62
7
 48
1.0
 60
0
370
-1
100
AcDbLine
 10
20.6003894805908
 20
-1.22598159313202
 30
0.0
 11
20.82861328125
 21
-1.19617533683777
 31
0.0
 39
0.0
210
0.0
220
0.0
230
1.0
  0
LINE
  5
180
330
40
100
AcDbEntity
  8
RIGHT
  6
ByLayer
 62
7
 48
1.0
 60
0
370
-1
100
AcDbLine
 10
20.82861328125
 20
-1.19617533683777
 30
0.0
 11
21.0568370819092
 21
-1.15484941005707
 31
0.0
 39
0.0
210
0.0
220
0.0
230
1.0
  0
LINE
  5
181
330
40
100
AcDbEntity
  8
RIGHT
  6
ByLayer
 62
7
 48
1.0
 60
0
370
-1
100
AcDbLine
 10
21.0568370819092
 20
-1.15484941005707
 30
0.0
 11
21.2850608825684
 21
-1.10240149497986
 31
0.0
 39
0.0
210
0.0
220
0.0
230
1.0
  0
LINE
  5
182
330
40
100
AcDbEntity
  8
RIGHT
  6
ByLayer
 62
7
 48
1.0
 60
0
370
-1
100
AcDbLine
 10
21.2850608825684
 20
-1.10240149497986
 30
0.0
 11
21.5132846832275
 21
-1.03933691978455
 31
0.0
 39
0.0
210
0.0
220
0.0
230
1.0
  0
LINE
  5
183
330
40
100
AcDbEntity
  8
RIGHT
  6
ByLayer
 62
7
 48
1.0
 60
0
370
-1
100
AcDbLine
 10
21.5132846832275
 20
-1.03933691978455
 30
0.0
 11
21.7415084838867
 21
-0.966262996196747
 31
0.0
 39
0.0
210
0.0
220
0.0
230
1.0
  0
LINE
  5
184
330
40
100
AcDbEntity
  8
RIGHT
  6
ByLayer
 62
7
 48
1.0
 60
0
370
-1
100
AcDbLine
 10
21.7415084838867
 20
-0.966262996196747
 30
0.0
 11
21.9697322845459
 21
-0.883883416652679
 31
0.0
 39
0.0
210
0.0
220
0.0
230
1.0
  0
LINE
  5
185
330
40
100
AcDbEntity
  8
RIGHT
  6
ByLayer
 62
7
 48
1.0
 60
0
370
-1
100
AcDbLine
 10
16.4923534393311
 20
1.25
 30
0.0
 11
20.1439418792725
 21
1.25
 31
0.0
 39
0.0
210
0.0
220
0.0
230
1.0
  0
LINE
  5
186
330
40
100
AcDbEntity
  8
RIGHT
  6
ByLayer
 62
7
 48
1.0
 60
0
370
-1
100
AcDbLine
 10
16.4923534393311
 20
-1.25
 30
0.0
 11
20.1439418792725
 21
-1.25
 31
0.0
 39
0.0
210
0.0
220
0.0
230
1.0
  0
LINE
  5
187
330
40
100
AcDbEntity
  8
RIGHT
  6
ByLayer
 62
7
 48
1.0
 60
0
370
-1
100
AcDbLine
 10
23.7955322265625
 20
-0.0000000546392336
 30
0.0
 11
24.0237560272217
 21
-0.122521482408047
 31
0.0
 39
0.0
210
0.0
220
0.0
230
1.0
  0
LINE
  5
188
330
40
100
AcDbEntity
  8
RIGHT
  6
ByLayer
 62
7
 48
1.0
 60
0
370
-1
100
AcDbLine
 10
24.0237560272217
 20
-0.122521482408047
 30
0.0
 11
24.2519798278809
 21
-0.243862956762314
 31
0.0
 39
0.0
210
0.0
220
0.0
230
1.0
  0
LINE
  5
189
330
40
100
AcDbEntity
  8
RIGHT
  6
ByLayer
 62
7
 48
1.0
 60
0
370
-1
100
AcDbLine
 10
24.2519798278809
 20
-0.243862956762314
 30
0.0
 11
24.48020362854
 21
-0.362855911254883
 31
0.0
 39
0.0
210
0.0
220
0.0
230
1.0
  0
LINE
  5
18A
330
40
100
AcDbEntity
  8
RIGHT
  6
ByLayer
 62
7
 48
1.0
 60
0
370
-1
100
AcDbLine
 10
24.48020362854
 20
-0.362855911254883
 30
0.0
 11
24.7084274291992
 21
-0.47835436463356
 31
0.0
 39
0.0
210
0.0
220
0.0
230
1.0
  0
LINE
  5
18B
330
40
100
AcDbEntity
  8
RIGHT
  6
ByLayer
 62
7
 48
1.0
 60
0
370
-1
100
AcDbLine
 10
24.7084274291992
 20
-0.47835436463356
 30
0.0
 11
24.9366512298584
 21
-0.589246034622192
 31
0.0
 39
0.0
210
0.0
220
0.0
230
1.0
  0
LINE
  5
18C
330
40
100
AcDbEntity
  8
RIGHT
  6
ByLayer
 62
7
 48
1.0
 60
0
370
-1
100
AcDbLine
 10
24.9366512298584
 20
-0.589246034622192
 30
0.0
 11
25.1648750305176
 21
-0.694462835788727
 31
0.0
 39
0.0
210
0.0
220
0.0
230
1.0
  0
LINE
  5
18D
330
40
100
AcDbEntity
  8
RIGHT
  6
ByLayer
 62
7
 48
1.0
 60
0
370
-1
100
AcDbLine
 10
25.1648750305176
 20
-0.694462835788727
 30
0.0
 11
25.3930988311768
 21
-0.792991638183594
 31
0.0
 39
0.0
210
0.0
220
0.0
230
1.0
  0
LINE
  5
18E
330
40
100
AcDbEntity
  8
RIGHT
  6
ByLayer
 62
7
 48
1.0
 60
0
370
-1
100
AcDbLine
 10
25.3930988311768
 20
-0.792991638183594
 30
0.0
 11
25.6213226318359
 21
-0.883883476257324
 31
0.0
 39
0.0
210
0.0
220
0.0
230
1.0
  0
LINE
  5
18F
330
40
100
AcDbEntity
  8
RIGHT
  6
ByLayer
 62
7
 48
1.0
 60
0
370
-1
100
AcDbLine
 10
25.6213226318359
 20
-0.883883476257324
 30
0.0
 11
25.8495464324951
 21
-0.966263055801392
 31
0.0
 39
0.0
210
0.0
220
0.0
230
1.0
  0
LINE
  5
190
330
40
100
AcDbEntity
  8
RIGHT
  6
ByLayer
 62
7
 48
1.0
 60
0
370
-1
100
AcDbLine
 10
25.8495464324951
 20
-0.966263055801392
 30
0.0
 11
26.0777702331543
 21
-1.03933703899384
 31
0.0
 39
0.0
210
0.0
220
0.0
230
1.0
  0
LINE
  5
191
330
40
100
AcDbEntity
  8
RIGHT
  6
ByLayer
 62
7
 48
1.0
 60
0
370
-1
100
AcDbLine
 10
26.0777702331543
 20
-1.03933703899384
 30
0.0
 11
26.3059940338135
 21
-1.10240161418915
 31
0.0
 39
0.0
210
0.0
220
0.0
230
1.0
  0
LINE
  5
192
330
40
100
AcDbEntity
  8
RIGHT
  6
ByLayer
 62
7
 48
1.0
 60
0
370
-1
100
AcDbLine
 10
26.3059940338135
 20
-1.10240161418915
 30
0.0
 11
26.5342178344727
 21
-1.15484941005707
 31
0.0
 39
0.0
210
0.0
220
0.0
230
1.0
  0
LINE
  5
193
330
40
100
AcDbEntity
  8
RIGHT
  6
ByLayer
 62
7
 48
1.0
 60
0
370
-1
100
AcDbLine
 10
26.5342178344727
 20
-1.15484941005707
 30
0.0
 11
26.7624416351318
 21
-1.19617545604706
 31
0.0
 39
0.0
210
0.0
220
0.0
230
1.0
  0
LINE
  5
194
330
40
100
AcDbEntity
  8
RIGHT
  6
ByLayer
 62
7
 48
1.0
 60
0
370
-1
100
AcDbLine
 10
26.7624416351318
 20
-1.19617545604706
 30
0.0
 11
26.990665435791
 21
-1.22598159313202
 31
0.0
 39
0.0
210
0.0
220
0.0
230
1.0
  0
LINE
  5
195
330
40
100
AcDbEntity
  8
RIGHT
  6
ByLayer
 62
7
 48
1.0
 60
0
370
-1
100
AcDbLine
 10
26.990665435791
 20
-1.22598159313202
 30
0.0
 11
27.2188892364502
 21
-1.243980884552
 31
0.0
 39
0.0
210
0.0
220
0.0
230
1.0
  0
LINE
  5
196
330
40
100
AcDbEntity
  8
RIGHT
  6
ByLayer
 62
7
 48
1.0
 60
0
370
-1
100
AcDbLine
 10
27.2188892364502
 20
-1.243980884552
 30
0.0
 11
27.4471130371094
 21
-1.25
 31
0.0
 39
0.0
210
0.0
220
0.0
230
1.0
  0
LINE
  5
197
330
40
100
AcDbEntity
  8
RIGHT
  6
ByLayer
 62
7
 48
1.0
 60
0
370
-1
100
AcDbLine
 10
23.7955322265625
 20
1.25
 30
0.0
 11
24.0237560272217
 21
1.243980884552
 31
0.0
 39
0.0
210
0.0
220
0.0
230
1.0
  0
LINE
  5
198
330
40
100
AcDbEntity
  8
RIGHT
  6
ByLayer
 62
7
 48
1.0
 60
0
370
-1
100
AcDbLine
 10
24.0237560272217
 20
1.243980884552
 30
0.0
 11
24.2519798278809
 21
1.22598159313202
 31
0.0
 39
0.0
210
0.0
220
0.0
230
1.0
  0
LINE
  5
199
330
40
100
AcDbEntity
  8
RIGHT
  6
ByLayer
 62
7
 48
1.0
 60
0
370
-1
100
AcDbLine
 10
24.2519798278809
 20
1.22598159313202
 30
0.0
 11
24.48020362854
 21
1.19617533683777
 31
0.0
 39
0.0
210
0.0
220
0.0
230
1.0
  0
LINE
  5
19A
330
40
100
AcDbEntity
  8
RIGHT
  6
ByLayer
 62
7
 48
1.0
 60
0
370
-1
100
AcDbLine
 10
24.48020362854
 20
1.19617533683777
 30
0.0
 11
24.7084274291992
 21
1.15484941005707
 31
0.0
 39
0.0
210
0.0
220
0.0
230
1.0
  0
LINE
  5
19B
330
40
100
AcDbEntity
  8
RIGHT
  6
ByLayer
 62
7
 48
1.0
 60
0
370
-1
100
AcDbLine
 10
24.7084274291992
 20
1.15484941005707
 30
0.0
 11
24.9366512298584
 21
1.10240149497986
 31
0.0
 39
0.0
210
0.0
220
0.0
230
1.0
  0
LINE
  5
19C
330
40
100
AcDbEntity
  8
RIGHT
  6
ByLayer
 62
7
 48
1.0
 60
0
370
-1
100
AcDbLine
 10
24.9366512298584
 20
1.10240149497986
 30
0.0
 11
25.1648750305176
 21
1.03933691978455
 31
0.0
 39
0.0
210
0.0
220
0.0
230
1.0
  0
LINE
  5
19D
330
40
100
AcDbEntity
  8
RIGHT
  6
ByLayer
 62
7
 48
1.0
 60
0
370
-1
100
AcDbLine
 10
25.1648750305176
 20
1.03933691978455
 30
0.0
 11
25.3930988311768
 21
0.966262996196747
 31
0.0
 39
0.0
210
0.0
220
0.0
230
1.0
  0
LINE
  5
19E
330
40
100
AcDbEntity
  8
RIGHT
  6
ByLayer
 62
7
 48
1.0
 60
0
370
-1
100
AcDbLine
 10
25.3930988311768
 20
0.966262996196747
 30
0.0
 11
25.6213226318359
 21
0.883883416652679
 31
0.0
 39
0.0
210
0.0
220
0.0
230
1.0
  0
LINE
  5
19F
330
40
100
AcDbEntity
  8
RIGHT
  6
ByLayer
 62
7
 48
1.0
 60
0
370
-1
100
AcDbLine
 10
25.6213226318359
 20
0.883883416652679
 30
0.0
 11
25.8495464324951
 21
0.792991518974304
 31
0.0
 39
0.0
210
0.0
220
0.0
230
1.0
  0
LINE
  5
1A0
330
40
100
AcDbEntity
  8
RIGHT
  6
ByLayer
 62
7
 48
1.0
 60
0
370
-1
100
AcDbLine
 10
25.8495464324951
 20
0.792991518974304
 30
0.0
 11
26.0777702331543
 21
0.694462716579437
 31
0.0
 39
0.0
210
0.0
220
0.0
230
1.0
  0
LINE
  5
1A1
330
40
100
AcDbEntity
  8
RIGHT
  6
ByLayer
 62
7
 48
1.0
 60
0
370
-1
100
AcDbLine
 10
26.0777702331543
 20
0.694462716579437
 30
0.0
 11
26.3059940338135
 21
0.589245855808258
 31
0.0
 39
0.0
210
0.0
220
0.0
230
1.0
  0
LINE
  5
1A2
330
40
100
AcDbEntity
  8
RIGHT
  6
ByLayer
 62
7
 48
1.0
 60
0
370
-1
100
AcDbLine
 10
26.3059940338135
 20
0.589245855808258
 30
0.0
 11
26.5342178344727
 21
0.478354185819626
 31
0.0
 39
0.0
210
0.0
220
0.0
230
1.0
  0
LINE
  5
1A3
330
40
100
AcDbEntity
  8
RIGHT
  6
ByLayer
 62
7
 48
1.0
 60
0
370
-1
100
AcDbLine
 10
26.5342178344727
 20
0.478354185819626
 30
0.0
 11
26.7624416351318
 21
0.362855732440948
 31
0.0
 39
0.0
210
0.0
220
0.0
230
1.0
  0
LINE
  5
1A4
330
40
100
AcDbEntity
  8
RIGHT
  6
ByLayer
 62
7
 48
1.0
 60
0
370
-1
100
AcDbLine
 10
26.7624416351318
 20
0.362855732440948
 30
0.0
 11
26.990665435791
 21
0.24386277794838
 31
0.0
 39
0.0
210
0.0
220
0.0
230
1.0
  0
LINE
  5
1A5
330
40
100
AcDbEntity
  8
RIGHT
  6
ByLayer
 62
7
 48
1.0
 60
0
370
-1
100
AcDbLine
 10
26.990665435791
 20
0.24386277794838
 30
0.0
 11
27.2188892364502
 21
0.122521296143532
 31
0.0
 39
0.0
210
0.0
220
0.0
230
1.0
  0
LINE
  5
1A6
330
40
100
AcDbEntity
  8
RIGHT
  6
ByLayer
 62
7
 48
1.0
 60
0
370
-1
100
AcDbLine
 10
27.2188892364502
 20
0.122521296143532
 30
0.0
 11
27.4471130371094
 21
-0.0000001303851604
 31
0.0
 39
0.0
210
0.0
220
0.0
230
1.0
  0
LINE
  5
1A7
330
40
100
AcDbEntity
  8
RIGHT
  6
ByLayer
 62
7
 48
1.0
 60
0
370
-1
100
AcDbLine
 10
27.4471130371094
 20
-0.0000001303851604
 30
0.0
 11
27.6753368377686
 21
-0.122521556913853
 31
0.0
 39
0.0
210
0.0
220
0.0
230
1.0
  0
LINE
  5
1A8
330
40
100
AcDbEntity
  8
RIGHT
  6
ByLayer
 62
7
 48
1.0
 60
0
370
-1
100
AcDbLine
 10
27.6753368377686
 20
-0.122521556913853
 30
0.0
 11
27.9035606384277
 21
-0.24386303126812
 31
0.0
 39
0.0
210
0.0
220
0.0
230
1.0
  0
LINE
  5
1A9
330
40
100
AcDbEntity
  8
RIGHT
  6
ByLayer
 62
7
 48
1.0
 60
0
370
-1
100
AcDbLine
 10
27.9035606384277
 20
-0.24386303126812
 30
0.0
 11
28.1317844390869
 21
-0.36285600066185
 31
0.0
 39
0.0
210
0.0
220
0.0
230
1.0
  0
LINE
  5
1AA
330
40
100
AcDbEntity
  8
RIGHT
  6
ByLayer
 62
7
 48
1.0
 60
0
370
-1
100
AcDbLine
 10
28.1317844390869
 20
-0.36285600066185
 30
0.0
 11
28.3600082397461
 21
-0.478354454040527
 31
0.0
 39
0.0
210
0.0
220
0.0
230
1.0
  0
LINE
  5
1AB
330
40
100
AcDbEntity
  8
RIGHT
  6
ByLayer
 62
7
 48
1.0
 60
0
370
-1
100
AcDbLine
 10
28.3600082397461
 20
-0.478354454040527
 30
0.0
 11
28.5882320404053
 21
-0.589246094226837
 31
0.0
 39
0.0
210
0.0
220
0.0
230
1.0
  0
LINE
  5
1AC
330
40
100
AcDbEntity
  8
RIGHT
  6
ByLayer
 62
7
 48
1.0
 60
0
370
-1
100
AcDbLine
 10
28.5882320404053
 20
-0.589246094226837
 30
0.0
 11
28.8164558410645
 21
-0.694462895393372
 31
0.0
 39
0.0
210
0.0
220
0.0
230
1.0
  0
LINE
  5
1AD
330
40
100
AcDbEntity
  8
RIGHT
  6
ByLayer
 62
7
 48
1.0
 60
0
370
-1
100
AcDbLine
 10
28.8164558410645
 20
-0.694462895393372
 30
0.0
 11
29.0446796417236
 21
-0.792991697788239
 31
0.0
 39
0.0
210
0.0
220
0.0
230
1.0
  0
LINE
  5
1AE
330
40
100
AcDbEntity
  8
RIGHT
  6
ByLayer
 62
7
 48
1.0
 60
0
370
-1
100
AcDbLine
 10
29.0446796417236
 20
-0.792991697788239
 30
0.0
 11
29.2729034423828
 21
-0.883883535861969
 31
0.0
 39
0.0
210
0.0
220
0.0
230
1.0
  0
LINE
  5
1AF
330
40
100
AcDbEntity
  8
RIGHT
  6
ByLayer
 62
7
 48
1.0
 60
0
370
-1
100
AcDbLine
 10
29.2729034423828
 20
-0.883883535861969
 30
0.0
 11
29.501127243042
 21
-0.966263115406036
 31
0.0
 39
0.0
210
0.0
220
0.0
230
1.0
  0
LINE
  5
1B0
330
40
100
AcDbEntity
  8
RIGHT
  6
ByLayer
 62
7
 48
1.0
 60
0
370
-1
100
AcDbLine
 10
29.501127243042
 20
-0.966263115406036
 30
0.0
 11
29.7293510437012
 21
-1.03933703899384
 31
0.0
 39
0.0
210
0.0
220
0.0
230
1.0
  0
LINE
  5
1B1
330
40
100
AcDbEntity
  8
RIGHT
  6
ByLayer
 62
7
 48
1.0
 60
0
370
-1
100
AcDbLine
 10
29.7293510437012
 20
-1.03933703899384
 30
0.0
 11
29.9575748443604
 21
-1.10240161418915
 31
0.0
 39
0.0
210
0.0
220
0.0
230
1.0
  0
LINE
  5
1B2
330
40
100
AcDbEntity
  8
RIGHT
  6
ByLayer
 62
7
 48
1.0
 60
0
370
-1
100
AcDbLine
 10
29.9575748443604
 20
-1.10240161418915
 30
0.0
 11
30.1857986450195
 21
-1.15484952926636
 31
0.0
 39
0.0
210
0.0
220
0.0
230
1.0
  0
LINE
  5
1B3
330
40
100
AcDbEntity
  8
RIGHT
  6
ByLayer
 62
7
 48
1.0
 60
0
370
-1
100
AcDbLine
 10
30.1857986450195
 20
-1.15484952926636
 30
0.0
 11
30.4140224456787
 21
-1.19617545604706
 31
0.0
 39
0.0
210
0.0
220
0.0
230
1.0
  0
LINE
  5
1B4
330
40
100
AcDbEntity
  8
RIGHT
  6
ByLayer
 62
7
 48
1.0
 60
0
370
-1
100
AcDbLine
 10
30.4140224456787
 20
-1.19617545604706
 30
0.0
 11
30.6422462463379
 21
-1.22598159313202
 31
0.0
 39
0.0
210
0.0
220
0.0
230
1.0
  0
LINE
  5
1B5
330
40
100
AcDbEntity
  8
RIGHT
  6
ByLayer
 62
7
 48
1.0
 60
0
370
-1
100
AcDbLine
 10
30.6422462463379
 20
-1.22598159313202
 30
0.0
 11
30.8704700469971
 21
-1.243980884552
 31
0.0
 39
0.0
210
0.0
220
0.0
230
1.0
  0
LINE
  5
1B6
330
40
100
AcDbEntity
  8
RIGHT
  6
ByLayer
 62
7
 48
1.0
 60
0
370
-1
100
AcDbLine
 10
30.8704700469971
 20
-1.243980884552
 30
0.0
 11
31.0986938476562
 21
-1.25
 31
0.0
 39
0.0
210
0.0
220
0.0
230
1.0
  0
LINE
  5
1B7
330
40
100
AcDbEntity
  8
RIGHT
  6
ByLayer
 62
7
 48
1.0
 60
0
370
-1
100
AcDbLine
 10
24.7084293365479
 20
1.25
 30
0.0
 11
24.936653137207
 21
1.243980884552
 31
0.0
 39
0.0
210
0.0
220
0.0
230
1.0
  0
LINE
  5
1B8
330
40
100
AcDbEntity
  8
RIGHT
  6
ByLayer
 62
7
 48
1.0
 60
0
370
-1
100
AcDbLine
 10
24.936653137207
 20
1.243980884552
 30
0.0
 11
25.1648769378662
 21
1.22598159313202
 31
0.0
 39
0.0
210
0.0
220
0.0
230
1.0
  0
LINE
  5
1B9
330
40
100
AcDbEntity
  8
RIGHT
  6
ByLayer
 62
7
 48
1.0
 60
0
370
-1
100
AcDbLine
 10
25.1648769378662
 20
1.22598159313202
 30
0.0
 11
25.3931007385254
 21
1.19617533683777
 31
0.0
 39
0.0
210
0.0
220
0.0
230
1.0
  0
LINE
  5
1BA
330
40
100
AcDbEntity
  8
RIGHT
  6
ByLayer
 62
7
 48
1.0
 60
0
370
-1
100
AcDbLine
 10
25.3931007385254
 20
1.19617533683777
 30
0.0
 11
25.6213245391846
 21
1.15484941005707
 31
0.0
 39
0.0
210
0.0
220
0.0
230
1.0
  0
LINE
  5
1BB
330
40
100
AcDbEntity
  8
RIGHT
  6
ByLayer
 62
7
 48
1.0
 60
0
370
-1
100
AcDbLine
 10
25.6213245391846
 20
1.15484941005707
 30
0.0
 11
25.8495483398438
 21
1.10240149497986
 31
0.0
 39
0.0
210
0.0
220
0.0
230
1.0
  0
LINE
  5
1BC
330
40
100
AcDbEntity
  8
RIGHT
  6
ByLayer
 62
7
 48
1.0
 60
0
370
-1
100
AcDbLine
 10
25.8495483398438
 20
1.10240149497986
 30
0.0
 11
26.0777721405029
 21
1.03933691978455
 31
0.0
 39
0.0
210
0.0
220
0.0
230
1.0
  0
LINE
  5
1BD
330
40
100
AcDbEntity
  8
RIGHT
  6
ByLayer
 62
7
 48
1.0
 60
0
370
-1
100
AcDbLine
 10
26.0777721405029
 20
1.03933691978455
 30
0.0
 11
26.3059959411621
 21
0.966262996196747
 31
0.0
 39
0.0
210
0.0
220
0.0
230
1.0
  0
LINE
  5
1BE
330
40
100
AcDbEntity
  8
RIGHT
  6
ByLayer
 62
7
 48
1.0
 60
0
370
-1
100
AcDbLine
 10
26.3059959411621
 20
0.966262996196747
 30
0.0
 11
26.5342197418213
 21
0.883883416652679
 31
0.0
 39
0.0
210
0.0
220
0.0
230
1.0
  0
LINE
  5
1BF
330
40
100
AcDbEntity
  8
RIGHT
  6
ByLayer
 62
7
 48
1.0
 60
0
370
-1
100
AcDbLine
 10
26.5342197418213
 20
0.883883416652679
 30
0.0
 11
26.7624435424805
 21
0.792991518974304
 31
0.0
 39
0.0
210
0.0
220
0.0
230
1.0
  0
LINE
  5
1C0
330
40
100
AcDbEntity
  8
RIGHT
  6
ByLayer
 62
7
 48
1.0
 60
0
370
-1
100
AcDbLine
 10
26.7624435424805
 20
0.792991518974304
 30
0.0
 11
26.9906673431396
 21
0.694462716579437
 31
0.0
 39
0.0
210
0.0
220
0.0
230
1.0
  0
LINE
  5
1C1
330
40
100
AcDbEntity
  8
RIGHT
  6
ByLayer
 62
7
 48
1.0
 60
0
370
-1
100
AcDbLine
 10
26.9906673431396
 20
0.694462716579437
 30
0.0
 11
27.2188911437988
 21
0.589245855808258
 31
0.0
 39
0.0
210
0.0
220
0.0
230
1.0
  0
LINE
  5
1C2
330
40
100
AcDbEntity
  8
RIGHT
  6
ByLayer
 62
7
 48
1.0
 60
0
370
-1
100
AcDbLine
 10
27.2188911437988
 20
0.589245855808258
 30
0.0
 11
27.447114944458
 21
0.478354185819626
 31
0.0
 39
0.0
210
0.0
220
0.0
230
1.0
  0
LINE
  5
1C3
330
40
100
AcDbEntity
  8
RIGHT
  6
ByLayer
 62
7
 48
1.0
 60
0
370
-1
100
AcDbLine
 10
27.447114944458
 20
0.478354185819626
 30
0.0
 11
27.6753387451172
 21
0.362855732440948
 31
0.0
 39
0.0
210
0.0
220
0.0
230
1.0
  0
LINE
  5
1C4
330
40
100
AcDbEntity
  8
RIGHT
  6
ByLayer
 62
7
 48
1.0
 60
0
370
-1
100
AcDbLine
 10
27.6753387451172
 20
0.362855732440948
 30
0.0
 11
27.9035625457764
 21
0.24386277794838
 31
0.0
 39
0.0
210
0.0
220
0.0
230
1.0
  0
LINE
  5
1C5
330
40
100
AcDbEntity
  8
RIGHT
  6
ByLayer
 62
7
 48
1.0
 60
0
370
-1
100
AcDbLine
 10
27.9035625457764
 20
0.24386277794838
 30
0.0
 11
28.1317863464355
 21
0.122521296143532
 31
0.0
 39
0.0
210
0.0
220
0.0
230
1.0
  0
LINE
  5
1C6
330
40
100
AcDbEntity
  8
RIGHT
  6
ByLayer
 62
7
 48
1.0
 60
0
370
-1
100
AcDbLine
 10
28.1317863464355
 20
0.122521296143532
 30
0.0
 11
28.3600101470947
 21
-0.0000001303851604
 31
0.0
 39
0.0
210
0.0
220
0.0
230
1.0
  0
LINE
  5
1C7
330
40
100
AcDbEntity
  8
RIGHT
  6
ByLayer
 62
7
 48
1.0
 60
0
370
-1
100
AcDbLine
 10
28.3600101470947
 20
-0.0000001303851604
 30
0.0
 11
28.5882339477539
 21
-0.122521556913853
 31
0.0
 39
0.0
210
0.0
220
0.0
230
1.0
  0
LINE
  5
1C8
330
40
100
AcDbEntity
  8
RIGHT
  6
ByLayer
 62
7
 48
1.0
 60
0
370
-1
100
AcDbLine
 10
28.5882339477539
 20
-0.122521556913853
 30
0.0
 11
28.8164577484131
 21
-0.24386303126812
 31
0.0
 39
0.0
210
0.0
220
0.0
230
1.0
  0
LINE
  5
1C9
330
40
100
AcDbEntity
  8
RIGHT
  6
ByLayer
 62
7
 48
1.0
 60
0
370
-1
100
AcDbLine
 10
28.8164577484131
 20
-0.24386303126812
 30
0.0
 11
29.0446815490723
 21
-0.36285600066185
 31
0.0
 39
0.0
210
0.0
220
0.0
230
1.0
  0
LINE
  5
1CA
330
40
100
AcDbEntity
  8
RIGHT
  6
ByLayer
 62
7
 48
1.0
 60
0
370
-1
100
AcDbLine
 10
29.0446815490723
 20
-0.36285600066185
 30
0.0
 11
29.2729053497314
 21
-0.478354454040527
 31
0.0
 39
0.0
210
0.0
220
0.0
230
1.0
  0
LINE
  5
1CB
330
40
100
AcDbEntity
  8
RIGHT
  6
ByLayer
 62
7
 48
1.0
 60
0
370
-1
100
AcDbLine
 10
29.2729053497314
 20
-0.478354454040527
 30
0.0
 11
29.5011291503906
 21
-0.589246094226837
 31
0.0
 39
0.0
210
0.0
220
0.0
230
1.0
  0
LINE
  5
1CC
330
40
100
AcDbEntity
  8
RIGHT
  6
ByLayer
 62
7
 48
1.0
 60
0
370
-1
100
AcDbLine
 10
29.5011291503906
 20
-0.589246094226837
 30
0.0
 11
29.7293529510498
 21
-0.694462895393372
 31
0.0
 39
0.0
210
0.0
220
0.0
230
1.0
  0
LINE
  5
1CD
330
40
100
AcDbEntity
  8
RIGHT
  6
ByLayer
 62
7
 48
1.0
 60
0
370
-1
100
AcDbLine
 10
29.7293529510498
 20
-0.694462895393372
 30
0.0
 11
29.957576751709
 21
-0.792991697788239
 31
0.0
 39
0.0
210
0.0
220
0.0
230
1.0
  0
LINE
  5
1CE
330
40
100
AcDbEntity
  8
RIGHT
  6
ByLayer
 62
7
 48
1.0
 60
0
370
-1
100
AcDbLine
 10
29.957576751709
 20
-0.792991697788239
 30
0.0
 11
30.1858005523682
 21
-0.883883535861969
 31
0.0
 39
0.0
210
0.0
220
0.0
230
1.0
  0
LINE
  5
1CF
330
40
100
AcDbEntity
  8
RIGHT
  6
ByLayer
 62
7
 48
1.0
 60
0
370
-1
100
AcDbLine
 10
30.1858005523682
 20
-0.883883535861969
 30
0.0
 11
30.4140243530273
 21
-0.966263115406036
 31
0.0
 39
0.0
210
0.0
220
0.0
230
1.0
  0
LINE
  5
1D0
330
40
100
AcDbEntity
  8
RIGHT
  6
ByLayer
 62
7
 48
1.0
 60
0
370
-1
100
AcDbLine
 10
30.4140243530273
 20
-0.966263115406036
 30
0.0
 11
30.6422481536865
 21
-1.03933703899384
 31
0.0
 39
0.0
210
0.0
220
0.0
230
1.0
  0
LINE
  5
1D1
330
40
100
AcDbEntity
  8
RIGHT
  6
ByLayer
 62
7
 48
1.0
 60
0
370
-1
100
AcDbLine
 10
30.6422481536865
 20
-1.03933703899384
 30
0.0
 11
30.8704719543457
 21
-1.10240161418915
 31
0.0
 39
0.0
210
0.0
220
0.0
230
1.0
  0
LINE
  5
1D2
330
40
100
AcDbEntity
  8
RIGHT
  6
ByLayer
 62
7
 48
1.0
 60
0
370
-1
100
AcDbLine
 10
30.8704719543457
 20
-1.10240161418915
 30
0.0
 11
31.0986957550049
 21
-1.15484952926636
 31
0.0
 39
0.0
210
0.0
220
0.0
230
1.0
  0
LINE
  5
1D3
330
40
100
AcDbEntity
  8
RIGHT
  6
ByLayer
 62
7
 48
1.0
 60
0
370
-1
100
AcDbLine
 10
27.4471206665039
 20
1.25
 30
0.0
 11
27.6753444671631
 21
1.243980884552
 31
0.0
 39
0.0
210
0.0
220
0.0
230
1.0
  0
LINE
  5
1D4
330
40
100
AcDbEntity
  8
RIGHT
  6
ByLayer
 62
7
 48
1.0
 60
0
370
-1
100
AcDbLine
 10
27.6753444671631
 20
1.243980884552
 30
0.0
 11
27.9035682678223
 21
1.22598159313202
 31
0.0
 39
0.0
210
0.0
220
0.0
230
1.0
  0
LINE
  5
1D5
330
40
100
AcDbEntity
  8
RIGHT
  6
ByLayer
 62
7
 48
1.0
 60
0
370
-1
100
AcDbLine
 10
27.9035682678223
 20
1.22598159313202
 30
0.0
 11
28.1317920684814
 21
1.19617533683777
 31
0.0
 39
0.0
210
0.0
220
0.0
230
1.0
  0
LINE
  5
1D6
330
40
100
AcDbEntity
  8
RIGHT
  6
ByLayer
 62
7
 48
1.0
 60
0
370
-1
100
AcDbLine
 10
28.1317920684814
 20
1.19617533683777
 30
0.0
 11
28.3600158691406
 21
1.15484941005707
 31
0.0
 39
0.0
210
0.0
220
0.0
230
1.0
  0
LINE
  5
1D7
330
40
100
AcDbEntity
  8
RIGHT
  6
ByLayer
 62
7
 48
1.0
 60
0
370
-1
100
AcDbLine
 10
28.3600158691406
 20
1.15484941005707
 30
0.0
 11
28.5882396697998
 21
1.10240149497986
 31
0.0
 39
0.0
210
0.0
220
0.0
230
1.0
  0
LINE
  5
1D8
330
40
100
AcDbEntity
  8
RIGHT
  6
ByLayer
 62
7
 48
1.0
 60
0
370
-1
100
AcDbLine
 10
28.5882396697998
 20
1.10240149497986
 30
0.0
 11
28.816463470459
 21
1.03933691978455
 31
0.0
 39
0.0
210
0.0
220
0.0
230
1.0
  0
LINE
  5
1D9
330
40
100
AcDbEntity
  8
RIGHT
  6
ByLayer
 62
7
 48
1.0
 60
0
370
-1
100
AcDbLine
 10
28.816463470459
 20
1.03933691978455
 30
0.0
 11
29.0446872711182
 21
0.966262996196747
 31
0.0
 39
0.0
210
0.0
220
0.0
230
1.0
  0
LINE
  5
1DA
330
40
100
AcDbEntity
  8
RIGHT
  6
ByLayer
 62
7
 48
1.0
 60
0
370
-1
100
AcDbLine
 10
29.0446872711182
 20
0.966262996196747
 30
0.0
 11
29.2729110717773
 21
0.883883416652679
 31
0.0
 39
0.0
210
0.0
220
0.0
230
1.0
  0
LINE
  5
1DB
330
40
100
AcDbEntity
  8
RIGHT
  6
ByLayer
 62
7
 48
1.0
 60
0
370
-1
100
AcDbLine
 10
29.2729110717773
 20
0.883883416652679
 30
0.0
 11
29.5011348724365
 21
0.792991518974304
 31
0.0
 39
0.0
210
0.0
220
0.0
230
1.0
  0
LINE
  5
1DC
330
40
100
AcDbEntity
  8
RIGHT
  6
ByLayer
 62
7
 48
1.0
 60
0
370
-1
100
AcDbLine
 10
29.5011348724365
 20
0.792991518974304
 30
0.0
 11
29.7293586730957
 21
0.694462716579437
 31
0.0
 39
0.0
210
0.0
220
0.0
230
1.0
  0
LINE
  5
1DD
330
40
100
AcDbEntity
  8
RIGHT
  6
ByLayer
 62
7
 48
1.0
 60
0
370
-1
100
AcDbLine
 10
29.7293586730957
 20
0.694462716579437
 30
0.0
 11
29.9575824737549
 21
0.589245855808258
 31
0.0
 39
0.0
210
0.0
220
0.0
230
1.0
  0
LINE
  5
1DE
330
40
100
AcDbEntity
  8
RIGHT
  6
ByLayer
 62
7
 48
1.0
 60
0
370
-1
100
AcDbLine
 10
29.9575824737549
 20
0.589245855808258
 30
0.0
 11
30.1858062744141
 21
0.478354185819626
 31
0.0
 39
0.0
210
0.0
220
0.0
230
1.0
  0
LINE
  5
1DF
330
40
100
AcDbEntity
  8
RIGHT
  6
ByLayer
 62
7
 48
1.0
 60
0
370
-1
100
AcDbLine
 10
30.1858062744141
 20
0.478354185819626
 30
0.0
 11
30.4140300750732
 21
0.362855732440948
 31
0.0
 39
0.0
210
0.0
220
0.0
230
1.0
  0
LINE
  5
1E0
330
40
100
AcDbEntity
  8
RIGHT
  6
ByLayer
 62
7
 48
1.0
 60
0
370
-1
100
AcDbLine
 10
30.4140300750732
 20
0.362855732440948
 30
0.0
 11
30.6422538757324
 21
0.24386277794838
 31
0.0
 39
0.0
210
0.0
220
0.0
230
1.0
  0
LINE
  5
1E1
330
40
100
AcDbEntity
  8
RIGHT
  6
ByLayer
 62
7
 48
1.0
 60
0
370
-1
100
AcDbLine
 10
30.6422538757324
 20
0.24386277794838
 30
0.0
 11
30.8704776763916
 21
0.122521296143532
 31
0.0
 39
0.0
210
0.0
220
0.0
230
1.0
  0
LINE
  5
1E2
330
40
100
AcDbEntity
  8
RIGHT
  6
ByLayer
 62
7
 48
1.0
 60
0
370
-1
100
AcDbLine
 10
30.8704776763916
 20
0.122521296143532
 30
0.0
 11
31.0987014770508
 21
-0.0000001303851604
 31
0.0
 39
0.0
210
0.0
220
0.0
230
1.0
  0
LINE
  5
1E3
330
40
100
AcDbEntity
  8
RIGHT
  6
ByLayer
 62
7
 48
1.0
 60
0
370
-1
100
AcDbLine
 10
29.2729148864746
 20
0.883883476257324
 30
0.0
 11
29.5011386871338
 21
0.966263055801392
 31
0.0
 39
0.0
210
0.0
220
0.0
230
1.0
  0
LINE
  5
1E4
330
40
100
AcDbEntity
  8
RIGHT
  6
ByLayer
 62
7
 48
1.0
 60
0
370
-1
100
AcDbLine
 10
29.5011386871338
 20
0.966263055801392
 30
0.0
 11
29.729362487793
 21
1.03933703899384
 31
0.0
 39
0.0
210
0.0
220
0.0
230
1.0
  0
LINE
  5
1E5
330
40
100
AcDbEntity
  8
RIGHT
  6
ByLayer
 62
7
 48
1.0
 60
0
370
-1
100
AcDbLine
 10
29.729362487793
 20
1.03933703899384
 30
0.0
 11
29.9575862884521
 21
1.10240161418915
 31
0.0
 39
0.0
210
0.0
220
0.0
230
1.0
  0
LINE
  5
1E6
330
40
100
AcDbEntity
  8
RIGHT
  6
ByLayer
 62
7
 48
1.0
 60
0
370
-1
100
AcDbLine
 10
29.9575862884521
 20
1.10240161418915
 30
0.0
 11
30.1858100891113
 21
1.15484941005707
 31
0.0
 39
0.0
210
0.0
220
0.0
230
1.0
  0
LINE
  5
1E7
330
40
100
AcDbEntity
  8
RIGHT
  6
ByLayer
 62
7
 48
1.0
 60
0
370
-1
100
AcDbLine
 10
30.1858100891113
 20
1.15484941005707
 30
0.0
 11
30.4140338897705
 21
1.19617545604706
 31
0.0
 39
0.0
210
0.0
220
0.0
230
1.0
  0
LINE
  5
1E8
330
40
100
AcDbEntity
  8
RIGHT
  6
ByLayer
 62
7
 48
1.0
 60
0
370
-1
100
AcDbLine
 10
30.4140338897705
 20
1.19617545604706
 30
0.0
 11
30.6422576904297
 21
1.22598159313202
 31
0.0
 39
0.0
210
0.0
220
0.0
230
1.0
  0
LINE
  5
1E9
330
40
100
AcDbEntity
  8
RIGHT
  6
ByLayer
 62
7
 48
1.0
 60
0
370
-1
100
AcDbLine
 10
30.6422576904297
 20
1.22598159313202
 30
0.0
 11
30.8704814910889
 21
1.243980884552
 31
0.0
 39
0.0
210
0.0
220
0.0
230
1.0
  0
LINE
  5
1EA
330
40
100
AcDbEntity
  8
RIGHT
  6
ByLayer
 62
7
 48
1.0
 60
0
370
-1
100
AcDbLine
 10
30.8704814910889
 20
1.243980884552
 30
0.0
 11
31.098705291748
 21
1.25
 31
0.0
 39
0.0
210
0.0
220
0.0
230
1.0
  0
LINE
  5
1EB
330
40
100
AcDbEntity
  8
RIGHT
  6
ByLayer
 62
7
 48
1.0
 60
0
370
-1
100
AcDbLine
 10
27.4471206665039
 20
-1.25
 30
0.0
 11
27.6753444671631
 21
-1.243980884552
 31
0.0
 39
0.0
210
0.0
220
0.0
230
1.0
  0
LINE
  5
1EC
330
40
100
AcDbEntity
  8
RIGHT
  6
ByLayer
 62
7
 48
1.0
 60
0
370
-1
100
AcDbLine
 10
27.6753444671631
 20
-1.243980884552
 30
0.0
 11
27.9035682678223
 21
-1.22598159313202
 31
0.0
 39
0.0
210
0.0
220
0.0
230
1.0
  0
LINE
  5
1ED
330
40
100
AcDbEntity
  8
RIGHT
  6
ByLayer
 62
7
 48
1.0
 60
0
370
-1
100
AcDbLine
 10
27.9035682678223
 20
-1.22598159313202
 30
0.0
 11
28.1317920684814
 21
-1.19617533683777
 31
0.0
 39
0.0
210
0.0
220
0.0
230
1.0
  0
LINE
  5
1EE
330
40
100
AcDbEntity
  8
RIGHT
  6
ByLayer
 62
7
 48
1.0
 60
0
370
-1
100
AcDbLine
 10
28.1317920684814
 20
-1.19617533683777
 30
0.0
 11
28.3600158691406
 21
-1.15484941005707
 31
0.0
 39
0.0
210
0.0
220
0.0
230
1.0
  0
LINE
  5
1EF
330
40
100
AcDbEntity
  8
RIGHT
  6
ByLayer
 62
7
 48
1.0
 60
0
370
-1
100
AcDbLine
 10
28.3600158691406
 20
-1.15484941005707
 30
0.0
 11
28.5882396697998
 21
-1.10240149497986
 31
0.0
 39
0.0
210
0.0
220
0.0
230
1.0
  0
LINE
  5
1F0
330
40
100
AcDbEntity
  8
RIGHT
  6
ByLayer
 62
7
 48
1.0
 60
0
370
-1
100
AcDbLine
 10
28.5882396697998
 20
-1.10240149497986
 30
0.0
 11
28.816463470459
 21
-1.03933691978455
 31
0.0
 39
0.0
210
0.0
220
0.0
230
1.0
  0
LINE
  5
1F1
330
40
100
AcDbEntity
  8
RIGHT
  6
ByLayer
 62
7
 48
1.0
 60
0
370
-1
100
AcDbLine
 10
28.816463470459
 20
-1.03933691978455
 30
0.0
 11
29.0446872711182
 21
-0.966262996196747
 31
0.0
 39
0.0
210
0.0
220
0.0
230
1.0
  0
LINE
  5
1F2
330
40
100
AcDbEntity
  8
RIGHT
  6
ByLayer
 62
7
 48
1.0
 60
0
370
-1
100
AcDbLine
 10
29.0446872711182
 20
-0.966262996196747
 30
0.0
 11
29.2729110717773
 21
-0.883883416652679
 31
0.0
 39
0.0
210
0.0
220
0.0
230
1.0
  0
LINE
  5
1F3
330
40
100
AcDbEntity
  8
RIGHT
  6
ByLayer
 62
7
 48
1.0
 60
0
370
-1
100
AcDbLine
 10
23.7955322265625
 20
1.25
 30
0.0
 11
27.4471206665039
 21
1.25
 31
0.0
 39
0.0
210
0.0
220
0.0
230
1.0
  0
LINE
  5
1F4
330
40
100
AcDbEntity
  8
RIGHT
  6
ByLayer
 62
7
 48
1.0
 60
0
370
-1
100
AcDbLine
 10
23.7955322265625
 20
-1.25
 30
0.0
 11
27.4471206665039
 21
-1.25
 31
0.0
 39
0.0
210
0.0
220
0.0
230
1.0
  0
LINE
  5
1F5
330
40
100
AcDbEntity
  8
RIGHT
  6
ByLayer
 62
7
 48
1.0
 60
0
370
-1
100
AcDbLine
 10
31.0987091064453
 20
-1.25
 30
0.0
 11
31.2489242553711
 21
-1.25
 31
0.0
 39
0.0
210
0.0
220
0.0
230
1.0
  0
LINE
  5
1F6
330
40
100
AcDbEntity
  8
RIGHT
  6
ByLayer
 62
7
 48
1.0
 60
0
370
-1
100
AcDbLine
 10
31.0987091064453
 20
1.25
 30
0.0
 11
31.2489242553711
 21
1.25
 31
0.0
 39
0.0
210
0.0
220
0.0
230
1.0
  0
LINE
  5
1F7
330
40
100
AcDbEntity
  8
RIGHT
  6
ByLayer
 62
7
 48
1.0
 60
0
370
-1
100
AcDbLine
 10
31.2489242553711
 20
1.25
 30
0.0
 11
32.0
 21
0.0
 31
0.0
 39
0.0
210
0.0
220
0.0
230
1.0
  0
LINE
  5
1F8
330
40
100
AcDbEntity
  8
RIGHT
  6
ByLayer
 62
7
 48
1.0
 60
0
370
-1
100
AcDbLine
 10
32.0
 20
0.0
 30
0.0
 11
31.2489242553711
 21
-1.25
 31
0.0
 39
0.0
210
0.0
220
0.0
230
1.0
  0
LINE
  5
1F9
330
40
100
AcDbEntity
  8
RIGHT
  6
ByLayer
 62
7
 48
1.0
 60
0
370
-1
100
AcDbLine
 10
31.2489242553711
 20
-1.25
 30
0.0
 11
31.0987091064453
 21
0.0
 31
0.0
 39
0.0
210
0.0
220
0.0
230
1.0
  0
ARC
  5
1FA
330
40
100
AcDbEntity
  8
RIGHT
  6
ByLayer
 62
7
 48
1.0
 60
0
370
-1
100
AcDbCircle
 10
0.0
 20
0.0
 30
0.0
 39
0.0
 40
Infinity
210
0.0
220
0.0
230
1.0
100
AcDbArc
 50
NaN
 51
NaN
  0
LINE
  5
1FB
330
40
100
AcDbEntity
  8
OPTIONAL_DIMENSIONS
  6
ByLayer
 62
256
 48
1.0
 60
0
370
-1
100
AcDbLine
 10
5.68370056152344
 20
3.17296123504639
 30
0.0
 11
5.23774528503418
 21
3.61085271835327
 31
0.0
 39
0.0
210
0.0
220
0.0
230
1.0
  0
LINE
  5
1FC
330
40
100
AcDbEntity
  8
OPTIONAL_DIMENSIONS
  6
ByLayer
 62
256
 48
1.0
 60
0
370
-1
100
AcDbLine
 10
5.23774528503418
 20
3.61085271835327
 30
0.0
 11
4.58493661880493
 21
2.5
 31
0.0
 39
0.0
210
0.0
220
0.0
230
1.0
  0
LINE
  5
1FD
330
40
100
AcDbEntity
  8
OPTIONAL_DIMENSIONS
  6
ByLayer
 62
256
 48
1.0
 60
0
370
-1
100
AcDbLine
 10
4.58493661880493
 20
2.5
 30
0.0
 11
5.68370056152344
 21
3.17296123504639
 31
0.0
 39
0.0
210
0.0
220
0.0
230
1.0
  0
ARC
  5
1FE
330
40
100
AcDbEntity
  8
OPTIONAL_DIMENSIONS
  6
ByLayer
 62
256
 48
1.0
 60
0
370
-1
100
AcDbCircle
 10
6.75
 20
1.25
 30
0.0
 39
0.0
 40
2.5
210
0.0
220
0.0
230
1.0
100
AcDbArc
 50
90.0
 51
121.044776916504
  0
LINE
  5
1FF
330
40
100
AcDbEntity
  8
OPTIONAL_DIMENSIONS
  6
ByLayer
 62
256
 48
1.0
 60
0
370
-1
100
AcDbLine
 10
6.75
 20
1.25
 30
0.0
 11
4.25
 21
2.69337558746338
 31
0.0
 39
0.0
210
0.0
220
0.0
230
1.0
  0
LINE
  5
200
330
40
100
AcDbEntity
  8
OPTIONAL_DIMENSIONS
  6
ByLayer
 62
256
 48
1.0
 60
0
370
-1
100
AcDbLine
 10
4.25
 20
2.69337558746338
 30
0.0
 11
4.25
 21
10.2749996185303
 31
0.0
 39
0.0
210
0.0
220
0.0
230
1.0
  0
TEXT
  5
201
330
40
100
AcDbEntity
  8
OPTIONAL_DIMENSIONS
  6
ByLayer
 62
256
 48
1.0
 60
0
370
-1
100
AcDbText
  1
30°
 10
2.0
 20
10.8999996185303
 30
0.0
 40
2.5
  7
Standard
 11
0.0
 21
0.0
 31
0.0
210
0.0
220
0.0
230
1.0
100
AcDbText
  0
LINE
  5
202
330
40
100
AcDbEntity
  8
OPTIONAL_DIMENSIONS
  6
ByLayer
 62
256
 48
1.0
 60
0
370
-1
100
AcDbLine
 10
31.2489242553711
 20
1.25
 30
0.0
 11
31.5614242553711
 21
2.5
 31
0.0
 39
0.0
210
0.0
220
0.0
230
1.0
  0
LINE
  5
203
330
40
100
AcDbEntity
  8
OPTIONAL_DIMENSIONS
  6
ByLayer
 62
256
 48
1.0
 60
0
370
-1
100
AcDbLine
 10
31.5614242553711
 20
2.5
 30
0.0
 11
30.9364242553711
 21
2.5
 31
0.0
 39
0.0
210
0.0
220
0.0
230
1.0
  0
LINE
  5
204
330
40
100
AcDbEntity
  8
OPTIONAL_DIMENSIONS
  6
ByLayer
 62
256
 48
1.0
 60
0
370
-1
100
AcDbLine
 10
30.9364242553711
 20
2.5
 30
0.0
 11
31.2489242553711
 21
1.25
 31
0.0
 39
0.0
210
0.0
220
0.0
230
1.0
  0
LINE
  5
205
330
40
100
AcDbEntity
  8
OPTIONAL_DIMENSIONS
  6
ByLayer
 62
256
 48
1.0
 60
0
370
-1
100
AcDbLine
 10
31.2489242553711
 20
2.5
 30
0.0
 11
31.2489242553711
 21
10.2749996185303
 31
0.0
 39
0.0
210
0.0
220
0.0
230
1.0
  0
TEXT
  5
206
330
40
100
AcDbEntity
  8
OPTIONAL_DIMENSIONS
  6
ByLayer
 62
256
 48
1.0
 60
0
370
-1
100
AcDbText
  1
2Z
 10
29.7489242553711
 20
10.8999996185303
 30
0.0
 40
2.5
  7
Standard
 11
0.0
 21
0.0
 31
0.0
210
0.0
220
0.0
230
1.0
100
AcDbText
  0
LINE
  5
207
330
40
100
AcDbEntity
  8
DIMENSIONS
  6
ByLayer
 62
256
 48
1.0
 60
0
370
-1
100
AcDbLine
 10
-25.0
 20
-1.5
 30
0.0
 11
-25.0
 21
-12.125
 31
0.0
 39
0.0
210
0.0
220
0.0
230
1.0
  0
LINE
  5
208
330
40
100
AcDbEntity
  8
DIMENSIONS
  6
ByLayer
 62
256
 48
1.0
 60
0
370
-1
100
AcDbLine
 10
32.0
 20
-1.5
 30
0.0
 11
32.0
 21
-12.125
 31
0.0
 39
0.0
210
0.0
220
0.0
230
1.0
  0
LINE
  5
209
330
40
100
AcDbEntity
  8
DIMENSIONS
  6
ByLayer
 62
256
 48
1.0
 60
0
370
-1
100
AcDbLine
 10
-25.0
 20
-11.5
 30
0.0
 11
-23.75
 21
-11.1875
 31
0.0
 39
0.0
210
0.0
220
0.0
230
1.0
  0
LINE
  5
20A
330
40
100
AcDbEntity
  8
DIMENSIONS
  6
ByLayer
 62
256
 48
1.0
 60
0
370
-1
100
AcDbLine
 10
-23.75
 20
-11.1875
 30
0.0
 11
-23.75
 21
-11.8125
 31
0.0
 39
0.0
210
0.0
220
0.0
230
1.0
  0
LINE
  5
20B
330
40
100
AcDbEntity
  8
DIMENSIONS
  6
ByLayer
 62
256
 48
1.0
 60
0
370
-1
100
AcDbLine
 10
-23.75
 20
-11.8125
 30
0.0
 11
-25.0
 21
-11.5
 31
0.0
 39
0.0
210
0.0
220
0.0
230
1.0
  0
LINE
  5
20C
330
40
100
AcDbEntity
  8
DIMENSIONS
  6
ByLayer
 62
256
 48
1.0
 60
0
370
-1
100
AcDbLine
 10
-23.75
 20
-11.5
 30
0.0
 11
3.5
 21
-11.5
 31
0.0
 39
0.0
210
0.0
220
0.0
230
1.0
  0
LINE
  5
20D
330
40
100
AcDbEntity
  8
DIMENSIONS
  6
ByLayer
 62
256
 48
1.0
 60
0
370
-1
100
AcDbLine
 10
32.0
 20
-11.5
 30
0.0
 11
30.75
 21
-11.1875
 31
0.0
 39
0.0
210
0.0
220
0.0
230
1.0
  0
LINE
  5
20E
330
40
100
AcDbEntity
  8
DIMENSIONS
  6
ByLayer
 62
256
 48
1.0
 60
0
370
-1
100
AcDbLine
 10
30.75
 20
-11.1875
 30
0.0
 11
30.75
 21
-11.8125
 31
0.0
 39
0.0
210
0.0
220
0.0
230
1.0
  0
LINE
  5
20F
330
40
100
AcDbEntity
  8
DIMENSIONS
  6
ByLayer
 62
256
 48
1.0
 60
0
370
-1
100
AcDbLine
 10
30.75
 20
-11.8125
 30
0.0
 11
32.0
 21
-11.5
 31
0.0
 39
0.0
210
0.0
220
0.0
230
1.0
  0
LINE
  5
210
330
40
100
AcDbEntity
  8
DIMENSIONS
  6
ByLayer
 62
256
 48
1.0
 60
0
370
-1
100
AcDbLine
 10
3.5
 20
-11.5
 30
0.0
 11
30.75
 21
-11.5
 31
0.0
 39
0.0
210
0.0
220
0.0
230
1.0
  0
TEXT
  5
211
330
40
100
AcDbEntity
  8
DIMENSIONS
  6
ByLayer
 62
256
 48
1.0
 60
0
370
-1
100
AcDbText
  1
57
 10
-13.0
 20
-10.875
 30
0.0
 40
2.5
  7
Standard
 11
0.0
 21
0.0
 31
0.0
210
0.0
220
0.0
230
1.0
100
AcDbText
  0
LINE
  5
212
330
40
100
AcDbEntity
  8
DIMENSIONS
  6
ByLayer
 62
256
 48
1.0
 60
0
370
-1
100
AcDbLine
 10
2.0
 20
-1.5
 30
0.0
 11
2.0
 21
-7.125
 31
0.0
 39
0.0
210
0.0
220
0.0
230
1.0
  0
LINE
  5
213
330
40
100
AcDbEntity
  8
DIMENSIONS
  6
ByLayer
 62
256
 48
1.0
 60
0
370
-1
100
AcDbLine
 10
32.0
 20
-1.5
 30
0.0
 11
32.0
 21
-7.125
 31
0.0
 39
0.0
210
0.0
220
0.0
230
1.0
  0
LINE
  5
214
330
40
100
AcDbEntity
  8
DIMENSIONS
  6
ByLayer
 62
256
 48
1.0
 60
0
370
-1
100
AcDbLine
 10
2.0
 20
-6.5
 30
0.0
 11
3.25
 21
-6.1875
 31
0.0
 39
0.0
210
0.0
220
0.0
230
1.0
  0
LINE
  5
215
330
40
100
AcDbEntity
  8
DIMENSIONS
  6
ByLayer
 62
256
 48
1.0
 60
0
370
-1
100
AcDbLine
 10
3.25
 20
-6.1875
 30
0.0
 11
3.25
 21
-6.8125
 31
0.0
 39
0.0
210
0.0
220
0.0
230
1.0
  0
LINE
  5
216
330
40
100
AcDbEntity
  8
DIMENSIONS
  6
ByLayer
 62
256
 48
1.0
 60
0
370
-1
100
AcDbLine
 10
3.25
 20
-6.8125
 30
0.0
 11
2.0
 21
-6.5
 31
0.0
 39
0.0
210
0.0
220
0.0
230
1.0
  0
LINE
  5
217
330
40
100
AcDbEntity
  8
DIMENSIONS
  6
ByLayer
 62
256
 48
1.0
 60
0
370
-1
100
AcDbLine
 10
3.25
 20
-6.5
 30
0.0
 11
17.0
 21
-6.5
 31
0.0
 39
0.0
210
0.0
220
0.0
230
1.0
  0
LINE
  5
218
330
40
100
AcDbEntity
  8
DIMENSIONS
  6
ByLayer
 62
256
 48
1.0
 60
0
370
-1
100
AcDbLine
 10
32.0
 20
-6.5
 30
0.0
 11
30.75
 21
-6.1875
 31
0.0
 39
0.0
210
0.0
220
0.0
230
1.0
  0
LINE
  5
219
330
40
100
AcDbEntity
  8
DIMENSIONS
  6
ByLayer
 62
256
 48
1.0
 60
0
370
-1
100
AcDbLine
 10
30.75
 20
-6.1875
 30
0.0
 11
30.75
 21
-6.8125
 31
0.0
 39
0.0
210
0.0
220
0.0
230
1.0
  0
LINE
  5
21A
330
40
100
AcDbEntity
  8
DIMENSIONS
  6
ByLayer
 62
256
 48
1.0
 60
0
370
-1
100
AcDbLine
 10
30.75
 20
-6.8125
 30
0.0
 11
32.0
 21
-6.5
 31
0.0
 39
0.0
210
0.0
220
0.0
230
1.0
  0
LINE
  5
21B
330
40
100
AcDbEntity
  8
DIMENSIONS
  6
ByLayer
 62
256
 48
1.0
 60
0
370
-1
100
AcDbLine
 10
17.0
 20
-6.5
 30
0.0
 11
30.75
 21
-6.5
 31
0.0
 39
0.0
210
0.0
220
0.0
230
1.0
  0
TEXT
  5
21C
330
40
100
AcDbEntity
  8
DIMENSIONS
  6
ByLayer
 62
256
 48
1.0
 60
0
370
-1
100
AcDbText
  1
30
 10
15.5
 20
-5.875
 30
0.0
 40
2.5
  7
Standard
 11
0.0
 21
0.0
 31
0.0
210
0.0
220
0.0
230
1.0
100
AcDbText
  0
LINE
  5
21D
330
40
100
AcDbEntity
  8
DIMENSIONS
  6
ByLayer
 62
256
 48
1.0
 60
0
370
-1
100
AcDbLine
 10
32.25
 20
-1.25
 30
0.0
 11
39.75
 21
-1.25
 31
0.0
 39
0.0
210
0.0
220
0.0
230
1.0
  0
LINE
  5
21E
330
40
100
AcDbEntity
  8
DIMENSIONS
  6
ByLayer
 62
256
 48
1.0
 60
0
370
-1
100
AcDbLine
 10
32.25
 20
1.25
 30
0.0
 11
39.75
 21
1.25
 31
0.0
 39
0.0
210
0.0
220
0.0
230
1.0
  0
LINE
  5
21F
330
40
100
AcDbEntity
  8
DIMENSIONS
  6
ByLayer
 62
256
 48
1.0
 60
0
370
-1
100
AcDbLine
 10
38.5
 20
-1.25
 30
0.0
 11
38.8125
 21
-2.5
 31
0.0
 39
0.0
210
0.0
220
0.0
230
1.0
  0
LINE
  5
220
330
40
100
AcDbEntity
  8
DIMENSIONS
  6
ByLayer
 62
256
 48
1.0
 60
0
370
-1
100
AcDbLine
 10
38.8125
 20
-2.5
 30
0.0
 11
38.1875
 21
-2.5
 31
0.0
 39
0.0
210
0.0
220
0.0
230
1.0
  0
LINE
  5
221
330
40
100
AcDbEntity
  8
DIMENSIONS
  6
ByLayer
 62
256
 48
1.0
 60
0
370
-1
100
AcDbLine
 10
38.1875
 20
-2.5
 30
0.0
 11
38.5
 21
-1.25
 31
0.0
 39
0.0
210
0.0
220
0.0
230
1.0
  0
LINE
  5
222
330
40
100
AcDbEntity
  8
DIMENSIONS
  6
ByLayer
 62
256
 48
1.0
 60
0
370
-1
100
AcDbLine
 10
38.5
 20
-3.125
 30
0.0
 11
38.5
 21
-2.5
 31
0.0
 39
0.0
210
0.0
220
0.0
230
1.0
  0
LINE
  5
223
330
40
100
AcDbEntity
  8
DIMENSIONS
  6
ByLayer
 62
256
 48
1.0
 60
0
370
-1
100
AcDbLine
 10
38.5
 20
1.25
 30
0.0
 11
38.8125
 21
2.5
 31
0.0
 39
0.0
210
0.0
220
0.0
230
1.0
  0
LINE
  5
224
330
40
100
AcDbEntity
  8
DIMENSIONS
  6
ByLayer
 62
256
 48
1.0
 60
0
370
-1
100
AcDbLine
 10
38.8125
 20
2.5
 30
0.0
 11
38.1875
 21
2.5
 31
0.0
 39
0.0
210
0.0
220
0.0
230
1.0
  0
LINE
  5
225
330
40
100
AcDbEntity
  8
DIMENSIONS
  6
ByLayer
 62
256
 48
1.0
 60
0
370
-1
100
AcDbLine
 10
38.1875
 20
2.5
 30
0.0
 11
38.5
 21
1.25
 31
0.0
 39
0.0
210
0.0
220
0.0
230
1.0
  0
LINE
  5
226
330
40
100
AcDbEntity
  8
DIMENSIONS
  6
ByLayer
 62
256
 48
1.0
 60
0
370
-1
100
AcDbLine
 10
38.5
 20
2.5
 30
0.0
 11
38.5
 21
3.125
 31
0.0
 39
0.0
210
0.0
220
0.0
230
1.0
  0
TEXT
  5
227
330
40
100
AcDbEntity
  8
DIMENSIONS
  6
ByLayer
 62
256
 48
1.0
 60
0
370
-1
100
AcDbText
  1
2.5
 10
39.75
 20
-8.25
 30
0.0
 40
2.5
 50
116.620156177409
  7
Standard
 11
0.0
 21
0.0
 31
0.0
210
0.0
220
0.0
230
1.0
100
AcDbText
  0
LINE
  5
228
330
40
100
AcDbEntity
  8
DIMENSIONS
  6
ByLayer
 62
256
 48
1.0
 60
0
370
-1
100
AcDbLine
 10
35.8058815002441
 20
-3.85096764564514
 30
0.0
 11
35.4208030700684
 21
-3.3586905002594
 31
0.0
 39
0.0
210
0.0
220
0.0
230
1.0
  0
LINE
  5
229
330
40
100
AcDbEntity
  8
DIMENSIONS
  6
ByLayer
 62
256
 48
1.0
 60
0
370
-1
100
AcDbLine
 10
35.4208030700684
 20
-3.3586905002594
 30
0.0
 11
34.6287841796875
 21
-4.37498903274536
 31
0.0
 39
0.0
210
0.0
220
0.0
230
1.0
  0
LINE
  5
22A
330
40
100
AcDbEntity
  8
DIMENSIONS
  6
ByLayer
 62
256
 48
1.0
 60
0
370
-1
100
AcDbLine
 10
34.6287841796875
 20
-4.37498903274536
 30
0.0
 11
35.8058815002441
 21
-3.85096764564514
 31
0.0
 39
0.0
210
0.0
220
0.0
230
1.0
  0
ARC
  5
22B
330
40
100
AcDbEntity
  8
DIMENSIONS
  6
ByLayer
 62
256
 48
1.0
 60
0
370
-1
100
AcDbCircle
 10
32.0
 20
0.0
 30
0.0
 39
0.0
 40
5.1040210723877
210
0.0
220
0.0
230
1.0
100
AcDbArc
 50
315.067779541016
 51
322.168426513672
  0
LINE
  5
22C
330
40
100
AcDbEntity
  8
DIMENSIONS
  6
ByLayer
 62
256
 48
1.0
 60
0
370
-1
100
AcDbLine
 10
32.0
 20
0.0
 30
0.0
 11
34.95068359375
 21
-4.91071748733521
 31
0.0
 39
0.0
210
0.0
220
0.0
230
1.0
  0
LINE
  5
22D
330
40
100
AcDbEntity
  8
DIMENSIONS
  6
ByLayer
 62
256
 48
1.0
 60
0
370
-1
100
AcDbLine
 10
35.4207878112793
 20
3.35870361328125
 30
0.0
 11
35.8058662414551
 21
3.85098552703857
 31
0.0
 39
0.0
210
0.0
220
0.0
230
1.0
  0
LINE
  5
22E
330
40
100
AcDbEntity
  8
DIMENSIONS
  6
ByLayer
 62
256
 48
1.0
 60
0
370
-1
100
AcDbLine
 10
35.8058662414551
 20
3.85098552703857
 30
0.0
 11
34.6287651062012
 21
4.375
 31
0.0
 39
0.0
210
0.0
220
0.0
230
1.0
  0
LINE
  5
22F
330
40
100
AcDbEntity
  8
DIMENSIONS
  6
ByLayer
 62
256
 48
1.0
 60
0
370
-1
100
AcDbLine
 10
34.6287651062012
 20
4.375
 30
0.0
 11
35.4207878112793
 21
3.35870361328125
 31
0.0
 39
0.0
210
0.0
220
0.0
230
1.0
  0
ARC
  5
230
330
40
100
AcDbEntity
  8
DIMENSIONS
  6
ByLayer
 62
256
 48
1.0
 60
0
370
-1
100
AcDbCircle
 10
32.0
 20
0.0
 30
0.0
 39
0.0
 40
5.1040210723877
210
0.0
220
0.0
230
1.0
100
AcDbArc
 50
37.7532653808594
 51
44.9324951171875
  0
LINE
  5
231
330
40
100
AcDbEntity
  8
DIMENSIONS
  6
ByLayer
 62
256
 48
1.0
 60
0
370
-1
100
AcDbLine
 10
32.0
 20
0.0
 30
0.0
 11
34.9506645202637
 21
4.91072940826416
 31
0.0
 39
0.0
210
0.0
220
0.0
230
1.0
  0
DIMENSION
  5
232
330
40
100
AcDbEntity
  8
DIMENSIONS
  6
ByLayer
 62
256
 48
1.0
 60
0
370
-1
100
AcDbDimension
  2
*D562
 10
32.7805480957031
 20
2.9642276763916
 30
0.0
 11
0.0
 21
0.0
 31
0.0
 53
0.0
 70
37
 71
0
 72
0
 41
0.0
210
0.0
220
0.0
230
1.0
  3
Standard
100
AcDb3PointAngularDimension
 13
34.6287841796875
 23
-4.37498903274536
 33
0.0
 14
34.6287651062012
 24
4.375
 34
0.0
 15
32.0
 25
0.0
 35
0.0
  0
LINE
  5
236
330
40
100
AcDbEntity
  8
HIDDEN
  6
ByLayer
 62
256
 48
1.0
 60
0
370
-1
100
AcDbLine
 10
-31.7749996185303
 20
-18.6499996185303
 30
0.0
 11
-31.7748996185303
 21
-18.6499996185303
 31
0.0
 39
0.0
210
0.0
220
0.0
230
1.0
  0
LINE
  5
237
330
40
100
AcDbEntity
  8
HIDDEN
  6
ByLayer
 62
256
 48
1.0
 60
0
370
-1
100
AcDbLine
 10
46.5250015258789
 20
13.3999996185303
 30
0.0
 11
46.5249015258789
 21
13.3999996185303
 31
0.0
 39
0.0
210
0.0
220
0.0
230
1.0
  0
ENDSEC
  0
SECTION
  2
OBJECTS
  0
DICTIONARY
  5
A
330
0
100
AcDbDictionary
280
0
281
0
  3
ACAD_COLOR
350
B
  3
ACAD_GROUP
350
C
  3
ACAD_LAYOUT
350
D
  3
ACAD_MATERIAL
350
E
  3
ACAD_SORTENTS
350
F
  3
ACAD_MLEADERSTYLE
350
10
  3
ACAD_MLINESTYLE
350
11
  3
ACAD_TABLESTYLE
350
12
  3
ACAD_PLOTSETTINGS
350
13
  3
AcDbVariableDictionary
350
14
  3
ACAD_SCALELIST
350
15
  3
ACAD_VISUALSTYLE
350
16
  3
ACAD_FIELDLIST
350
17
  3
ACAD_IMAGE_DICT
350
18
  3
ACAD_PDFDEFINITIONS
350
2F
  0
DICTIONARY
  5
B
330
A
100
AcDbDictionary
280
0
281
0
  0
DICTIONARY
  5
C
330
A
100
AcDbDictionary
280
0
281
0
  0
DICTIONARY
  5
D
330
A
100
AcDbDictionary
280
0
281
0
  3
Model
350
3F
  3
Layout1
350
43
  0
DICTIONARY
  5
E
330
A
100
AcDbDictionary
280
0
281
0
  3
Global
350
36
  3
ByLayer
350
37
  3
ByBlock
350
38
  0
DICTIONARY
  5
F
330
A
100
AcDbDictionary
280
0
281
0
  0
DICTIONARY
  5
10
330
A
100
AcDbDictionary
280
0
281
0
  3
Standard
350
2C
  0
DICTIONARY
  5
11
330
A
100
AcDbDictionary
280
0
281
0
  3
Standard
350
2A
  0
DICTIONARY
  5
12
330
A
100
AcDbDictionary
280
0
281
0
  3
Standard
350
2E
  0
DICTIONARY
  5
13
330
A
100
AcDbDictionary
280
0
281
0
  0
DICTIONARY
  5
14
330
A
100
AcDbDictionary
280
0
281
0
  3
CMLEADERSTYLE
350
30
  3
CANNOSCALE
350
31
  3
CTABLESTYLE
350
32
  3
WIPEOUTFRAME
350
33
  3
CVIEWDETAILSTYLE
350
34
  3
CVIEWSECTIONSTYLE
350
35
  0
DICTIONARY
  5
15
330
A
100
AcDbDictionary
280
0
281
0
  3
1:1
350
19
  3
1:2
350
1A
  3
1:4
350
1B
  3
1:5
350
1C
  3
1:8
350
1D
  3
1:10
350
1E
  3
1:16
350
1F
  3
1:20
350
20
  3
1:30
350
21
  3
1:40
350
22
  3
1:50
350
23
  3
1:100
350
24
  3
2:1
350
25
  3
4:1
350
26
  3
8:1
350
27
  3
10:1
350
28
  3
100:1
350
29
  0
DICTIONARY
  5
16
330
A
100
AcDbDictionary
280
0
281
0
  0
DICTIONARY
  5
17
330
A
100
AcDbDictionary
280
0
281
0
  0
DICTIONARY
  5
18
330
A
100
AcDbDictionary
280
0
281
0
  0
DICTIONARY
  5
2F
330
A
100
AcDbDictionary
280
0
281
0
  0
LAYOUT
  5
3F
330
D
100
AcDbPlotSettings
  1
none_device
  4
ISO_A4_(210.00_x_297.00_MM)
 40
0.0
 41
0.0
 42
0.0
 43
0.0
 44
0.0
 45
0.0
 46
0.0
 47
0.0
 48
0.0
 49
0.0
140
0.0
141
0.0
142
1.0
143
1.0
 70
688
 72
1
 73
0
 74
1
 75
0
 76
0
 77
0
 78
300
147
1.0
148
0.0
149
0.0
100
AcDbLayout
  1
Model
 71
0
 10
-20.0
 20
-7.5
 11
277.0
 21
202.5
 12
0.0
 22
0.0
 32
0.0
 13
0.0
 23
0.0
 33
0.0
 14
25.7
 24
19.5
 34
0.0
 15
231.3
 25
175.5
 35
0.0
 16
1.0
 26
0.0
 36
0.0
 17
0.0
 27
1.0
 37
0.0
146
0.0
 76
0
330
40
  0
LAYOUT
  5
43
330
D
100
AcDbPlotSettings
  1
none_device
  4
ISO_A4_(210.00_x_297.00_MM)
 40
0.0
 41
0.0
 42
0.0
 43
0.0
 44
0.0
 45
0.0
 46
0.0
 47
0.0
 48
0.0
 49
0.0
140
0.0
141
0.0
142
1.0
143
1.0
 70
688
 72
1
 73
0
 74
1
 75
0
 76
0
 77
0
 78
300
147
1.0
148
0.0
149
0.0
100
AcDbLayout
  1
Layout1
 71
1
 10
-20.0
 20
-7.5
 11
277.0
 21
202.5
 12
0.0
 22
0.0
 32
0.0
 13
0.0
 23
0.0
 33
0.0
 14
25.7
 24
19.5
 34
0.0
 15
231.3
 25
175.5
 35
0.0
 16
1.0
 26
0.0
 36
0.0
 17
0.0
 27
1.0
 37
0.0
146
0.0
 76
0
330
44
  0
MLEADERSTYLE
  5
2C
330
10
100
AcDbMLeaderStyle
179
2
170
2
171
0
172
0
 90
2
 40
0.0
 41
0.0
173
0
 91
-1056964608
340
2B
 92
-2
290
1
 42
0.09
291
1
 43
0.36
  3

 44
0.18
300

342
2D
174
0
178
0
175
1
176
0
 93
-1056964608
 45
0.18
292
0
297
0
 46
0.0
 94
-1056964608
 47
1.0
 49
1.0
140
1.0
293
0
141
0.0
294
0
177
0
142
1.0
295
0
296
0
143
0.125
271
0
272
0
273
0
298
0
  0
MLINESTYLE
  5
2A
330
11
100
AcDbMlineStyle
  2
Standard
 70
0
 62
256
 51
90.0
 52
90.0
 71
2
 49
0.5
 62
256
  6
ByLayer
 49
-0.5
 62
256
  6
ByLayer
  0
DICTIONARYVAR
  5
30
330
14
100
DictionaryVariables
  1
Standard
280
0
  0
DICTIONARYVAR
  5
31
330
14
100
DictionaryVariables
  1
1:1
280
0
  0
DICTIONARYVAR
  5
32
330
14
100
DictionaryVariables
  1
Standard
280
0
  0
DICTIONARYVAR
  5
33
330
14
100
DictionaryVariables
  1
1
280
0
  0
DICTIONARYVAR
  5
34
330
14
100
DictionaryVariables
  1
Metric50
280
0
  0
DICTIONARYVAR
  5
35
330
14
100
DictionaryVariables
  1
Metric50
280
0
  0
SCALE
  5
19
330
15
100
AcDbScale
 70
0
300
1:1
140
1.0
141
1.0
290
1
  0
SCALE
  5
1A
330
15
100
AcDbScale
 70
0
300
1:2
140
1.0
141
2.0
290
0
  0
SCALE
  5
1B
330
15
100
AcDbScale
 70
0
300
1:4
140
1.0
141
4.0
290
0
  0
SCALE
  5
1C
330
15
100
AcDbScale
 70
0
300
1:5
140
1.0
141
5.0
290
0
  0
SCALE
  5
1D
330
15
100
AcDbScale
 70
0
300
1:8
140
1.0
141
8.0
290
0
  0
SCALE
  5
1E
330
15
100
AcDbScale
 70
0
300
1:10
140
1.0
141
10.0
290
0
  0
SCALE
  5
1F
330
15
100
AcDbScale
 70
0
300
1:16
140
1.0
141
16.0
290
0
  0
SCALE
  5
20
330
15
100
AcDbScale
 70
0
300
1:20
140
1.0
141
20.0
290
0
  0
SCALE
  5
21
330
15
100
AcDbScale
 70
0
300
1:30
140
1.0
141
30.0
290
0
  0
SCALE
  5
22
330
15
100
AcDbScale
 70
0
300
1:40
140
1.0
141
40.0
290
0
  0
SCALE
  5
23
330
15
100
AcDbScale
 70
0
300
1:50
140
1.0
141
50.0
290
0
  0
SCALE
  5
24
330
15
100
AcDbScale
 70
0
300
1:100
140
1.0
141
100.0
290
0
  0
SCALE
  5
25
330
15
100
AcDbScale
 70
0
300
2:1
140
2.0
141
1.0
290
0
  0
SCALE
  5
26
330
15
100
AcDbScale
 70
0
300
4:1
140
4.0
141
1.0
290
0
  0
SCALE
  5
27
330
15
100
AcDbScale
 70
0
300
8:1
140
8.0
141
1.0
290
0
  0
SCALE
  5
28
330
15
100
AcDbScale
 70
0
300
10:1
140
10.0
141
1.0
290
0
  0
SCALE
  5
29
330
15
100
AcDbScale
 70
0
300
100:1
140
100.0
141
1.0
290
0
  0
ENDSEC
  0
EOF
